<mxfile host="Electron" agent="Mozilla/5.0 (Windows NT 10.0; Win64; x64) AppleWebKit/537.36 (KHTML, like Gecko) draw.io/28.0.6 Chrome/138.0.7204.100 Electron/37.2.3 Safari/537.36" version="28.0.6">
  <diagram name="Page-1" id="nT4n5ckVT9EHlKYKFGYq">
    <mxGraphModel dx="983" dy="645" grid="1" gridSize="10" guides="1" tooltips="1" connect="1" arrows="1" fold="1" page="1" pageScale="1" pageWidth="850" pageHeight="1100" math="0" shadow="0">
      <root>
        <mxCell id="0" />
        <mxCell id="1" parent="0" />
        <mxCell id="HCuMxB1ecjVolzXwdw-D-2" value="" style="rounded=0;whiteSpace=wrap;html=1;fillColor=none;dashed=1;strokeColor=#999999;" vertex="1" parent="1">
          <mxGeometry x="40" y="120" width="120" height="450" as="geometry" />
        </mxCell>
        <mxCell id="HCuMxB1ecjVolzXwdw-D-4" value="Source" style="rounded=0;whiteSpace=wrap;html=1;" vertex="1" parent="1">
          <mxGeometry x="40" y="90" width="120" height="30" as="geometry" />
        </mxCell>
        <mxCell id="HCuMxB1ecjVolzXwdw-D-5" value="" style="rounded=0;whiteSpace=wrap;html=1;fillColor=none;dashed=1;" vertex="1" parent="1">
          <mxGeometry x="200" y="120" width="580" height="450" as="geometry" />
        </mxCell>
        <mxCell id="HCuMxB1ecjVolzXwdw-D-7" value="" style="rounded=0;whiteSpace=wrap;html=1;fillColor=none;dashed=1;" vertex="1" parent="1">
          <mxGeometry x="820" y="122.5" width="150" height="447.5" as="geometry" />
        </mxCell>
        <mxCell id="HCuMxB1ecjVolzXwdw-D-8" value="Data Warehouse" style="rounded=0;whiteSpace=wrap;html=1;" vertex="1" parent="1">
          <mxGeometry x="200" y="90" width="580" height="30" as="geometry" />
        </mxCell>
        <mxCell id="HCuMxB1ecjVolzXwdw-D-9" value="Consume" style="rounded=0;whiteSpace=wrap;html=1;" vertex="1" parent="1">
          <mxGeometry x="820" y="92.5" width="150" height="30" as="geometry" />
        </mxCell>
        <mxCell id="HCuMxB1ecjVolzXwdw-D-10" value="" style="rounded=0;whiteSpace=wrap;html=1;fillColor=none;strokeColor=#d79b00;" vertex="1" parent="1">
          <mxGeometry x="220" y="135" width="150" height="425" as="geometry" />
        </mxCell>
        <mxCell id="HCuMxB1ecjVolzXwdw-D-11" value="" style="rounded=0;whiteSpace=wrap;html=1;fillColor=none;fontColor=#333333;strokeColor=#666666;" vertex="1" parent="1">
          <mxGeometry x="415" y="135" width="150" height="425" as="geometry" />
        </mxCell>
        <mxCell id="HCuMxB1ecjVolzXwdw-D-13" value="" style="rounded=0;whiteSpace=wrap;html=1;fillColor=none;strokeColor=#d6b656;" vertex="1" parent="1">
          <mxGeometry x="610" y="135" width="150" height="425" as="geometry" />
        </mxCell>
        <mxCell id="HCuMxB1ecjVolzXwdw-D-14" value="Bronze Layer" style="rounded=0;whiteSpace=wrap;html=1;fillColor=#ffe6cc;strokeColor=#d79b00;" vertex="1" parent="1">
          <mxGeometry x="235" y="122.5" width="120" height="20" as="geometry" />
        </mxCell>
        <mxCell id="HCuMxB1ecjVolzXwdw-D-15" value="Silver Layer" style="rounded=0;whiteSpace=wrap;html=1;fillColor=#f5f5f5;fontColor=#333333;strokeColor=#666666;" vertex="1" parent="1">
          <mxGeometry x="432.5" y="122.5" width="120" height="20" as="geometry" />
        </mxCell>
        <mxCell id="HCuMxB1ecjVolzXwdw-D-16" value="Gold Layer" style="rounded=0;whiteSpace=wrap;html=1;fillColor=#fff2cc;strokeColor=#d6b656;" vertex="1" parent="1">
          <mxGeometry x="625" y="122.5" width="120" height="20" as="geometry" />
        </mxCell>
        <mxCell id="HCuMxB1ecjVolzXwdw-D-17" value="" style="image;aspect=fixed;html=1;points=[];align=center;fontSize=12;image=img/lib/azure2/general/Folder_Blank.svg;" vertex="1" parent="1">
          <mxGeometry x="70" y="220" width="49.29" height="40" as="geometry" />
        </mxCell>
        <mxCell id="HCuMxB1ecjVolzXwdw-D-20" value="" style="image;aspect=fixed;html=1;points=[];align=center;fontSize=12;image=img/lib/azure2/general/File.svg;" vertex="1" parent="1">
          <mxGeometry x="110" y="240" width="24.35" height="30" as="geometry" />
        </mxCell>
        <mxCell id="HCuMxB1ecjVolzXwdw-D-21" value="" style="image;aspect=fixed;html=1;points=[];align=center;fontSize=12;image=img/lib/azure2/general/Folder_Blank.svg;" vertex="1" parent="1">
          <mxGeometry x="69.99" y="300" width="49.29" height="40" as="geometry" />
        </mxCell>
        <mxCell id="HCuMxB1ecjVolzXwdw-D-22" value="" style="image;aspect=fixed;html=1;points=[];align=center;fontSize=12;image=img/lib/azure2/general/File.svg;" vertex="1" parent="1">
          <mxGeometry x="110" y="330" width="24.35" height="30" as="geometry" />
        </mxCell>
        <mxCell id="HCuMxB1ecjVolzXwdw-D-23" value="&lt;b&gt;CRM&lt;/b&gt;" style="text;html=1;align=center;verticalAlign=middle;whiteSpace=wrap;rounded=0;" vertex="1" parent="1">
          <mxGeometry x="64.64999999999998" y="260" width="60" height="30" as="geometry" />
        </mxCell>
        <mxCell id="HCuMxB1ecjVolzXwdw-D-24" value="&lt;b&gt;ERP&lt;/b&gt;" style="text;html=1;align=center;verticalAlign=middle;whiteSpace=wrap;rounded=0;" vertex="1" parent="1">
          <mxGeometry x="64.65000000000002" y="340" width="60" height="30" as="geometry" />
        </mxCell>
        <mxCell id="HCuMxB1ecjVolzXwdw-D-28" value="" style="endArrow=none;html=1;rounded=0;entryX=1.006;entryY=0.875;entryDx=0;entryDy=0;entryPerimeter=0;" edge="1" parent="1">
          <mxGeometry width="50" height="50" relative="1" as="geometry">
            <mxPoint x="40" y="380" as="sourcePoint" />
            <mxPoint x="160.72000000000003" y="380" as="targetPoint" />
          </mxGeometry>
        </mxCell>
        <mxCell id="HCuMxB1ecjVolzXwdw-D-29" value="&lt;font face=&quot;Times New Roman&quot; style=&quot;font-size: 8px;&quot;&gt;&lt;b style=&quot;&quot;&gt;Object Type: CSV&lt;br&gt;&lt;br&gt;Interface: Files in Folder&lt;/b&gt;&lt;/font&gt;" style="text;html=1;align=center;verticalAlign=middle;whiteSpace=wrap;rounded=0;" vertex="1" parent="1">
          <mxGeometry x="50" y="385" width="100" height="40" as="geometry" />
        </mxCell>
        <mxCell id="HCuMxB1ecjVolzXwdw-D-30" value="" style="html=1;verticalLabelPosition=bottom;align=center;labelBackgroundColor=#ffffff;verticalAlign=top;strokeWidth=2;strokeColor=#d79b00;shadow=0;dashed=0;shape=mxgraph.ios7.icons.data;fillColor=#ffe6cc;" vertex="1" parent="1">
          <mxGeometry x="275" y="238.41" width="40" height="50" as="geometry" />
        </mxCell>
        <mxCell id="HCuMxB1ecjVolzXwdw-D-31" value="" style="html=1;verticalLabelPosition=bottom;align=center;labelBackgroundColor=#ffffff;verticalAlign=top;strokeWidth=2;strokeColor=#666666;shadow=0;dashed=0;shape=mxgraph.ios7.icons.data;fillColor=#f5f5f5;fontColor=#333333;" vertex="1" parent="1">
          <mxGeometry x="465" y="240" width="40" height="46.82" as="geometry" />
        </mxCell>
        <mxCell id="HCuMxB1ecjVolzXwdw-D-32" value="" style="html=1;verticalLabelPosition=bottom;align=center;labelBackgroundColor=#ffffff;verticalAlign=top;strokeWidth=2;strokeColor=#d6b656;shadow=0;dashed=0;shape=mxgraph.ios7.icons.data;fillColor=#fff2cc;" vertex="1" parent="1">
          <mxGeometry x="664.5" y="240" width="41" height="46.82" as="geometry" />
        </mxCell>
        <mxCell id="HCuMxB1ecjVolzXwdw-D-33" value="" style="shape=flexArrow;endArrow=classic;html=1;rounded=0;fillColor=#dae8fc;strokeColor=#6c8ebf;" edge="1" parent="1">
          <mxGeometry width="50" height="50" relative="1" as="geometry">
            <mxPoint x="160" y="319" as="sourcePoint" />
            <mxPoint x="200" y="319.5" as="targetPoint" />
          </mxGeometry>
        </mxCell>
        <mxCell id="HCuMxB1ecjVolzXwdw-D-34" value="" style="shape=flexArrow;endArrow=classic;html=1;rounded=0;width=11;endSize=4.67;fillColor=#dae8fc;strokeColor=#6c8ebf;" edge="1" parent="1">
          <mxGeometry width="50" height="50" relative="1" as="geometry">
            <mxPoint x="370" y="320" as="sourcePoint" />
            <mxPoint x="415" y="320" as="targetPoint" />
          </mxGeometry>
        </mxCell>
        <mxCell id="HCuMxB1ecjVolzXwdw-D-35" value="" style="shape=flexArrow;endArrow=classic;html=1;rounded=0;width=12;endSize=6.53;entryX=0.013;entryY=0.329;entryDx=0;entryDy=0;entryPerimeter=0;fillColor=#dae8fc;strokeColor=#6c8ebf;" edge="1" parent="1">
          <mxGeometry width="50" height="50" relative="1" as="geometry">
            <mxPoint x="565" y="320" as="sourcePoint" />
            <mxPoint x="611.95" y="320.32500000000005" as="targetPoint" />
          </mxGeometry>
        </mxCell>
        <mxCell id="HCuMxB1ecjVolzXwdw-D-36" value="" style="shape=flexArrow;endArrow=classic;html=1;rounded=0;fillColor=#dae8fc;strokeColor=#6c8ebf;" edge="1" parent="1">
          <mxGeometry width="50" height="50" relative="1" as="geometry">
            <mxPoint x="780" y="319.5" as="sourcePoint" />
            <mxPoint x="820" y="319.5" as="targetPoint" />
          </mxGeometry>
        </mxCell>
        <mxCell id="HCuMxB1ecjVolzXwdw-D-37" value="&lt;b&gt;Raw Data&lt;/b&gt;" style="text;html=1;align=center;verticalAlign=middle;whiteSpace=wrap;rounded=0;" vertex="1" parent="1">
          <mxGeometry x="265" y="288.41" width="60" height="30" as="geometry" />
        </mxCell>
        <mxCell id="HCuMxB1ecjVolzXwdw-D-38" value="&lt;b&gt;Clean,Standardized Data&lt;/b&gt;" style="text;html=1;align=center;verticalAlign=middle;whiteSpace=wrap;rounded=0;" vertex="1" parent="1">
          <mxGeometry x="450" y="290" width="80" height="30" as="geometry" />
        </mxCell>
        <mxCell id="HCuMxB1ecjVolzXwdw-D-39" value="&lt;b&gt;Business Ready Data&lt;/b&gt;" style="text;html=1;align=center;verticalAlign=middle;whiteSpace=wrap;rounded=0;" vertex="1" parent="1">
          <mxGeometry x="650" y="286.82" width="70" height="30" as="geometry" />
        </mxCell>
        <mxCell id="HCuMxB1ecjVolzXwdw-D-41" value="" style="endArrow=none;html=1;rounded=0;fillColor=#ffe6cc;strokeColor=#d79b00;" edge="1" parent="1">
          <mxGeometry width="50" height="50" relative="1" as="geometry">
            <mxPoint x="220" y="319.5" as="sourcePoint" />
            <mxPoint x="370" y="319.5" as="targetPoint" />
          </mxGeometry>
        </mxCell>
        <mxCell id="HCuMxB1ecjVolzXwdw-D-42" value="" style="endArrow=none;html=1;rounded=0;fillColor=#f5f5f5;strokeColor=#666666;" edge="1" parent="1">
          <mxGeometry width="50" height="50" relative="1" as="geometry">
            <mxPoint x="415" y="320" as="sourcePoint" />
            <mxPoint x="565.5" y="320" as="targetPoint" />
          </mxGeometry>
        </mxCell>
        <mxCell id="HCuMxB1ecjVolzXwdw-D-43" value="" style="endArrow=none;html=1;rounded=0;entryX=1;entryY=0.435;entryDx=0;entryDy=0;entryPerimeter=0;fillColor=#fff2cc;strokeColor=#d6b656;" edge="1" parent="1" target="HCuMxB1ecjVolzXwdw-D-13">
          <mxGeometry width="50" height="50" relative="1" as="geometry">
            <mxPoint x="610" y="320" as="sourcePoint" />
            <mxPoint x="755.72" y="320" as="targetPoint" />
          </mxGeometry>
        </mxCell>
        <mxCell id="HCuMxB1ecjVolzXwdw-D-44" value="&lt;font face=&quot;Times New Roman&quot; style=&quot;font-size: 10px;&quot;&gt;&lt;b style=&quot;&quot;&gt;Object Type: Table&lt;/b&gt;&lt;/font&gt;&lt;div&gt;&lt;b style=&quot;background-color: transparent; color: light-dark(rgb(0, 0, 0), rgb(255, 255, 255));&quot;&gt;&lt;font face=&quot;Times New Roman&quot; style=&quot;font-size: 10px;&quot;&gt;Load:&lt;/font&gt;&lt;/b&gt;&lt;/div&gt;&lt;div&gt;&lt;ul&gt;&lt;li&gt;&lt;b style=&quot;background-color: transparent; color: light-dark(rgb(0, 0, 0), rgb(255, 255, 255));&quot;&gt;&lt;font face=&quot;Times New Roman&quot; style=&quot;font-size: 10px;&quot;&gt;Batch Processing&lt;/font&gt;&lt;/b&gt;&lt;/li&gt;&lt;li&gt;&lt;b style=&quot;background-color: transparent; color: light-dark(rgb(0, 0, 0), rgb(255, 255, 255));&quot;&gt;&lt;font face=&quot;Times New Roman&quot; style=&quot;font-size: 10px;&quot;&gt;Full Load(Trunc and Insert)&lt;/font&gt;&lt;/b&gt;&lt;/li&gt;&lt;/ul&gt;&lt;div&gt;&lt;b&gt;&lt;font face=&quot;Times New Roman&quot; style=&quot;font-size: 10px;&quot;&gt;No Transformations&lt;/font&gt;&lt;/b&gt;&lt;/div&gt;&lt;div&gt;&lt;b&gt;&lt;font face=&quot;Times New Roman&quot; style=&quot;font-size: 10px;&quot;&gt;Data Model: None(As-Is)&lt;/font&gt;&lt;/b&gt;&lt;/div&gt;&lt;div&gt;&lt;span style=&quot;font-size: 8px;&quot;&gt;&lt;b&gt;&lt;br&gt;&lt;/b&gt;&lt;/span&gt;&lt;/div&gt;&lt;/div&gt;" style="text;html=1;align=left;verticalAlign=middle;whiteSpace=wrap;rounded=0;" vertex="1" parent="1">
          <mxGeometry x="235" y="353.75" width="120" height="102.5" as="geometry" />
        </mxCell>
        <mxCell id="HCuMxB1ecjVolzXwdw-D-46" value="&lt;font face=&quot;Times New Roman&quot; style=&quot;font-size: 10px;&quot;&gt;&lt;b style=&quot;&quot;&gt;Object Type: Views&lt;/b&gt;&lt;/font&gt;&lt;div&gt;&lt;font face=&quot;Times New Roman&quot; style=&quot;font-size: 10px;&quot;&gt;&lt;b&gt;No Load&lt;/b&gt;&lt;/font&gt;&lt;/div&gt;&lt;div&gt;&lt;font face=&quot;Times New Roman&quot; style=&quot;font-size: 10px;&quot;&gt;&lt;b&gt;Transformation:&lt;/b&gt;&lt;/font&gt;&lt;/div&gt;&lt;div&gt;&lt;ul&gt;&lt;li&gt;&lt;font face=&quot;Times New Roman&quot; style=&quot;font-size: 10px;&quot;&gt;&lt;b&gt;Data Integration&lt;/b&gt;&lt;/font&gt;&lt;/li&gt;&lt;li&gt;&lt;font face=&quot;Times New Roman&quot; style=&quot;font-size: 10px;&quot;&gt;&lt;b&gt;Aggregations&lt;/b&gt;&lt;/font&gt;&lt;/li&gt;&lt;li&gt;&lt;b&gt;&lt;font face=&quot;Times New Roman&quot; style=&quot;font-size: 10px;&quot;&gt;&lt;font style=&quot;&quot;&gt;Business&amp;nbsp; logics&lt;/font&gt;&lt;span style=&quot;white-space: pre;&quot;&gt;&#x9;&lt;/span&gt;&lt;/font&gt;&lt;/b&gt;&lt;/li&gt;&lt;/ul&gt;&lt;/div&gt;&lt;div&gt;&lt;font face=&quot;Times New Roman&quot; style=&quot;font-size: 10px;&quot;&gt;&lt;b style=&quot;&quot;&gt;&lt;br&gt;Data Model:&lt;/b&gt;&lt;/font&gt;&lt;/div&gt;&lt;div&gt;&lt;ul&gt;&lt;li&gt;&lt;font face=&quot;Times New Roman&quot; style=&quot;font-size: 10px;&quot;&gt;&lt;b style=&quot;&quot;&gt;Star Schema&lt;/b&gt;&lt;/font&gt;&lt;/li&gt;&lt;li&gt;&lt;font face=&quot;Times New Roman&quot; style=&quot;font-size: 10px;&quot;&gt;&lt;b style=&quot;&quot;&gt;Flat Table&lt;/b&gt;&lt;/font&gt;&lt;/li&gt;&lt;li&gt;&lt;font face=&quot;Times New Roman&quot; style=&quot;font-size: 10px;&quot;&gt;&lt;b style=&quot;&quot;&gt;Aggregated Table&lt;/b&gt;&lt;/font&gt;&lt;/li&gt;&lt;/ul&gt;&lt;/div&gt;" style="text;html=1;align=left;verticalAlign=middle;whiteSpace=wrap;rounded=0;" vertex="1" parent="1">
          <mxGeometry x="630" y="357.19" width="150" height="160.62" as="geometry" />
        </mxCell>
        <mxCell id="HCuMxB1ecjVolzXwdw-D-47" value="&lt;font face=&quot;Times New Roman&quot; style=&quot;font-size: 10px;&quot;&gt;&lt;b style=&quot;&quot;&gt;Object Type: Table&lt;/b&gt;&lt;/font&gt;&lt;div&gt;&lt;b style=&quot;background-color: transparent; color: light-dark(rgb(0, 0, 0), rgb(255, 255, 255));&quot;&gt;&lt;font face=&quot;Times New Roman&quot; style=&quot;font-size: 10px;&quot;&gt;Load:&lt;/font&gt;&lt;/b&gt;&lt;/div&gt;&lt;div&gt;&lt;ul&gt;&lt;li&gt;&lt;b style=&quot;background-color: transparent; color: light-dark(rgb(0, 0, 0), rgb(255, 255, 255));&quot;&gt;&lt;font face=&quot;Times New Roman&quot; style=&quot;font-size: 10px;&quot;&gt;Batch Processing&lt;/font&gt;&lt;/b&gt;&lt;/li&gt;&lt;li&gt;&lt;b style=&quot;background-color: transparent; color: light-dark(rgb(0, 0, 0), rgb(255, 255, 255));&quot;&gt;&lt;font face=&quot;Times New Roman&quot; style=&quot;font-size: 10px;&quot;&gt;Full Load(Trunc and Insert)&lt;/font&gt;&lt;/b&gt;&lt;/li&gt;&lt;/ul&gt;&lt;div&gt;&lt;b&gt;&lt;font face=&quot;Times New Roman&quot; style=&quot;font-size: 10px;&quot;&gt;Transformations:&lt;/font&gt;&lt;/b&gt;&lt;/div&gt;&lt;div&gt;&lt;font style=&quot;font-size: 10px;&quot;&gt;&lt;span style=&quot;white-space: pre;&quot;&gt;&#x9;&lt;/span&gt;&amp;nbsp; &amp;nbsp;&lt;font face=&quot;Times New Roman&quot; style=&quot;&quot;&gt;&lt;b&gt;1) Data Cleansing&lt;br&gt;&lt;/b&gt;&lt;/font&gt;&lt;/font&gt;&lt;/div&gt;&lt;div&gt;&lt;font face=&quot;Times New Roman&quot; style=&quot;font-size: 10px;&quot;&gt;&lt;b&gt;&lt;font style=&quot;&quot;&gt;&lt;span style=&quot;white-space: pre;&quot;&gt;&#x9;&lt;/span&gt;&amp;nbsp; &amp;nbsp; 2) Data Standardization&lt;/font&gt;&lt;br&gt;&lt;/b&gt;&lt;/font&gt;&lt;/div&gt;&lt;div&gt;&lt;font style=&quot;&quot;&gt;&lt;font face=&quot;Times New Roman&quot; style=&quot;font-size: 10px;&quot;&gt;&lt;b&gt;&lt;span style=&quot;white-space: pre;&quot;&gt;&#x9;&lt;/span&gt;&amp;nbsp; &amp;nbsp; 3) Data Normalization&lt;br&gt;&lt;/b&gt;&lt;/font&gt;&lt;/font&gt;&lt;/div&gt;&lt;div&gt;&lt;font style=&quot;&quot;&gt;&lt;font face=&quot;Times New Roman&quot; style=&quot;font-size: 10px;&quot;&gt;&lt;b&gt;&lt;span style=&quot;white-space: pre;&quot;&gt;&#x9;&lt;/span&gt;&amp;nbsp; &amp;nbsp; 4) Derived Columns&lt;br&gt;&lt;/b&gt;&lt;/font&gt;&lt;/font&gt;&lt;/div&gt;&lt;div&gt;&lt;font style=&quot;&quot;&gt;&lt;font style=&quot;font-size: 10px;&quot;&gt;&lt;b&gt;&lt;font face=&quot;Times New Roman&quot;&gt;&lt;span style=&quot;white-space: pre;&quot;&gt;&#x9;&lt;/span&gt;&amp;nbsp; &amp;nbsp; 5) Data Enrichment&lt;/font&gt;&lt;/b&gt;&lt;br&gt;&lt;/font&gt;&lt;/font&gt;&lt;/div&gt;&lt;div&gt;&lt;font style=&quot;&quot;&gt;&lt;font style=&quot;font-size: 10px;&quot;&gt;&lt;b&gt;&lt;font face=&quot;Times New Roman&quot;&gt;&lt;br&gt;&lt;/font&gt;&lt;/b&gt;&lt;/font&gt;&lt;/font&gt;&lt;/div&gt;&lt;div&gt;&lt;b&gt;&lt;font face=&quot;Times New Roman&quot; style=&quot;font-size: 10px;&quot;&gt;Data Model: None(As-Is)&lt;/font&gt;&lt;/b&gt;&lt;/div&gt;&lt;div&gt;&lt;span style=&quot;font-size: 8px;&quot;&gt;&lt;b&gt;&lt;br&gt;&lt;/b&gt;&lt;/span&gt;&lt;/div&gt;&lt;/div&gt;" style="text;html=1;align=left;verticalAlign=middle;whiteSpace=wrap;rounded=0;" vertex="1" parent="1">
          <mxGeometry x="425" y="390" width="145" height="115" as="geometry" />
        </mxCell>
        <mxCell id="HCuMxB1ecjVolzXwdw-D-49" value="" style="image;aspect=fixed;html=1;points=[];align=center;fontSize=12;image=img/lib/azure2/analytics/Power_BI_Embedded.svg;" vertex="1" parent="1">
          <mxGeometry x="829" y="192" width="51" height="68" as="geometry" />
        </mxCell>
        <mxCell id="HCuMxB1ecjVolzXwdw-D-50" value="" style="shape=image;imageAspect=0;aspect=fixed;verticalLabelPosition=bottom;verticalAlign=top;image=data:image/png,iVBORw0KGgoAAAANSUhEUgAAAgAAAAIACAYAAAD0eNT6AAAACXBIWXMAAA7DAAAOwwHHb6hkAAAAGXRFWHRTb2Z0d2FyZQB3d3cuaW5rc2NhcGUub3Jnm+48GgAAIABJREFUeJzs3XecHVX5+PHPvds3m02y6Y2EJEAKIQmELj30plSlwxdBQAURBEUBRRG/ioB8aQpK/yEdAqh0kBZqgIQUSGJ6NtndbO/33t8fT9aQ7N1bzpk5c+/e5/16nddLyc7MMzN3Zs6cOec5oJRSSimllFJKKaWUUkoppZRSSimllFJKKaWUUkoppZRSSimllFJKKaWUUkoppZRSSimllFJKKaWUUkoppZRSSimllFJKKaWUUkoppZRSSimllFJKKaWUUkoppZRSSimllFJKKaWUUkoppZRSSimllFJKKaWUUkoppZRSSimllFJKKaWUUkoppZRSSimllFJKKaWUUkoppZRSSimllFJKKaWUUkoppZRSSimllFJKKaWUUkoppZRSSimllFJKKaWUUkoppZRSSimllFJKKaWUUkoppZRSSimllFJKKaWUUkoppZRSSimllFJKKaWUUkoppZRSSimllFJKKaWUUkoppZRSSimllFJKKaWUUkoppZRSSimllFLZLRR0AEp5LB/YFhgFlAF9gEKgBagDKoFlQH1QASrlSBkwDhgK9AeKgU6gEWgCVgNLgY6gAlTB0gqAynZjgQOBA4CZwHigIIXlKoEPgPeAV4D3gag/ISrluxCwC3AwsAewKzA8heU6kArxR8BrwKvAEp9iVEopa0OBHwGfADGPyhrgNmCGw/1QytaOwC3ASry7Fj4HLgdGONwPpZRKaCJwL9COdze7eOU94FtoC5nKXEcBb+HvddAJPIxUMpRSKhAjgYeACP7e8LYuHwOzHOyfUqnaF6mgurwOosDjwBgH+6eUUoB06LsU6bDn8oa3dXkI+eygVFAGAX9DHsZBXQdNwE9JrY+NUkoZGwq8RLAP/q+XDcARvu6xUvHtB6wi+Gugq3yAjC5QSinPzQLWE/yNbusSBX6F9g1Q7lyJfIsP+re/dakBjvRxv5VSOegU/O/kZ1seQ8ZUK+WXfOAOgv+tJyqdwHl+HQClVG65CPcd/UzLC0iCIaW8lg88SfC/8VRKFLjCn8OglMoVZxBsByeT8jTaIUp5Kw94hOB/2+mWC/w4GEqp3u9IMr/Zv6dyuw/HQ+WuPxD8b9qkdALH+3A8lFK92HigluBvYDble54fFZWLziT437JNaQQmeX5UlFK9UhHwIcHfuGxLK7CTx8dG5ZbxQAPB/5Ztyzyg1ONjo3yiw5lUkK5HEot4KpQfomRsCaUTSsnrk0coP0RrbSttq9toW9ZGtMmXOX8+BXYH2vxYuerV8oG3gd28XnFhUQlDho2lYuAIiopK6OjooKmpkZqqlWysWUM00un1JkHmJrjEjxUrb2kFQAVlEjAXj3rS55XlMeTYIQz95lD679WfvD55W/x7JBKhZkMN0Y4orQtaaXijgY3PbqR9ZbsXm+/yU+AGL1eocsIPkYemJwZUDGfXvY5myk77MnrsZMLhLa+F1pY26hqa6GhvZdXyeSyc9wYLP3+d1tZGr0KIIDNzzvVqhcofWgFQQXkFmcbXSn7ffMZcPIZR540ivzw/4d92tHdQW11LLBaT/xCFupfrqLy1krYlnry4NwA7AGu9WJnKCYOAxcAA2xUNHjqGw4+9gOkzDyUcDif828bGZpqaW//7/9vbmvl4zrO8+/pDXlUE3gX2Rj4LqAyVl/xPlPLcAcC1tisZdNggpj85nUGHDCJclPiGB5CXl0coFKK9bdNbfwiKxxdTcVIF4aIwTR82yUBEc0VACZIjQKlU/ArLinA4HOaQo87jjPNuYOToiYRCyd/rCgvz6eiMEInIDz4vv4BRY3Zkp10Op27jOqrWL7cJCWA0kjL4S9sVKf9oC4AKwsvAQcZLh2DCNRMYc/GYtH/BMWLUVtXS0d7R7d+aP2lm+Q+W01lj9V20FRgLVNqsROWECuA/QF/TFZSWlnP2hX9ku4m7pr1sNBKlqqZuc4vY13zwzhO88sLtxKJWNeJ3gb1sVqD8pS0AyrVdsPhOHgqHmHzbZEZ9d5RR9TVEiILCAlqaW7r9W8HwAsoPKqf+5XqbjoL5SCXgNdMVqJxxCRYTTJX1HcD3L7+HMeOmGi0fCocgBO3t3Su8I0dPZuDgMSz64t8Qp4KQotHAq8AK0xUof2kFQLn2Myx6O29//faMPGekVQDhcJhoNEpnR/cbX37/fMr2LqPu+Tpi7cY3vm2RTl36/VP1JATcAww0WbiwqIQLf/xnRm4z0SqIgoICWtvaiUW7/1QHDx1LWd+BfLXwXZtNxIBnbVag/JP8w6lS3ikEvm268LAThzH6gtGeBFLap5RQD00IxdsVM/I6q0rGaGw+cahcsBewnenCJ572c0aPmWwdRAgoLSnq8d+n73oU03a1mvTvBKRfjMpAWgFQLh2A9HpOW+HQQna4cQfPAsnLz6OguOc0/v0O6Uf/o/rbbOKbNgurXu9Y0wWnzjiQXfc8yrNASoqL5HNADw4+8vuU9xtiuvpy4FDThZW/tAKgXDJ+Kx7/i/FJh/mlq6Q08YvJ8MuHEy42vkT0pqcSMfp95OUX8K2TL/c0kFAoRHFRz60ABYXFHHD4+Tab0NawDOXtHVWpxA4wWah4dDHDTx7udSwUFRURCoXi9oIGyB+cT8WJFVQ9UGWy+vHA35BJjpT6ujBg1HNv5h5HUjFohMfhQHFxAS0trT3++6Sp+/PWy/dSXbXSZPXW+T6UP7QCoFwpBmaYLDjijBGECnwYsRqCgsKCzXkB4qg42bgCAHCW6YJKxbP3/if5st6C/AIIhXrs8R8KhZm+29G88oLR5JeTgP7IpF8qg+gnAOXKBAxHnQw7fpjHoWxWUNhzPwCAonFFFE8s9m37SqVq0JBt2GbsFF/WHQpBQX7i98HJOx0of2iwemB7kwWVv7QCoFwx6sFXPKqYknH+dSIuLEw+FUHZnmW+bV+pVO0weXdf119QmLh+XlY+kEGDtzFdvVYAMpBWAJQrY0wWKt+l3Os4thDOT34JlO6os5uq4Hkx7C+R/HDyBrrho4zzDow1XVD5RysAyhWjJ3npBH8fvnkp3PQKx3oyYaFSVgYPNapDpywvyQRCABWDjPNw+FuTV0a0AqBcMcp3XjAg8Td6ayl80szvr31lVfD6lFnlpUguhWuhpMR42gLjBZV/tAKgXOl5oHEC4UL/f6KJkqAAhIp0ziwVvPx8fyvDqcwimF9gdBmDZgPMSFoBUK40mywUaYl4HUd3STL2R5vt5ghWygvt7T2P0/dCKnP+tLd3n0QrRQ2mCyr/aAVAuWJ0A2iv9D+PTk+JgLp0brCaHlgpT9TXVfu6/mgKNYCmhhrT1WsFIANpBUC5YpQEpOnLJq/j2EKkM3kLQ9uyNl9jUCoVlWuX+rr+aCT5tVC1Ybnp6utMF1T+0QqAcmWJyUJ179cRi/g3q25nZ/K3+6aP/a2EKJWK/yz51Nf1d6ZQAVi9Yr7p6r8yXVD5RysAypWFJgt11nVS/1G917H8V0dbR+I/iELjO42+bV+pVC1eMIdIxL/PUR0dide9fu0SGuuNP0MYXf/KX1oBUK4sx7Aj4LpH13kcymYd7YkrAE0fNNGxLkklQSkHmhprWTjvbV/WHY3Fkn4Omzf3JdPVd6ItABlJBzgrVyLAO8CsdBdc+8haxl01zvOcALFYjI7OxA/3qvuNJwKKAT8AtPagthYCbgXS/kG/8fJDTJm2n+cBtbd3JBwM097WzGcfvmC6+g8A7UiTgbQCoFx6FYMKQKQxwoo/rWD8NeM9Daa1uTXhEMCWeS3Uv278+eEz4DbThVWvdwqwb7oLLV4wh68WfciEHWZ6Gkxra+LRNu+//TgtLcYd+Y2bDpS/9BOAcsn4RrDi9hU0Lfa2M15LU89jmmORGKt/tTppjoAESgFv79KqN/mn6YJPPPxbIklartIRiUYSToldW7OWd9942GYTWgHIUFoBUC59iGFnoGhblHlnzSPa6k1Sno72joQjANbfup6WecZJTwC2A94H7gf8m89YZatHMaxerl39FbOfuMWzQFqa23oMJBrpZPajv6Gzw7gFfxXwrunCyl9G87MrZaE/cKDJgu0b2mlZ2sLgowenlLY0kYbaBiI9DHuqfb6Wtf+71ubtv0sImAacD0SRCpCD1IYqC2wEDgGMZtdZvuxz+g8Yyqgxk6yCiEZj1Nc3xf+px2K88OQf+HKh1fP7T8ArNitQ/tEKgHJtGdI5zui317SgidZVrQw6dFDSHP49aW1ppbkx/oCEuhfrWHXlKq8f00VI34dvAyuARZ6uXWWrVuB404W/+PxNKgaOZOToHYwDaGhooiNO7/9YLMpLs29l7gfPGa8bqfSeg1R2VAbSCoByrR6ZG3yG6QoaP2+k/pN6Bs4aSF5Jej/hWCxGXXVd9/S/Mdhw9wb57u/fO3oFUgn4BvAxsMG3LalssBA4G8OpcmOxGPPmvkYsFmX89ruk3SrW0dFJY5yKcFtrE8/8/dfM++RFk7C+7lHgL7YrUf7RCoAKwgLgQiz6oLQsbWHdY+so2baEPtv1SXm5hrqGbmP/25a3sfLHK6l5rMaLZv9UjAPOA4YAcwCrzgYqa0WR3BhH2axkyeKP+GrRh4wdN5WyvgNSWiYWi1Fb29gt//+SxXN4/P6rWL3yC5uQQKrRJwPG42iV/3SeUxWUO4DvebGiAfsMYOxlY6nYtyLhL7q5sZnG+s1Z/dpXtlN1bxU1T9QQa3fz5I+jBrgGuBNJmKJySz4wDzBvx98kLy+fXfc6hoMOO4vBQ8f0+HcxoLaugfavZcFcsexT3n39IZZ++YFtGF3uA87yamXKH1oBUEEZgDSBDvFqhSVjShh8zGAq9qmgbKcyioZtnru8vbWdmpU1tC5ppenDJhpeb6DpoyZXb/ypmA9cArwcdCDKuVl4OFQuFAoxdtw0pkzfj/Hb78zwERMoLin777/XNzRTtWEtlWu/YvnST1g879/UVK/yavMA1cBkYL2XK1VK9S6nIY9gX0peaV6saFhRrHh0cSyvb55v2/G4PA1MsD2wKuvch4+/q+KSstiAgcNj5f0GxwoLS/z+DZ/pw/FRSvVC9xP8QzfTSivwO6CvxXFV2aUcyZcf9G/PtjyJtiwrpVLUB/iC4G9cmVjWIr3ENWFXbtgF6RQY9O/OtCxAK61KqTSNRx52Qd/AMrV8AOxtfHRVNjke6UEf9G8u3VIDTPTheCilcsAMoI7gb2TplL8i0xy72FYUeBjDzHEqq3wfOd9B/75TLXXAbr4cCaVUztgT6UEc9A0tlXL9pphLgKuBJkfbbdq0vRKTA6yyxk8I/jeeSukE9vHpGCilcswk3L1V25StM5yNRDo0unpzWwWcgXa46q3+QPC/8VTLt3w6BkqpHDQCeJ3gb2yJSoT46Yz3Rr7Zu4rjTWDnlI+sygbbA20E/xtPtSxB5rtQSilP5AHXIU2MQd/gEj18472Bh5FJUFx1bIwgLRKeJVVSgZpN8L/tdMuVvhwJpVROm47MJx70Da6ncnKC2PsA1yK5/l3E0rhpe/o2lr1mEfxv2qQ0IC13SinlqTBwLjKVcNA3uq3LcpJ3yJuAZPhzFdMiLCeYUYEoILtzYtzr+RFRSqlNCpA0o58R/M3u6+XqFOM/GJn4xVVc/0Q6VarscDHB/5ZtSgTY1fOjopRSW5kO/BFvWgXqkPS7pss3kfr4/HxknLer4Y7twM3I5Esqcw1CkumYnucOYKPF8l1lveXy76AjU5RKST/ku9kAoDDgWLLZtsD/IFMMvwqspucbVA0wF3gIuAzJPZCPjOu3ufE9lGbMFcD/ITduFxWBDcAFSOdKlXlux+783oKc292AHyGTC32EnPd4fx9BrpO3Nm37XGT0QRj7USynenxslMpa+cBeSC/ZB4D36bmm34ZMCPI8cCPwbWCo+5B7jX7I+PxxwGCgNMHflgFrML/pRTFL17sjMhWsi0pADPgUONAgTuWfnbAb7VJF4haeEqTCOQ4Ys+lvCxL8/d7Y5bNYiXSAVSonFQMnIh2/GrC7YUeBz5He3eMd7kMuOhO7c/UB5hP3HIvb2eCeQB4IKnivYncuL/QhpoctY7rOh5iUymijkO+tNt/yklUG3gSOQb+z+SEMzMHuHJ1tsf0i4Aqg3jKGVEsL8umjzCJmZec47M7hZ0gro9dGY5feuhkY60NcSmWcEcCfcZu961M0Bacf9sSu+XMt9lOiDkMmGnI1K9xqNK1wEIqBpdidu4N8jO9qy9ge9TE2pQKXjwzdCXIWu1fQaTi99gB25+QGj+LYGfi3ZSzplA/RaYddugq78/WEz/GVYD/KZj+fY1QqEONxm/M9UWkBLvJ3d3PKSCSrnun5aEWS/3ghBJyCdKxy8VuKIhWgkR7Fr+IbgV3/oFbc9OE42SLGGPAJOvJE9TInALUE/+DfujyG9HxX9n6O3bl42uN4SoFfId9WXfyWGpE31GKP90OJ+7A7P791FGcI6XdkE+t5jmJVyncX427KV5MyH+mMqOx48X32UB/iGoXbaYdXov0DvLYHdudvHVDuMN7p2A1TXA/0dxivUp4LATcR/AM+lbIMSeqh7JyA3XmYhz89tAH2BT62jC+d8howzad9ySUh4D3szsWZzqOW2SZtYr7RfchKeecPBP9gT6esRofheOE17M7D932MLYy8na+zjDHVEkFaHzQ5lbkzsDsHH2Kea8LGEOw+e7YDOziPWikPXEnwD3ST8iU6R7ytadg1f9Yged79VIYkirKZzyCdshHJV6DTDqenjMRpqpOVKPAN51FvdlkPcaVannMfslJ2jiWzv/knK6+hvXBt3YXdObjVUZzbIzdZV7+tBcDhTvasd/gNdsf7Qfchb6EQmWraZh/096Kyxmgkz3bQD3Hb8iuvD0yOqcBu9r5OYKrDeA9C0ke7+n29BExxsmfZa1tkuK7pMW4CtnEedXdHYfdbWUDieQiUyghh4G18vHEW9OkfK64YEcsvHRAL5Rf5eYOOoAk5bP0I+4ekSwXIiBW/0lJvXdqRjl7a2zu+x7E7vr9wH3KP/ondvlziPmQVjw7t6dn5wJ1erSwUCjNopwMYMvNwKibtTd9RE8kv2ZQxNgZrKjupXbOc1pWf0LT4NRo+fYrOhvVebR6k5j0duVGr9BUgb9U2HZm+CTzjTTgpG4RMzPJd3HwK2oDkULgHqXgqOACZ8MfUcmAS0oKQCSYhqchN3+Rrkc9VGzyLSBnRCkB8g4GFSNOvlfziMsYcfj7jjv4BJQN7Hp4fjcKqyijtmx7PsWgnDZ89S9WLN9C6aq5tGF1+indpanPREchUzaa+Qqb/bfMmnLTshExUdYCj7c1F3vTecLS9TJWHDNfcyWIdJyFJvjLJzUgLk6m7gO95FIsypBWA+P6INPlaGb7XcUw99yaKB6aWVbWzI8bKdTEi0a/9x1iM2vfupfKZK4k0b7QNqR4ZGmi9ohz2PFIRMHUF8L8exWLieOD3yDdpFx4DfgL8x9H2Ms33gDssln+TzPx8NwBYjPkIlwiwC9KSoAKivcO7G4TkQi80XUG4oIidLriNyWf+lvzS1BN2hfNC5OVB09cb+kIhikfPoN/OJ9Oy9B0669aYhgUybKsFfSuz8RHyecj02tkD+BuSajcIC5C3rxZgdyx+5ymaghyvYuB9oMPn7WWSAcBTSBpnExFkuuB1nkXknVbkN3yk4fJhZBKz+zyLSKVNKwDdXQnMMl04r7gPu//8aUbsfYLR8kWFIVraYnR2brXekn70m/ltWld9SvuGr0zDA2mKvB3tC2CqGrmx72m4fBEwEPd9Ab6uE5ll8D4kT8RO+NsaWIBkLjwTqEQyJOaCG4ADLZa/B8nAl6k+QaYkN00MNRZJXf6FVwGp9OgngC2FkQ43Rrn0w3kF7Pbzpxmys10K+PZ2WLEuKv1ltxKLtLPizmNpWvSKzSbORDK6KTPlyHjoYYbLR5EKxPueRWRnF+AW3E0F/CHy/fgdR9sLgm1HuXqkw2kmvv1/nW0Hx5VIS0CzN+GodASRUjKTHYzFRDpTzr3R+uEPUFgIfUri181CeYWMOvthCirG2GzidJuFFfVI5j1TYaQTVaZUwD8C9kE6m61wsL2ZwFvAo2TG2HY//BG78e7XkvkPf5BEY09aLD8aD/pbKTNaAdjSKaYLDp15BNsecaFngfTv2/OzIa90ACNPuwdCxs+PA4HhpgsrAO5Gerqb2hP4jkexeCGGdNibAlyPfOP1Uwg4EfkccCW9K63wkcBhFssvAm7zKBYXLsfu93IlkFpPaeUp7QOwpduAvukuFC4oYo+rZ1NQNsCzQAryobElRqSHkdQFFWNor1pC25rPTVYfQh5en5lHmPNiyFDRsyzWsRvSIS+TOsa1I026DyOtYZN93l4R0ufmFKQ5eKHP2/NbIdK/Y6DFOs4iu47DRqAP0opkohAZev2UZxGplGgLwGaTgBEmC25z0FmUDvV+VFXf0sRv+IMPv5pQ2Hi2WZvOSUq8gWR4MzUaGRaYiZYh0yEfgJuhWuOQpuRXsRszH7QfYjcV90vY5ZoIyvWAzRCl0wh2oqOcpBWAzUxrr2x7tD8zvpYUJ64AFA4aR9mOxkPS9zVdUG3BtvnzcjL7O/jrSCfBC5B5Mfx2ANIn4Tbs3qKDMATJgmiqA6lAZKNGJNGYqRAy5Xqm9IvJCVoB2GySyUL9J+xC31FGiyZVVJT8M3+/maearn5boMR0YfVf/0FuXKZKCDYxUCoiSFrs7ZHOi35/ssgHLkSms/7hpv+fDX4D9LNY/jayq+l/aw9gN7Jld7SDslNaAdhsoslCQ3a26euTWAgoTtI1qmyHAyFs1JUjDEwwWVB181vses+fTGZme9vaRqTH9o64mdt9ADI8cT7mCWdcmQGcbbF8DTJnQzaLIcM74wxgTtn/IsNslQNaAdhsvMlCAybu4XUcWygsSNwEEC7pR/Fw45lYtQLgjWbgKst1/JHsuR4XA0cjU8MudrC97ZEKx7PAdg62l64QUlGx6VR9FVIJyHbvAQ9ZLD8UGRWgHMiWG44LRtOY9h1l1HCQsvwUGj8LhxpPUOfdsAX1EPCuxfI7A+d4FIsrzwNTgcuAOgfbOxoZNphpb4knYtGHCOlkmckZ/9J1JdBksfyPkE6hymdaAdgs7eF/AMUD/B1OH07hDOWXG8dgtM8qrhjwAyTLnynbb8hBaAduRFrQ/oT/UwAXIh0nlyLNzUEPZfaiD8dl9K6pk1djN+toMTJhlfKZVgBEHvKjS0soFCZcmPZiaUnlBIWLykxXb7ygiusjpCOUKdte5EGqRh7IuyIz2PltINIh8X2CHT52OWCTlvMJ4GWPYskkf8BuBsjjcDd1dc7SCoCIYNCzORaLEo342yE6ld40sQ7jUWh+Z3vLRVcgqYJN/RDJAZ+tPkE6NB6D5BLw287IxEazkcllXBqFTHVsqhWpQPRGXuzbrWTPCJCspBWAzRpMFuqor/Y6ji1EU2hQjjQbx2DzoFLxVWLX/FmI3bDCTDEbSSt8NXbfg1N1FDJa4FrMp99N1++QDHim/oibSlJQHkfySJiaAnzXm1BUPFoB2MyoAtC41mpq3qQ6U6gAtK//0nT1WgHwx03IN2pTRwH2s0oFrwUZ2jYRSS1sMzwsFaXANchY+m/jb1KZvbGby2ENMny0t7sEu/4Nv0I7K/tGKwCbGY3jrv3qQ6/j2EJnki8MsWgnrauN5gMANzO/5aJWpGOXjZuwm00uk6wCTkUSvdiMlEjVaOD/AXOQSZe8FkbOj00F40oke15v9ykycZapQUilTvlAKwCbLTJZqGruK17HsYWWtsQvTS3L3iPaZtR4AdmddSzTPYXdPOmTkGx4vckHSIe9c4C1Dra3KzLt8D3I+HKvnLlp3abmAA96FEs2+AVQa7H8hRhmalWJaQVgM6OH4YZPX6G93p8U6R0dPc8G2KX+48dMV1+JZHZT/rFt/rwGeQPqTaLA35COjr8D2nzeXhipcCxGOqUVWq6vHJn4xpQX2fKyzQakKd9UAdLiojymFYDN3jNZKNrZzoqX/+Z1LAA0J7k1RlvrqfvoEdPVf2C6oErZ58CfLZYfgN2NM5M1IM3gU4CnHWyvHBmvPx8ZoWDqKmCYxfIPIi0Aueb/sGtxPBTpG6M8pBWAzd7H8JvckmdvIdLqfUfnpqbELwk1b95GpNn4Jb43jj3ORFdj19JyHtk9PW4yS4BvAQcjWf78NgF4BngRmGyw7MUW224kd9PcdgCXWq7jRuxbcNTXBJ1FK5NEkXSeaecaj7Q2EotFGTztIM+C6eiMUZ3gsdGxcRWr7zudWKTddBM/RprmlL+akd7whxsuH0aay+/3LKLMtBRJh7se6Szo91C+8cD5wGDkjbwlhWX+irRYmPol8ILF8tnuK2A3zOdzGIiknHbRkTQnaAvAlow/qC99+iZqFnr3u6xrSPCRMBZlzcPfJdpm3Il4MfCF6cIqbXdgd7wPRDKj9XadyJS42yNNxp0+by8fSd+8GLiIxElnDgaOtdjWMmTcf667FLvppH+BZMxUHtAKwJYeR97Y0haNdPDR70+htXq1dRCRKNQ39tz8v/65q2laZDX6wJ9OC6onXjR//h6DdNVZqgZ5ME8HXnKwvYFIheMTIF4zXj72ndAuRzNvgoy2+j+L5fshc2YoD2gFYEsNSG5uIy1VK3n3l0fQVltpFUR1bazHDIDVr91M1UtWc4900vubkzPRv5DseKbGIbOk5ZL5wCHIm7e/GbfEjkjfmKfYcnrw72HX9P86FveVXuhX2H1+PAeY4VEsOc3PTFnZaidgLhbHps+w8ez+i2coM5gquK0dVq2Ndm/+j0aonP1zql+50TSsLg8jSVmUe9shHd1MOzI1Iv0B1ngWUfYoRIZVXoWbqYDbkMmG7kQmeaowXE8E2AVJiKM2Ow+4y2L5fyNzTuTScErPaSfA7iqRCUaMJ2TpaNwcLVcfAAAgAElEQVTIylfvp7D/YPqPmwGh1OoSsRis3RClc6uR4+3Vy1h5z0nUmw/56xIBTkZmblPu1SBNmHsZLl+IdFpzMWwu00SAt4F7kYfxNPx9gclHkhZdhN2smX9GEhGpLc1FhmOaDqkcg/Srme9ZRDlIWwDim4GMk7euIFVM3JOJp/6KQTsln9mysipGw9eG/kWaqqh+9RaqX7/FZsa/r7sfyWKmglOOdDozzUwXA/ZAhq3msl2AW5Cc/JmqFunQqKNt4tsPu8mCliMZAlMZwaHi0BaA+NYhb1q72a6opWoVK197gHVzniHS3kJhn/4UlndP7lZTF6OuIUa0tZ7GBS9R9eL1rH3kQpq+fB2innSGrkV6khvnDVaeaEPyApgmowkBU5EhablsLdKZdRFynfYLNpy4fopdOujebjnS7yLdfAxd+gPtwBueRZRjtAWgZ/2BBdhl/YqrsHwQfUdPonjAcPL79KO1uY3m2hraKhfTUbWUmDcP/K19D7tvbso7YaSFaWeLdZxObuWTT6QU+MmmUhJwLF0WIv2JbIa85YKxSFO+6XlrRj7XrvIqIKW6HIJ8e4xleXkZrexlmn2Q5FOm53QVdnPR90bbAI9gd1y9KqaJn3LRddgd64fch6xyxW8I/mZiU1YgnzNU5nkEu3N7nfuQs8JuSLa4oK45m+GeuagU+Rxgery7srgq5bl84DmCf5CblBZgpveHRHlkG6QJ0+b8jnUddJYIA+ci/XlcXnNtWIwgymGnYXfcP0Dz2iiflCJDkIJ+oKd7IzrSj4OhPHUtdufZOH11juiHZFFsw8111wRchk5ak64Q8A52x/5s51GrnFGB1DKDfrCnUjqA4/05DMpjpchnGpvzvb/roLPQdkjTvKtrcBE6fW26dsOuz9VaoK/zqFXO6IvkJg/6AZ+s1KLf/bPJd7A733PRIb2pOhTpde7qWvwnMlZdpeZe7I73Dc4jVjmlELib4B/yycqdfh0A5bkQ8BZ25/t851FnrwLgh0hmRhfXYjuStGiAi53LcsORXCWmx7qVLedxUMoXp2H3Q/W7dOUgV9lhBnbNn9WY56vPVRXIg7kDN9dkNXAxiacdVpJAyeY452KqbBWACUgTX9AP+57Ka/7tuvLBPdidb51v3sytuL0uPwMOdLJn2akYWILdMZ7lPGqVs04AlhL8Az9eOcHH/VbeGgbUYX6u24H0p6DMbbZDMW3KE8g0z6q7b2F3bOehLS3KoTBwIm47GKVSViA9zVV2+Al25/sl9yFntb8T7PXZ1T/AxRTH2eZf2B3b77sPWeW6MDKN6C1AFcFXAGLAz33dY+WlQmQImc35PsJ51NlpbzIjbXAMWAOchyaz+brJ2PXPqAG6z7ymlCNFyBjtXyEzVqVaIehE5rl+ADhn0zpsEpk0AiN93VPlpWOwe5gsRHq6q56FgY8I/sG/dZmDTPesxO3YHc9b3YesVM8GAnshk4WciNT6z9n0vw9CvuEWx1nud9hdCA/4tUPKFy9id74vdR9yVjmX4B/2PZUocr1qpV3e4G2Ga3YAU5xHrZTH+iLNhDY3lW84j1qZmoR8HzY933X4MJV1L9EXyRoX9IM+WWlCUkVnyhTHQfkhdsfxFfchK+W9c7C7EOag0wJnE9vhaXe5Dzkr/B674/oE8KjlOtIpy8jt0TwFyCdRm2N4rPOolfJYGHmI21wIZzqPWpkaAGzA/FxrMqjuJiDZ4kyPaT2SrQ5gd+A9i3WlW14Hpnt7OLLGQdgduyVInyylstqe2PVcXocOOcomF2F343sLbfX5Otupva/Yan1h4AzcTTscAe4Hhnp0PLLJs3h77pTKSg9jdyH8xn3IylAekjnO5nyf6DzqzDQLu+OY6C2yDPleb9O6kE7ZiDzQcumtdjzetd4olbVGIUP7TC+ENmR6VJUdDsTuYaHJoCQr3OfYHcdUviNvh9v+AYvJrQqebf+Ne9yHrJT3rsHuQnjCfcjKwlPYne9fuA85o1yC3fFLtyf5LOwrHOmUl8iN4W62o6EiwG7Oo1bKYyVI72Cbm8YhzqNWpsYBLZif62Yk730uqsAuK2cnMNVguwVIng+bjpzplHZk5Edvz35nm8PhHbRfjOoFTsbuQpiPTpiRTW7A7nznajKooLPJdU073GkZR6qla9rhPMu4M1UYeB+7Y3SK86iV8sEb2F0IF7gPWRnSZFDpm0Lm5JOfhNvpw78ADvUo9kyzF3ajoVYBfZxHrZTHZmD3ZlGNpCdW2eFs7B4KH5FbE87YplT2Y0a5o7Gf7z6dMpveOe3wI9gdl2udR6yUD/6C3YVws/uQlSEvkkGd5TrogByP3XGaj3+TKhUizfT1ljGmWtqQzxB9fdqfINiOhmoGxroOWimvDQFqMb8QOoAdnUetTGkyqOQKgS+xe2i6aD4fgXTci1jGmmpZTe+advha7I7HI84jVsoHl2F3IbzkPmRl4SHszvf17kN26mfYHZ+nHcc7E3jbMuZ0ygfId/RsVwL8B7tjsZ/roJXyWiEyD7zNhXCU86iVqZFoMqieDEVmQ7Q5Nts7j1qGpp0ILE8zXtMSRZIWZfvw0O9gdxw+ofeOmFA55CjsLoSvyK3UotnuauzO95PuQ3biPuyOyw3uQ95CKdK0bZP3IZ3SNe1wsf+75ps3sTsG57oPWSnv/QO7C+Ey9yErQ5oMqrtdsPuevg7o5zzq+EYjE/+4qATEkJTRZzjZM+/NwO68V5I5510pY5OQjGCmF0I9MMx51MrUSdjd9HtTMqgQ8G/sjsfZzqNObn9gLu4qAq8C01zsmMfuwW6/f+8+ZKW8dzN2F8Kf3YesLLyO3fm+0HnE/jgdu+PwMZnbO75r2uFK3FQCuqYdHuJi5zxiOxqqDdjBedRKeWwAdvnHI0ivZJUdpqPJoEqx6zwXBfZxHnX6+iN9FNpwUxHomna40MXOeeAn2O3vbPchK+W9C7C7EN5GJ8zIJn/G7nzf4j5kT/0au/1/yH3IVrYHnsNNJSAGLAKOdLJndgqRWG329TDnUSvlsTzsvxue5DxqZWoI8rZmeq47MJvxLhOMRnqym+57MzDGedTemAXMw11F4CVgspM9M3csdvv4Bf5lgFTKmQOwuxBWIE2rKjv8GLvz/bL7kD3xGHb7fbX7kD1VgKQVtvn+nU5pR1qMMrnXvO2kSxe7D1kp7z1Bbt8cc0kB9smgjnYetZ1vYJcWeSW9Z1a4gbiddriKzJ122HY0lJezQCoVmG2xSyiSzc2juSiXkkGFgQ+x29+TnUftvxnYTxOeTvkY2NfJnqXnVuz263b3ISvlvd9gdyFkWwepXPcCduf7cvchGzkfu/3s7R1djwaW4q4iMBt54cgUtqOhOoGdnEetlMfKkFnATC+EbBkipcRE7JNBDXcedXrKgbWY72OuDHUtQYbxuZp2uBkZppgp0w5/H7v9edV9yEp57wzsLoSPyNwkKaq7m7A733e7Dzktf8Ru/3It2dVIJLGPTX+JdMoq5J4TdAtLHvAZdvtynPOolfJYCHgPuwshE9Okqvj6Y58MalfnUadmAnaJcHI53fWuwDu4qQTEgPeBPZ3sWc8OxG4flpLdEyUpBfSuiVJUcr01GZRtH4dcn/AqhLyd23xCSadEkdaHICtdT8eJK53yU/chK+U929nFgp4qVaXOi2RQ33YedWIHY7c/2TTKwW99cDvtcCPBTTs8DmhNI9atSwMwwnnUSnlsGFCH+YXQBmznPGplyjYZVCaNk/ciz8FRzqPOfBOAR3FTCYgBXwInOtmzLd1gGG9Xudd5xEr54CrsLoSn3IesLDyO3fm+xn3IcV2K3X685D7krHIg8CnuKgKv4HaYXV9gjUW8UWB3h/Eq5YsipBZuc/Ee6jxqZao3JIMajP1cBzs6jzr75APnAetxUwnoAO5Czq8LZ1vG+y6Z2S9GqbQcj92FMB+dMCOb2CaDeth9yFu4C7v4b3YfclYbgNtph2twM+1wGJhjGetpPseolBMvYnchXOQ+ZGXINhlUjODSvU7DLr99NZInX6VvB+B53FQCYkgfjyN83qc9scuHsAq5npTKalOQJjibWrveWLOHbTKojwkmGdRrhvF2lQvch9zrzEKmyXVVEXgJmdDHLw9Zxnedj7Ep5cwd2F0If3IfsjIUAt7C7nyf4zjmEy3jnYd811b2uqYdthlFlE7pmna43Id9GYkMSzSNrYXMmvdAKSMVyLSephdCJzDVedTKlG0yqErcJYMqBpZZxBpD8gYobw3C7bTDG/Bn2uGrLeN6zON4lArEJdhdCK+4D1lZsE0G9TtHcf7cMs4nHMWZq3YG3sRNJSCGzEfi5aRkJdhXMGd5GI9SgcgHPsfuQjjGedTKlBfJoLb3OcaRSPY1mxg1YZUbR2P/IE2nzAbGehT7yZax6Ccm1SvMwu5C0BSr2cU2GdQzPsf3gGV8v/E5PrWlUmQYn02lLZ3ShAxT9KI3/uuWsZzvQQxKBe457C6En7gPWRnK5GRQe2A3TGsd/nQcU8ll47TD07EfZlphsX2lMsIE7CbMqAeGO49ambJNBvUF3ieDCmGfqOUMj2NS6dsNyZrnohIQQ34ze1jE+2fL7f/RYttKZYw/YHch3OM+ZGXBNhnUDzyO50zLeD4kmFwFqrswUhlbh5tKQARpfRhqEOsQoNZi2x1IXpWsEkRO41HIgdoBeeMchMw2Vrrp3+uQ3OPLgKXIW8Zc5AAr//UDFiMXhIkoUvv/aNP/H4VkcpsEjEY6oPVj85CejWx5vuchHRI7Dbev0jMNOVemQ6xqkA6B1cgNf8Kmde6ANAcPZsthg3Wb/nYV8jv7FPkUEUG+5y7CfNrVGLA38uapMkc/4BdIZdHvVL8gv7FfIzlK2tNY7sfIC5Cpf7A5i2ERMvfENGQejTHIcejqs9CE5CGoQa6DxUh69dUW289IxcAJwF+QjmImtatmZLjJFcBEt+HnpO9iVxP/CPgrsMJw+UbgVeSCHO/zvir7ZFAvIDMOVhsuXws8jcwyaRPHA14fGOWp7ZEe/C5aA2JIZTKd6Z8LNy1js83bkcyVpp9SFyPzXhxHlneq3hnZEZsZvHoqHyMzVmk+Zn+EkWPs6kJNVuYgs3h1tRIpb9nOtJcJpRFpcVCZ71DcphX+J6mnFT7KYVzJSg1SOZ+RYuwZYR+kKcTVAboKmedZeWtfgr8Ati4bkJEGfXzc71xlmwwq6PJz7w+J8lFXWuEa3Pw+2pEZIQekENs/HcWUaokiEzLtlULsgRkNPEkwB2g9kqNc52n21t8J/scfr6xFpuTU8+2dAmABwZ9bk7IMyeqmss8g5C3XZVrhC0jc52USUmEI+ncdrzyK9KvKGCHk7cFmYgWvypvAOH93N6eMQfpfBH1eeyqvbIpReeMwgj+nJuUEPw6GcmonpN+Pq9/Mp8CBCeK52WEs6ZYGpENl4C9A/ZDOP0EfkK+XeuA7fu50jvklwZ/TRKUWSeepvGGbDMp1+TcZcCNUnjkaWIK7389s4r80DkBaC4L+fScqzxJgAqIpwPIkAQZZfoveGLzQB1hJ8OczUYkC16Ln2ws7IHn0gz6nqZROJIub6l2KgZ/iLq1wC3A93TuVX+Bo+zZlGal3cPTMnpgP+XFZHsL7TGW5yHZWNlflb3g/ZWguCqovT7rlRb8OgMoII4D7cJdWeDVbphUuxl0nRZtShV0WxLTsQ2Z870+1PIrO1mRjfyRpRdDnMdXyAJoJzsaFuLvhelF+7M9hUBlkd+A93P2m5gDfIPM+bycqjUgSLF/tRHaOF74PbR42MZPsqux1lT/7cTBywOlk18O/q5znx8FQGSWE/D5XEfzvLVNLDZJ90BcjgDUZsJOm5afeH5JebRtkuF3Q5820XOr9IenV9sVuIqggSwf+zUyoMksfJM1vC8H/7jKxrELSrXsqD/s5k4MuEeBwj49Lb1WI/YxsQZdO4CCvD0wvNQx3E7b4VaqRSqvKDduSXU30LssreNwX6lcZsFNelLVI2lOV2O8J/lx5UVaRWuavXBYCXiL4c+VFeQvtBJpr9kcmiwv6t5dp5ZpUDl4q38V3QiZ38awjXSgUpnzsVComf4O+oydRXDGCvOI+dHZGWLeiirYNS2lZ+THNX71FpLnGq812eRw40euV9iK7IrOpeXYjDYXz6LftNCom7U3ZNpMoHjCcvKJSOto7qVxVRev6JbR2ne+WWq822+UhJGugiu9cZKIuzxQV5LHHdiPZY8JIdhgxkCH9SinKz6O9uYENq1awaEMjc1bW8e6KWlo6Il5uGiQp2S1er1RltDzkd/xrJLNgxijsO5CBU/ah34SdKR26LUV9B0E4zMaqRurWraFt3QKal7xF65p5EIt6uekOZD6eeYn+KFkFIIQk2vCkd2HJwFFse+SFjNr/VIoHxp+3o7UdVq+LEosB0QiNi16h9t17qP/0GS8P0MHAy16trBcJI/OpezL5RMmQMYw78iJG7XcKRQPif5ZqbYXV6+V8x6KdNC14kY3v3E3DvOeRH4G1GPKW8KYXK+tlBiOzn3nSSrLztsP4wWEzOX63ifQt6WHW14ZqqFoOQFN7hCfnV3L7eyt4b4VnFb9GZFz0Kq9WqLJGf+TN9yICHP4dCoUZvue3GHPIuQyadiChcPd3qRiwbkOMpma5x3XUrqbugwepefMOOuvWeBXKm8i9r8cbabIKwCnIG5SVgtJ+7HDqtYw97HzC+cmng25sjrFuw5Yxt61bwLonf0zTQk+e2/OReZo9f/3IcmcC99qupLCsgomnX8c2B59DOC/5ddjQGKOyesvz3br6M9Y9cSnNX3ny3P4EGdHgaRW7F7gZmZDFyvihA7jpjFkcvct2qS1QvRLqN2zxn/61uIqLn1vAog1NtuEA3I1Maa1y00TgJiS1tVNDZhzClHNvpO+o5Ll5YjFYVRmlre1r/62zjZp/38mGf1xHtLXei5C+AzzS0z8mqgCEgc+ByTZbHzhlH3b58YM9vvH3ZENNjLqG7hWX2nf/ytrHf0Sso8UmLEhyYHJQAfAllrn1B087iJ0vvZ+i/kPTWm59VYz6pq3OdyxGzb/voPLpK4h1tsVfMHXHIfPNK7ENcr6T18gTOH/WDG4642BKCtP4QhiLwdpF0Na8xX9u64xyxT8X8ad3lts2/nQimUoXW61FZbsjgRuR7Ja+yisqZep5t7DNrLPTWq6jM8bKNTGiW/3eO2pXs/re02he+rZtaPOQz/hxr6hE33m/BXzfZsvbzDqbXa/4OwV9+qe9bElRiIam7gemePQMyiYdTMNnzxJrb46/cGq2A+6yWUEv8x1kRkVj2x5xITtf9iD5JenPzlxcLOd7ixt/KETJmF3ps93+NHz2DLGOVqvwkDdDJX6BJPUyEg6FuP1/DuPaE/elIC/NvEuhEBSVQkPVFv85PxzisO0HM3ZACc8t3NDt2k8nPKRC+7zxGlRv8CVyj69FMuUV+7GRon5D2PO6Fxk684i0l80Lh4gBLVvd2vKKy+m322l0blxJ6+pPbcIbgkx8tDDu9hMseAcw1nSrYw79LtMvujPu949UhEIQzoOmOM/4gn4j6DvlCOo/fsymJWAY8Boyn4GCe4D0mmm+ZtwxFzP1uzcTCpnlWwqHIByG5jins2DAaMomHkzdR3+3aQkYCfwL/TYMMpb6IQxviKEQ/PV7R3HugRZp+PMKINIBcSrx04eXM2lIGU/Mq+z542Vyk5F7mFWtUWW9KNKp+a/I5HXT8TBTaGH5IPb+7av0G7uT8TqKi0I0NUNkqw+UoVCYvlOPprN+La0rP7EJcyiSDK+bng7EWCQxiNnWdjmcnb73f3KnsFDeJ0RRDw2URcMmMfq7jxNK4RtzAmfZLNyLTEZ6/xsZvtdx7HjOH6yDKC8LUVgQ/zdTPGo6o895RGqF5s6yWbgX+SZyMzTyyxP35az9zG94/1Uxosd7xIlTh/H7I6xabkuBk2xWoHqV9cD5SF8gTzoWhfML2f2qp1P63p9IKAQVPTWSh0IMP+n/KJt0iM0m9qWHT7s9VQBOwzB1bvHAkcz40b3Gb/5b69e35zBKx+3N4COvtVn9CfjULJRlTjFdsHTIWKb/4C/WlT2QH1y/BF8P+kycxeBDrrTZxMno5FAAp5ouOGvqtlz1LY9Sjofzoazn2Ux/tPdYjpk0xGYLxr9r1WvNBfZDKodWrb+TTruOARO9mYOnrCREfl4P99BwHiNP/xv55cNNVx+mh2u+pwrAUaZb2vF/bqSw70DTxbsp6xMi0SfGgQf+iOKRxm8jZVi0dPQixud76nm3UFBq/DLZTd8+IcIJzvegQ66kcMj2pqvvD+xlunAvUQocaLJgcUE+d557GGEPKnv/Vd7zAz4UgtuOnUxZofHLxN5oIigV32NYjIDpN2464469xLtoQlCe4OUnr2www477vc0Wjo73H+PdavsCu5hsYcB2uzJi7xNMFu1ROCQPhZ6EwvkMOeY3NpuwalvpBYYivUTTNmjH/Ri665GeBhMOQ1lpgvOdX8SQo66z2USun+/9gCKTBS88ZBfGD/X4eVpYIh0CezCqXzEX7z3WdO15aDpo1TOjijDA5DNv8KyVu0u/slDCZvfynU+iZJuZpqufCZRv/R/jVQD2wzDr34Tjf2KyWFKlJYnfOMomHUrxyGmmq/8xwadtDLKsw/Bzz/jjLjNZLKnSksT/Xj7tWAqHpDjmvLufEfwxD7K8YHLQ8vPCXHrkbiaLJlfS7b60hUv2HkNxvnG/rccI/phryczyQwz0GzedwdNnmSyaUF4eFCYZlDtwlvE9N584o37iXVVGXXsL+w70/G2wS1Fx8idU/93P8GXbKr7iihEMmeHPy3RJcZKzHQrTf7fTfdm2iu+QnbZlZEX6wztTUlyW8J8H9SnkaLu+AEp5ZpuDzvJt3SVFie99faceRV4f42zH3d6S41UAjLreDt31yJSy/JnICyWvGfWd9k1ftq3iG7bb0Z43gXXJC9PjaIAufXc61pdtq/i+OdPHXCpFfZL+ybGTtQKgMsOw3eJ+TvdEcZIu6aG8QsomG794dbuI41UAjHpYDdzR3750xYWJHwgFA0ZTOHBbX2NQm/l9vnsa/vnffx86kfy+6WUbVOb2m+zjTLvhPChIfOc7YJx3HYuVMlU6bBwlQ8b4tv5k9z2APhP2M119ShUAo7tq+ZipJoulLD+FXglFI6b4GoPaLPDzHQpRNFzPtwvFBfned/7bWpLWwxHlRQws1RGcKljlY3b0df0FeaGk37stnnPdmtHiVQASf5DrQamPtSIg4VDALgXaAuCM7+c7ha8LBQPH+hqDEmMG9yMv7OHQv3jyktfwxw5I0jtUKZ+VDhnr7wZC8sk7EYuW7pRGARj19MkvTdyT11YohQpAXrG/MSgRCueRV5z8u62NVJ43er7dKO9pal8vpXCBlxcZDU5SyjN+P+cAwklufmHz+163Z7tnOZEzg89vKUp4mQimB7FU/shBHCpzmM4zoZSKL14FoMFkRZ0tRoulLJbCTO6R1jpfY1AiFukk0mY1E2PybaRQA4i06Pl2ob6l3f+NpHCB17d1+h+HUgl0Ntf7vo1okmkwo63GMXR7SMerADSarLm58j8mi6Vs65mS4umoXuZrDGoz3893JPnfdFT7G4MSK6rqiKZSI7MRSf5wX1bjb6VTqWSa1//H3w3EIJLkUms3f851qznEqwBUGq15+ecmi6WsM4XKf9ua+b7GoDYL/HzHYrSt1fPtQkt7J1+t2+jvRjoTtzKsqW+jurnD3xiUSqJ++Txf198RiSX9/mnxnFu/9X+IVwFYbLLm6vn/NlksZa3tiY9Kx8aVNjUjlSa/z3dbklbntsqFdDYY1VWVgTe+WOHfyqMR6GhN+CevLa32b/tKpah53VJa1ltNIphQsvseQNNXb5iuftHW/yFeBaDbH6Wi8v3niCapxZuKxKA9yaobPn3al22r+NbNeZZYNIV2egORCLR3JK7wNXz2jC/bVvE9/aHRbSE1bU3Jtz+/28uLUoFY+/6zvq27NXE9mFikncYv/mW6+pQqAHNN1tzeUE3lB8+bLJpUW2vyXuG1c+73ZdsqvtaaNWz45CVf1t3SluRsx6LUvv+gL9tW8b342TJW1/jU0TdJB+KqpnaeW6gVAJUZVr58r2/rbk5y72v4bDaRJuPWsE+3/g/xKgBvAEbdbb964n9NFkuquSXxQWlc8C9aV3fbt1T9ERk/mKtlGCmOutval0/6db4T/3v9p8/Qvt7oSxXADQR/zIMsRjN2dUai3PjcHJNFk2tNXAG4+e3ltHam0As4vpMI/phrycxyKwbqln3qy8tPJAIdSVq6q1/5g+nqO4Fu3217Ggb4kckWNn75AWveftxk0R5FY9DQ1PPzKRbtZP2zV9lswrg9pZeoBD4zWbB63pus++A5T4OJRqGxOcH57mxj/XO/sNlErp/v14E2kwXveOljllR63BmwrVlKD1bVtXLL2/8xXXsEeMV0YdXrGf82vrjvSmIpjFxJR11jLOGbWN2Hj9CywujRDPABKY4CAJhtupV59/yY9gbvOuw0NMUSDgGsfvUmWlcbPb9Ahjy+abpwL2L8FJ/350voaPZuPH5DY4xogvNd9eINNm//tcDbpgv3Es3AqyYLtnZ08r27/+ntkMCGnpv2YzG46JkvaGw37mvyNlBjurDq1Y4HbjJduG7Zpyx5xnjx7mJQn6AhLNK4gcqnf2Kzhbj3+J4qAA8CRm1urdWr+eSmszzrIFbf0PPNpnnp22x4/lqb1T8OJOl2kRMeNl2wef1/mHvrd1PL3JNEDKhLkIWiadErbHjxBptN/B3QsWTwkOmCL3++jN885VEdKtoJjT23KNz09n94doHVt3/j37XqtaYBryH3/m1tVrTwwaupWfiuJ0E1tsTo7CkBQDTC6vvPorN+nenqo/Rwzfc05UodcAAw1tAOAvoAACAASURBVGRrTWu/or12PUNnHoFNutaGxliPD4S2dQtYcfuRRNuM8hZ1uQRYbrOCXmIDcAQw0mThxpUL6GiuZ8jOh1oF0dAQo76Hzz2tqz9lxZ3HEOtI0kEgsR8Aq2xW0EssBS4Eksw+Ht/rXyxn7OD+TB9rOR1z9aoem/8fn7eO85+ab1OvbAb+B63gKzEY6e91FzDOixXGYlHWzXmWobsdRVH5YIv1QGVVD8nuYjHW/P1C6uc+YR6o9Ou7Jd4/JJpzrQE42XSLtUs+omXDSobOPIJQOP0pB6JRWLchRrysiC0rPmT5bUcQaaoyDQ+kR+TPbFbQyzQjzWJGNi6aQ1v9BobsfCihVGZu2kokCuuqYnFv+M1L32bFHUcRbak1DQ/gfeBamxX0Ih3AIGAv0xXM/vhLBpf3Ydfxw81W0N4MVfFzC9z38WrOfPRzIklSoiZxN2B111S9QgHwQ+S38A08nv8m0t7CmrcfZ9CO+1M8cITROmrrY3H7PcUiHax5+LvUzbnPNsxLgYXx/iFRBWARcAJx5hBOVd2yuVR//jqDZ8yiIM1ZlKo2xmiJU3ff+M7drPrbqUTt8/5fAvib1im7LAROB/qbrqD2yw+pWfgOQ6YfTH5JerNKV9XEaN26a1osRs2bt7H6/rOIticfK57E9+nhIshRi5BWAKMp9mIxeP6Tr1izsYFZU7elIJX5ur+ucglEtvwa09YZ5dLnF/Kzfy2OW/FPQyfyW9bv/7ntcOBp4DQMW7tSEWlrZtXrD1HUfwj9x++c1rKdHTEqq7p3/uvYuJKVd32Txvkv2IY3D7i4p39MVAGIARuxeCsEaNmwghUv/ZVwYRH9x80glMK8343NMao3bnlI2tbOZ/V9p1Pzxm3y7dDOPKRW6HOC86wSRc73t2xW0ly5jBUv/438kjL6bTuNUDjRT0w0NMaoqdvyVLSumsuqe09l49t/gZh1f5KPgcvQ8/11dUgrwB42K/l42Toefns+Ywb1Y4cRA1P74le9ErbqOPrCog1884FP+MeiDTbhdLkHsH5tUllrB+B+pMVvkIsNxiKdVH7wHNUL3qL/+F0o6pf8k0AsBms2xLZIex7raKXmjT+x6m+n0F611IvQfkiCF91kl2sI6SX/DS8iKR44km2PvJBR+59KycBRcf+mtR1Wr4tKU3A0QuPCl9j4zj00fD47tSkBU3Mw8LJXK+tFwsCHwAwvVlYyeBvGHXkRI/f7DsUV8ZvHWlth9Xo537FIB40LXqT2nbtpmP+CJx0LkYf+fsQZA6sYjLQEDPBiZTPGDuX7h87khD0mUl5SFP+PGqr+2/Tf2B7hyXnruO29Fby/0rORJA3AJGC1VytUWaM/8Aukr09BUEGEQmGG7X4MYw45l8EzDo77EhRDPnE3bWr679i4kroPHqTmzTvprF/rVShvAvuT4MUnlfr6VOQNyqipMP5WQ5SPncrASd+g7+hJFA8cSV5xHzo7I6xbUUXr+iW0rvyY5iVvEWn2fBKSx4ETvV5pLzITeI/ErUNpCYXClI+bRsWkveV8V4wgr6iUjvZOKldV0Vr5Fa0rP6ZpyVtEvZ/i9yGkCVDFdy7wFy9XWJifxx7bjWTP7Uay/fAKhvbvQ1F+Hu1NDaxfvYJFGxqZs6KWd1fU2iT46cnFwJ+8XqnKaHlIh8/rsPhk7YeCsgEMnLIP/cbPoM+w8RT2HUgoL5+N6+uprVxD29ovaF76tkxs5u2Mmx3Aznj0mftapBaR7WUtjpqEstzvCP5ceVFW4tHbbS8WAl4k+HPlRXkTDyuuKivsB3xC8L+9TCvX2BzUreUhyUOC3imbEgEO8/Kg9GIFSCtA0OfMpnQCB3p9YHqpYcA6gj9nNqUKGO31gVEZawzwKMH/7jKxvIIPFeHhyBjqoHfOtFzp9QHp5UYDawj+vJmWS7w/JL3avsiY+aDPm0npAA7x/pCoDNQHaepvJvjfXSaWlUiF3hc7IkNrgt7JdMu9pNbfQW1pJpIuOejzl26504+DkQNOR0aDBH3+0i3n+XEwVEYJAaeS3S+hfpcaYIrpAU7VN8iuh8Ij6HdBG/sDTQR/HlMt9+Fxso8ccxHZVQm4zJ/DoDLIrsA7uPtNzQH2QZIHBf37TrU04tFovVTsjnxzC3qnk5UHCXA4SC/yc4I/l6mUe9DKnheeIvhzmUrxfk5WlUmGI623Edz8nlYDZ7C5tbiY7GjxrsIyn4eJScAyy8D9LNejzf5eKAVWEPz5TFSiSK9XPd/2tkOmCw76nKZSOoHp/hwGFaAipM9WPW5+Ry3I82Lr9KXnOdq+TVkKTEzr6HqonMzriVkHfMfPnc4xvyT4c5qo1AIn+bb3uWc2wZ/TdMpbaMWvNzka+Ap3v5/ZxJ8cqBwZNh707ztReQaoSP3Q+iOEZF5yVVtLVF7HcopHtYVtyOzv/y9tilF541CCP6cm5QQ/DoZyaiqSndXVb+ZTEg8TvtFhLOmWemRuk4yq+I4kuNaASuAsMuyA9AKPEPyPPV5ZA5zi437nogJgPsGfW5OyDCjx/pAoBwYCtyFDOV38VjYAF5C4r9AOQLujeNItj2A4bbsrewHP46YncRXwU7p/u1H29iHzeoOvR3p9l/q437mqa3KsbC0/9/6QKB/lI785V53s2oGbSS0z6POOYkq1RIHnCKCjn40ZwB34c4I/RHKY93G2N7klDHxE8D/8rvIe0sKjb3n+GER29HZOVBrJ8Dcj9V+H4La16Z9Ip/VUHO4wrmSlGrgdjyZnC0oRMsXsncBizA5EE/AacDnSS1n563+w++F+DPwV89EDDcj3wEuJ30FHeet27M73C8BjmA8NrgGexH744QNeHxjlqe2AZ3H3AF0EHJVGfAXAAstt3oE8q0yzai7atI5vIs9OXwXxzXwEkq1oe+RbSwXShN/1Nl+LpHlcinzbmwd8hgz5Uf4rRypqQw2XjyJ5Ij7c9P9HIkO1JiHphYcC/dg8u+RGpIK3DDnn84DPkbG/yn9TkclUTPMn1CDXcjVyPxmHvLFsB4xCphzuz+Z7zcZNf7sK+BKYi/T6jiL3gUXIPcJEDNgbeNdweeWPcuQTzcVAoYPt1QG/RmaFbE9juUuAmyy2+w/giE3/uwh5zk0DxiKdlfsBfTf9exPSalWN3G8XI60iayy2r5S1P2BXA77bfcjKgu1MgN/3OJ4zLOP5CM0EmSlCyPl0NZwuAtyP2cvLYKRyarrtDhyk4VXKT+OxmxCmHsnepbLDcdjdcOfjfabNEPYzUZ7pcUwqfbshLTEuHvwx5Ddj00nuLsvt/9Fi20plBNskMD9xH7IyVIh5n5yucqhPse2B3QiUdUizs3JvJPIW7moE0Uq2TN9rYhryidk0hmoyICGPUjZmYXchfoWDTivKMz/D7nw/7XN891vGd73P8aktlQJXIB14XTz4m4Ab8GYI+GuWsZzvQQxKBSYf6XhncxEc4zxqZWoo0lHK9Fy3IR3//DTMgxh1xJAbR+N2XpjZwBiPYj/RMpa56ARkKstdjN1F8Ir7kJWF+7A73zc4ivMqyzifdBRnrtoZeBN3D/6P8HbK22LsKy77exiPUs5VYDe1cycylExlh12wm161EhnO5EIRMlTQ5gZ9iKNYc8lA4BbsvpunUzYgLylev2nbTnP+mMfxKOWcbRKYP7kPWRkKAf/G7nyf4zjmEyzjnc/mnBPKTgHyIK7FzYO/Halo+NGhcyR2/RVa0InnVJabgt0kHDXI24DKDqdjd0P+mGDG2NvmKrjQfci9zizcpu+djQxL9ssDlvFd52NsSjlhe2O9yH3IylApsBzzcx1FJogKgm1FtRqtqJraAbeT4yxE8vH7yXaY6Sp0AjqV5Y7H7kLVptXs8mvszvdD7kPewp3YxX+L+5Cz2gCks2cbbh78NcjnBb/vKSFgjmWsp/kco1K+KsS+c5VfSWCU97ZBxk2bnutmvBt2ZaoCeZM33YcOYEfnUWefMJJYZz1uHvwdSBa+wS52DplV1CbedwlmDh2lPGObBOYp9yErC49jd76vcR9yXD/Cbj9edh9yVjkQ+BQ3D/4YMnzY5QiiMmC1RbxdE50plbW8SAKjCVayxzew+965ks0zdQYtH5kt0uahc7TzqDPfeOBR3D34v0QS8Lh2vWG8XeVe5xEr5bFsSQKj7IWRaZltzvfJzqNOTFNWe6cPcC0ypM3Fg79x0/aK/d+1bsZht58NmE9TrVRGsE0Csw53SWCUve9hd8N+m8z83mnbK/1y9yFnFNfT9EaRuR2Gudi5HjwZJ650yk/dh6yUd0LAW9hdBGc7j1qZ6o9dR64IMNN51KmZgE5bbWpX4B3cPPhjwPvAnk72rGcHYrcPSwmm1UIpz9gmgfmIYJLAKDM3YXe+/+I+5LTcSO/eP6+5nqZ3FfbT9HohD/uOjcc5j1opD2VzEhiVvolIGlXT850Nb8jl2DVhR5C34d6uBJmmtx43D/5mpJ9QXxc7l4ILsdufV92HrJS3sj0JjErPC9id78vch2zkfOz2M1P7OHjlaKT52sWDP4ak7x3rYsdSNACZSMh0fzqBnZxHrZSHekMSGJW6I7G7iWdTL3kvRjl823nU/psBvIG7B//HwL5O9iw9t2C3X7e7D1kpb9kmgbnafcjKUAGSS93mfB/lPGo7e9N78hzYcj1NbxX+TNPrhUnYfQarAQY5j1opD3mRBKbUedTK1KXY3dCzNVPeY9jt9zXuQ/ZUUNP0ZvKQ4H9gt48Xuw9ZKe/kAXOxuwgyLQmM6tlgYCPm5zqbc+WPJnc/c83CPjtiOuUlYLKTPTN3NHb7+AVSqVIqa/XWJDAqvruwO983uw/ZU9dht/8Puw/ZyvbAc7h78C9C+pdkukIkVpt9Pcx51Ep5qDcngVHdTcfuu2818v04m9kOdY2RmR3ZttYf99P0XoE8WLPB5djt72z3ISvlrd6eBEZt6XXszvcFziP2x/9v777j5SjrPY5/dk9Pzkk5gSSkQAiQhNAJhC5SAsiVIlIUQVREkSJcQEFQil5BihcERARBOlcUpCpFQpUeAwFCSAgJKZBeTk4/Z3fvH7+Ew0lO2X2emdn2fb9e89KQzMxvZ3ZnnpnneX6/E/A7Dv8hd5NdrSvTu5hobvwJLHHQ4Cg+XEAG4zcOogUYG3nUIgEqhiQw0uEY/C7072NV9gpBDHgJv+Pxvcij7t2X8R/Pk8kymfyc//4n/D731dGHLBKsYkkCI5affA5+5/ugyKMOl2/Bq8Xkzuj2kdhTeFQ3/nnYW4Z8tBOFc95FnBRTEhiBX+B3vh+MPuRI3IHfcbky8og760PxlOkNim/io+9HH7JIcIoxCUwxG45duF3PdQuwVeRRR2MIsBq/YzMm8qitC+MY/AczprskgQewbKH57Bv4HYep5GYyI5G0nYvfjyBfk8AUq3vwO9+XRx9ypH6G3/F5JOJ4d8Gm3kZx408BbwJ7RvLJwlUFzMXvWOwbddAiQRpM8SaBKUa745fhcRFWTa+QlQMz8bsxHBxBnMOwHA4+/deZLAuBH5C7sx0ydSl+x+P/Io9YJGC34PcjyPckMMUkBryO3/k+KfKos+Mo/I5TmBnhyrF0s1GV6W3B0vfmSpneIIzArxuskdyqXiiSMSWBKS7fwe9G8BaF8/SXjqfwO15nhhDTYcBsz7gyWR4DNg/hc2Tbffgdl0sjj1gkYM/j9yMolCQwxaAae4Xreq6TWIGoYjIe6+JyPWZBVoXbGnjSI5ZMl+lE042RDXvg1w22gMKpAilF6lj8LhCFlASmGFyB3/m+O/qQc8JN+B23Gz33X0u0ZXqXk7tleoMQB97A7xgdH3nUIgGqQklgislo/OaFN5D/071c1WK1612PXTuwncN+y7ABd0s99p3Jsq5M7wCHWPPJyfgdp1dQoTPJc0oCU1wewu98/zz6kHPKWfgdv2cz3F82yvRuk2GM+agG+BT345QAJkYetUiAlASmuOyP381hHpZdrpiVAu/idxyPTGM/W2HJdaK68X9IcSXwuhK/43V79CGLBEtJYIpHCfAOfuf76Mijzk0H4nccZ9N9utx1ZXqbPfeR7rISK9NbTKm7t8Dv+KrQmeQ939GvxZAEppCcjt+N4mXU3/lFj+F3PC9Yb3vryvQu8txuusu6Mr1DAjoe+eQR/I7d+dGHLBKcOEoCU0wG4jeALIFVx5MOvk+Ra7DsfWApZKd6bCvT5Xlgh2APR944AL9jN5vielsiBegk/H4Eb1BcSWDy3e/wO99/jD7kvHANfsf1QaLt559DcXfjlOI/oDKd8RsiOasav9GvxZgEJp9tjU3rcj3fq4GhkUedH2qAz4juBu66NGDZ6qpCOQr540z8jmOmMzhEQlOL9eMfjJX+PBnrQzwGG+09lq5fVfkmgbknrA8kofDNGHdO9CHnlVPI/g2+uyWJJW0aHtqnzx+1WGIj12OpQmeSNZXAl4HLsP67dPtz27AsfXcD38We3H36LeuxwhmSH76K3w1kBlZsRroXB/5D9m/26y+vY9UexdyA3/H0zeIokrEJWP/rarJ/QUmhJDD5pByb2+1zvg+NPOr8tCd+M2qCXD6lsMr0BiGX6jiI9CiOvcafTvYvJl9clAQmv/wEv/P9dPQh57W/kN3f57oyvZqauyHfSo5nRB+yFKNj8c/LH9ZybIifW4I1BFiF+7luBcZFHnV+2wyrC5+N3+aDWI0H2dAR+B1bFTqT0G2Jfys1zOWF8D66hOBW/M73tdGHXBB8+5kzXaZhA36laxXAR/gd40mRRy1F5QQsKUi2b/LdLUoCk192ws6Z6/lejo2YlvStK9Pr08+c6Tk6Cz2Z9uYC/I7zw9GHLMWiHLiN7N/ge1tuCesASOBiwIv4ne8fRh51/irF5pb7TC/LZFlXpndgFB8uzw3Fcva7HusW7M2sSOCqsbKb2b6597asAgaHdAwkeMfhd77fxooGSe8OwvqHo/otPokldZL03I7f8b4q+pClGAzEUulm++aeztIGHBXOYZCAVQGf4He+vxx10HloK+BRovsNFluZ3iDsgl83mAqdSSj6AP8m+zf2TJYW4L/COBgSqIvxO89/iz7kvNIPeypsIZrfXQNwHkrElKkY/tfY70UetRS8UuBxsn9Dd1masFa15KaR2A3D5/xuHnnU+SGOpdmOqkzvuqUFS+ctmTkev+P+FkqiJCH4Ndm/kfss84CNAz8qEoT78Tu3v4o+5LwwEXiV7P3mHg//IxYU326wJLBP5FFLwTsIvz6pXFn+hb1ik9yxF35paBdgg1Klw0isUZUL6X2/EvJnLSSX4Xes748+5MKgm0L3BgAfEEJJ1fLqWqpHjKVy0HBKq2pobmiisa6O1iUf0rp8LiQTQe8S4FRUHz5XxLGiLz7dM9/GikWJjdH5KZZGOVfSXs8AtscG5Er3NsOus64ljxux7JfzA4uoiCghRfd+RYA3/36bbcvI/U5k8ISvUDNya4h1bnutWJ1ixaoUiaZVNM56kbqpf6Vu2qOk2pqCCuFK4DGs6Ihk13fwu/m/hso7gz3AHIcN8huZ5VjWNw44Hbgu24HkuKtwv/mvW183f0d6A9C1nYA3CWBu9cBxuzPu+MvYeIcDev23i5elWNOQ+vzP7WuWsOK537H8hRtItTX7hgL2xPjtIDYkzvphU8RcG5cpYA/sDUIxm4DdXPfOdiA9WAWMwcqAy4a+hJVJd70PzcNyLDQGFVCxUQOga48Ah/tsoKSyL9ue/Fs2m3TyBk/73UmlYMGiJC2tnf9769LZfHrfKTTOftknJLDxDNtgNyDJjiux19Wu7gJOCiiWfDQEG5j7XaIZ9d0GlHmsfzPwo4BiKSRxbOT+Th7b+Cbwf8GEU5zUANjQdsA7eBybvkO3YOIvHqZmROYJwFpaYcFnSVLr/fdUsp0lj17E8sne9V7uA77luxFxsiXwHlbsxEU9NsWsGLtxyrE8+j8nmmQvLdgbhpuBKbjXWVhXk+OdgOIqFN/Hil+5ehl7g7D+pVIyoPShG7oa2NF15ZqR49nr8sn0GeI2Pbu0BBIJNngLEIvFqR43iXhZFQ0fPusaHtgrs9uwQkYSrduxNzCuLgP+EVAs+eRwrMDLN3BvPGXiYeBI4K/Ya/xG4FDHbcWxRtudwYRWEPpjx7iv4/pJ4OsUZ0M4UEqc0FkNcLTrylWDRrD7Zf+gYqDf2MHagTHi3ZyZQQeex0YH/sRn86VoHEA2TMJqnLuaA/xvQLHki/FYue1HsFS+YXsPOBD4GjD7C//9Zqx+gKv9sBuWmF/gV6vkz9hbGfGkBkBnR+M4jSheUsaEn95P1aAR3kGUxKFfdfc9EIMP+xV9x3iVE/+uz8qSsVLAt+/mPCCQkaB5oBa4HnttflAE+1sOnIH1R3f1eq0d+G/PfVwNVHpuoxCMwSoxuqoDLgoolqKnBkBnx7iuuMWR51A7bo/AAulf08MghFicYd/6E/EK5zwwY7CnK4nGqfi9+n8OeCigWHJZKXAaMBO7SYQ9TbkduAH7Pfx+7Z+78wxWTMjV5sA5HusXit/iVyfhf4DFAcVS9NQA6FCGYzrJioFDGXPshcEGUxqjqofZsWUDR7DRJK+ugEk+K0vaarG+e1cJ4OyAYsllBwBTsRvxoAj29ww21ufHwIo01zkXGxzo6mfAMI/1890h+FVInAX8LqBYBDUAvmhXHFOrbnH4WZRUuo5n6V51Vc8TEWq/dDolfQa6bl4NgGj8EvcR5GAjpacFFEsu2gL4O5auetsI9vcRNhbjIDLv1/8IvxtQNfAbj/XzWRn+Y1jOBVp7/VeSNjUAOuzuslK8tJxNDwynS72qlx7DeGU/+k04znXzqhIYvm2BH3qsvxIbMFWIaoArsJvwkRHsrw44H+uK8XmV/2uswqCrE4DdPNbPV6dhM5BcPY1lMpUAqQHQYZzLShvveCDl/TYKOhYAyspilPQyUbO/ewNgCH5PptK7a/Hrx74MWBZQLLkijqVC/hC4gPCn9SWx6ZdjsbSxvk+QvoPQYthbhGLKwbIRcInH+kEMwpQuqAHQwamG90Y7eI3G71VVRc/XiapRuxGvqHHdvOqWh+dIbEqZqw+AmwKKJVfsiiVw+TOwSQT7ewNLFXwyfk/t67tj7bZd7Ya9CSgWvwKc+yqxcSHTA4pFvkANgA6buqw0YMtw36SX9pKENBYvpXL4dq6bd/rM0qsK4BrPbZxD4VSSG4EVL3odq2MQtvnA8Vi33qshbD+JnR+fLHRXUBzlnLcHTvFYfzk2jkZCoAZAB6fH6Oph4eYnKU3jDJUPdo4hipSqxehsbHCbqyeAJwOKJZuqsDEMM7D002G/9m7Euk3GYTXiw0wT+2/88tAPx7pACt11+GWcvZj0Z2lIhtQA6ODUACirCbcbvbuMgF9U0sd51pQaAMEbAvjMCW3FRjvnu8OwAX6/xD3layYexwb4XUp01eF+CjR4rH8eVh+iUB2NZUF0NR24JaBYpAtqAJg4DskpYrE48RKfQmFp7COdf1PmnGBMmcmCdwV+DasbyO9qjTsCL2Aj7d0KYmTmP1hRmMOAuRHs74sWYAMLXVVQuNMCK/E7NmA5GnpKziSe1AAwSaAp05VSqSTJ1nCzsybT+Tct9a6bd15RurQzfqV6l2ADpvLRIGx0+1vYDTlsy7GulonASxHsrztX49fw+DqFmZPjXPwagH+n67TMEiA1ADo4VcdrXvlZ0HF0kkyjBdBe5xyDKgIGJ4Y9vfv8pn4OrA4mnMiUYQPiZmNPbGFXGG3FBliOxhociZD315sm/Pvyr6awKrMOw++YtABeaU4lPWoAdFjlstKaBTOCjqOT9jRegLUudn5jvNJ1RdnAN4E9Pdafis1XzyeHAu9i+d37R7C/x7DkSj/B5uPnigfwewuxA/D9gGLJBb4zHK6lczVGCYkaAB2cvnArZ7wWdBydtLb1PJA52bSa5s+cK5V+5LqidFKFXfR8/DfZf5pN1xjsZvwE0eSSmInlkD8cywefa1LAWfidv8spjMRcuwMneqy/GP/fkqRJDYAOTo/yS6b8M+g4PpcCmnspPVL/4bOQdLruJFEDICgX4JdT4QFs4FyuG4A9nb2HX1GXdK3EbqzbYo2NXDYVS3Dkqpb8T/scw74fPtM9LyC33u4UNDUAOjhlmlo1+z+sWfBB0LEA0NICqV5mMq9+817Xzc/BYeCjbGAz/Porm7DpZLmsBKtpMBMbeBfu1Bd7kv4DsBVwPfmTEMl3DMfpOKYkzxEn4FhTZa03gbsCikXSoAZAB+c+vDmP3hBkHJ9rau757t+67GPq33d+A5EPT5z54CqsC8Bn/U8CiiUMXwamADcDG0ewv+ew2RSnYSP988lirF69qzJsIGk+8q10mMIGk6Yz8UkCogZAhw+BhS4rzpt8Jw2Lgh+zsqah5wbA0n9cRirpPE32OdcV5XP7AMd4rL8AGwGeizYH/oZ9T3aIYH8fY1Pi9ie/yx9fj70pcXUgNrgy31yAjf53dR9WJ0IipAZAZ8+4rJRsa+HdW84KNJCmJmjt4cVnw6wXWD3FORNpEs2x9RXHv6rb+fhlkgtDX+wpdjp2Qw5bPZY5cRvgoQj2F7YgMjn+L+F3swRpc/w+cwPFkRY556gB0Nl9risumfIkcx6/MbBAVtd3//SfaFzJp/ee3PsAge5NBsJNYFD4vg/s5LH+q1i++lwRw95mTMfK3YadJTIF/BW78V8BhJtRK1qP41fLYSxwZkCxROEa/L4vv8HehknEiqkmdTriWFavkU4rl5Qx8aK/M3jCIV5BtLbCvEXJLkuZpBKtzPvD4TTMnOyzi5PQYBsf/bAuo6GO6yexqng+JWWDtAtWtGWviPb3Fja6/5WI9pcNWwPv4P4kX4c1BIIsYxyG/bAHClfzsYGPUdVvkC/QG4DOknhM5Ukm2njzquNY+va/vIJYurLrm3+ytYH5tx7te/Nf02V7nwAAFi5JREFUQWG8as2mi3G/+YM1vnLh5j8MuBOLJYqb/0JsjvhECvvmD/ABcJPH+v2wyoa5rASb9ufjXHTzzxq9AdjQRtgUOedMVvHScrY95VpGHfLDjNetq0+xZPmGd/+2FZ+w4PZv0DRvimtY61xK7l9YctkYLPtdxsWj1lqDPdllswumEks8dCHR1KRvxrIFXkHujXkI00BsQOBGjusnsLczbwcWUbBOxaZrunoR2DegWMRBIeWfDkojVtjEOa1rKplg8Vv/YPXcd6jdek/K+qSXJbW9LcWiZanOXfupJCtfvZ0Ftx1H6/I5riGtU4elrC2k/tao3YG93nV1CX79w76OAh7BSrW6NmIy8TfgCOytU77M5w9KMzbI8b8c149j37U7ggooQAOwc+pa6jmBDTLN9S6OgqY3AF3bCMsMOMh3QyWVfRl18A8YffiPqdqo+6EFySQsWJyktdX+nEq0sWbaoyx7+gqaFwY2K+oC4MqgNlaEDgF8Uj/Oxga99ZLfMRTbY/38PvXZM/EOljTo+Yj2l6tKsJLF23ts4xisIZVLrsXOr6tbgR8EFIs4UgOge6cAtwS1sVgszqDt9mXIhK9QO35vakaMo7TP2rLxKViwuI26hZ/QPH8qDTMns2baI7SvWRLU7sFGd++ETVOSzJVhNzWfp/+vAQ8HE07aNsJKDJ9CNG/8lmIpbf9E/tQ2CNv++E27nQuMJ3cyd47DcjW4DnBcjXWlBXqBEwlSHEtMkQprKevTP1U5aHiqtG9tKlZSHtp+sAtxFDXaC9lZ+J0DpxwTHsrWxrzCM+50l1Zs/vqAKD5cHnoQv+P78+hD7tY/8fss50QfskjmRgLLiOYCGuZyacDHpdjU4vc9aAe2izDeA7CBilF9v57Bujake5tjT/Cux7gBv4JTQfkqft+VWUBF5FGLODoMmx6Y7Zu46zIZDfb0dRN+5yC4DFE9W1emN6rv1gzyM21ttlyO3/G+O/qQOynHzrnPZ3AdECmSNWeQ/Ru5yzITGBzC8Sgm22Cj113PwQrcp4Glqxp7y9PsEWcmy0osjbGe5DJTjeVCcD3uSWDvyKPucF43caW7RN0NJhKYq8n+DT2TZSFWqlb8PI3feTgjxNjiwLexqVRRfKcSWBKjISF+pkJ3En7n4C2yk8BtMLDKId51SxvqJpI8FsMGOWX7xp7OMgdLNiN+jsLvPLwHlIYU2z7Y9LKovlPPAzuG9FmKSQx4Hb9zcVLkUduMKJ+YfTMGiuSEs8jtMQHvASNC+/TFowIbsORzLg4OIa4R2FN4VN/B+dhbBk0ZDs7u+J2/RViq4KjsiA1kdY13OTaQVqQgHIX1g2b7Zr/+8heivTAUsgvxOxePBBxPHyyFc6NnXOku9djUs6qAP4eYu/A7P5dHGOsLnrGeGmGsIpHYHP9XeUEtTcCPwv24RWUYlrPf9Xy0AFsGFEsMOB57Eo/iu5QE7gGGBxS/dG04ft+xJmB0BHEe4xFjCkuepVlIUpDiWDpLn8ExvsuzWGYuCY7v09lvAopjZ+Alz1gyWd4iu6PMi81F+J2vB0OOrwobT+QT46SQYxTJuk2Am4luGlYKqxB2RBQfrsjsRvb7Z4cCt2Oj7qP4Ln0KfAeVB49aJf432P1DjO8XnrHlWv0CkVCNwEa7hpV+NYmV0DwMDcoKQwx4Fb9z9D2P/Vdg8+vrPGNId2nGSvTWeMQsfo7G7xyG9Yp9BDYOxDWuJqybVKToVGA/7Ifwv5gnsR/5xUTT51fMTsTvXPnM0T4C+Mhz/5ksDwFbOMYqwXoOv3MZxvifezxj+nUIMYnknVJs2s/5WN/y69i0mO6eyGYBjwPXAMeiTH4++gAbYznUB9LziPZqYAF+DbW9HGLcBsuQFtWN/12sVoDkjh3wm2a3FPt+d6dy7d+PxLorB9Jzfoo98esGW4j9nkSkB/2x0cC1WJ5tcbMZ1od9I3Yz/YTuL2BLganAvcBPgD2wi+H/dPPv013uzzDm2rXx+qQZzmRZBpxGeImJxM/N+J3f67CugInAudjDxhSs5G5X/74du1G/DPwBG8w8BnuD9YZnLCcGfGxERDrZDntLEsRr81X4DeBswJ6u0lGKpQfu7i1Q0EsbcD1KxJLrNsYvt0grwYw9Wuy5/mtofJKIhKAUe7qIMgVuOsslacY/CcvUGFVcTwHj04xNsu9ssv9d9lmS2CwaEZHAxLHR9bPJ/kVu/eUTbKxBT7YEHo4wppnYTBHJL2XAB2T/O+263BX8IRGRYrYj8ArZv7h1txzXQ+x9sTK9TRHFUr92fyrTm78OJPvfaZdlDZZBU0TEWwmW+95ndHTYy0t03d+57o3FZxHFkQD+hMr0FoonyP53O9PlwlCOhIgUnU3wnxsdxU135y5i3wt4M8I4XgImpH9oJQ+MxepJZPs7nu7yMTbVUETEyzisXz3bF7XellvXi3s40ZbpXYDK9Bay35L973i6y1EhHQMJmeYESy6ZiL3+3CjbgaRhydr/rcLyCZxP74MBg9AIXA1ctfb/S2FanO0A0pQgf2IVkRy1PX7zoLOx3EZ0byuSWLKhdPMNSP46k+jeJAWxrAJ2CeVIiEjBG41VpMv2hSxXlymoTG+xOJroqkAGuSxHZclFJEN9gffJ/gUsF5dFwMmoTG+xmIB162T7e+e6TEeVJUUkA3eQ/QtXri0tWB9/P/fDKnmmP9FWgwxreQgNTBWRNBxPiBejsqo+qb4bD0n12WREKlbdP9sXxnSXR4GtfA+s5J27CPF71b+8IjWiuiY1pKIy1SdeEvZ3+DvBHx4Jg1pqki0DgBkEmLym/8hRjDvsaDbdez8Gb7MDNZsM//zv5tW3888Zi2ifO4P2aa/S9uqTtE97FVKpoHbvazrw38DT2Q5EIjeJgM/7nkOH8dVRo9l3+AjGDxzEgIqO5JBr5n7CnPnzeb+pgVfWrOaJlcuY09Ic5O6XYzUolvT2DyW71ACQbPk9Vp7W22Z778ceZ1/IqH0OgFj3X+l3lrfw2uKOC13y07k0P3AjLU/cDW0tQYTiYiWWvvcmLOuhFJdSbAzMGN8NlZeU8O2x4zlvp10YO2Bgj/921YyZtKxa9fmfX12zmusXLeC5upW+YaxzN5anQnKYGgCSDVtiT/8lPhvpN3wkk664ga0OOSLtdV74tIkZq1o7/bfkwo9pvPZc2t56ziecTLUDtwAXY09MUpxOBf7gu5EvDRvBzV8+kK0Hplf1OdWeYMV779Pe3PnJf3LdSi6YN5t5/m8EEtjU3um+G5LweF2ARRxdiee84dEHfIXjHniKIdvtlNF6w/uWMnN1G23Jjlf/sX4DKZ90HLGKKtqnvhhFt8Bk4GvAn7FCQVKcyoAH8RjsGQMu2XUPbj/gYAZXpZ+HKhaPU9a3L01Ll3b675tXVHHcoMHMbm5iVrPXVzMObAz8zWcjEi41ACRqw4Hb8fjubXfcSRzxx/sp71ud8bolsRjVZXE+rmvr/BexGKXb7U7JZmNp+/c/IJlwDa8nH2PT+n6G+kcFvgF813XlkliM2w84hLN32Jl4D11f3a5fUU6ytYX2hs4JJSvicQ6r3Zjl7W283VjvGh7A1sC9WDeX5CA1ACRqZwAHua487ohjOez3dxMvcf/qDqwoYXFjgrq25AZ/VzJqHCXDN6ft5ceDfBNQD1wCnAi8F9RGJe/9AdjUZcUYcPN+k/je1tt6BVBWXUPz0qWkkp1/CzHggP61LGht4f2mBtfNx4A6rLCX5CA1ACRqt+KY63/jrbfj2PueoKSs3DuImvI4H65q6/LvSkaPh/Y22qe94rubFPYK9EisxkEorxUkL40CrsFxHNZZO+zMRRN28w4iVhInlUjQtmbNhn8HHNi/lpfXrObTVudBsqOB67HfguQYZRiTKE3AMV1oSXk5R976F0orqwIJZJM+pQyq6L79W/WdCygd11W137TNAnYHjgXm+WxICtI3cbz5b1M7iKv22CewQKoGD+7278piMW4cNYaquPOtYgSwp+vKEi41ACRKk1xX3PXUcxg0ZusgY2F8bQ9vEkpKqTr7mh6nFfaiAXjDdWUpeAe7rnjjl/an3KMLbH0lFeVUDBzQ7d9vVlHJmUO9alA5/+4lXJoGKFF6Cof+//LqGk6bMpfKNKc4pas1meLOD+tI9vBysv6i421QYOaSwElYWl+RL4pjmf8y7svab/hIJh95TOABtaxYyaqZs7r9+/pEgl3ee5NV7U6pKl4D9nCNTcJTmu0ApGjEgb1cVtz2mBMDv/kDlMdjDKosYWlT913zlUf/yLUBEMeSoYgE5qwdvLqlulXWr+caPtUlJRw/aCg3LV7gsvldgArUGM456gKQqGyGVf7L2DbHnBBwKB026dNzG7h0h72IDx7e478RicKgykoO3WzzULYdLy2ltE/P42uOHrSx6+ZLUX2LnKQGgERlrMtKlf0HMGyniUHH8rmhfXrpS43HKdt1/9D2L5Ku/UdsSpn7YLxeldX0/BZgfFVfNnGfgeM0+FfCpQaARGULl5WGTdidWIADntZXW977tku28Z9uJeJrz6HDQt1+aWVlr/9mQrVz0sItXVeU8KgBIFHpfphxD4Ie+b++6vLex8GWbKq3l5J940IYB/NFJV+oGNidrdyn4fZ3XVHCowaARKXn94vd6Dt4aNBxdFISi1HSSxsgPijcGETSsUkfpyE0aYuV9v42bLB7F4DT71/CpQaARMXp6lWWQYETV6XxnlsAscrwYxDpTZ/ScCdtxWK93w76xp2749QAyEFqAEhUnKYAJVrCnznUvmFJgE5S7mlQRQLTEk6Bqs+l0sjW25Ts5cfSw6quK0p41ACQqGyYbDwNTatWBB1HJ8kUJHop+pOqCzcGkXQsb24OdfupRO8NjFWJrutnpMGrrKCEQw0AiUqdy0orZ88MOo5OGnp7/AcS8z8KNQaRdMxcFW5V3WRra6//Znaz84O80+9fwqUGgETFqSDOp1PDTadf15pGA+DDqaHGIJKOKUsWh7r9RBpvGN5ucH6Qn+u6ooRHDQCJyocuK9UtmMfKOeE9gS9q7P21Z9uU50Pbv0i6/rUg3KKSrXU939wXtbUyq7nRdfPhvsoTJ2oASFRmAU6jmKY/dH/AoXT4rLHn4iaJeTNJfPRuaPsXSdfs1at4Y/GiULadSiZpb+z55v7IiqVpDBPsltMDgIRLxYAkKi3AVKwwSEam3Xsbe/z4AuJlZYEGlEzB4h4KAQG0PHq7zy4eBpxHTUnBigFfx6Ea683vv8PEIcHnpWhbU0+qhxH+SeDuZc6Njw+AcAcwiBM1ACRKk3FoAKxe8AnvPnAXO3zr5ECDmVffRnsPtYCTyxfR+vidrpufA3zNdWUpeNOA7TJd6Z4PP+AXu+zO5v2CTazXvKLnmS6PrljKR+4DACe7rijhUheARMn5QvDi5RfRvHpVkLHw/sqeRz033XwxKfeL3lOuK0pRcPp+tCWTnP3y84EGkkomaF62vNu/b0wm+NXCuT67UAMgR6kBIFGaDCxzWbFh6WKePv+0wAKpa02ysL77/v/WFx+l9ZkHfHbxd5+VpeA97Lrio3Nmc+eM6YEF0rRkWY85AC6eP4eF7smw1gBPuq4s4VIDQKLUBjiP6Jv+0P28+cfrAglk2vKWbgc0JeZ8QOOVZ/hsfgHwrM8GpOC9gg2MdXL6i8/yVhDTAlMpmhZ1v517ly3iHve+f4AHAeepAxIuNQAkanf4rDz5knOZdv+fvQJY0ZLgg1Vdv/5PLphN/U+/TqrBK2/JnTjOeJCikQKcv8gNbW0c+vhDvLvc6YVax3Y+W0R7N/P/H1u5jPPnzfbaPp6/dwlXeIXWRbr2GbAPMNpp7VSKWU89SklZGSN32xtimQ2kTgFPz2+kvm3D5//2915jzXlHkVrh9WTVDHwLpT6V3k0HTgN6r8Pbhcb2du6fNYNdBw9ltMOgwERrK6tnfQRdpMK+dcmnnDfvo17TZPfideAXPhuQcKkBINkwHzjJZwOfvDSZz95+k0332JeKmn5pr/f+itYNn/7b22i+7zoarjgNmrzv27cCf/HdiBSFJqAW2NN1A82JBPfO/IC2ZJI9NxlGaTzNl7qpFHWzP6a9sfMg16VtbZz1ySz+uHihz5z/dX6EEgDltIznoYoE5F/AAb4bKe9bzW6n/4QJ3z+TygEDe/y3nzW288QnDSTWXdmSSVpfeozm2y8n8UkgeUrWAGOxtxwi6RiE3SRrfTe0Zf8BXDpxD76x1ThKenkzVj9/AQ0LP+34cyLBHUs/44ZFC1id6Dk5Vppewxo2AbQjJCxqAEi2bA28DZQHsbHyvtWM/erXGXvY0Wy6576UV3cuP17XmuTvc+ppbmunfeY7tL36FK3P/IXkp3OD2P06FwJXBLlBKQpnADcEtbFNa2o4Ycx4vjpqNLsOHrLBW4HmZctY/dHHNCYTvFZfxxMrl/P4ymVB3fjBxr/siiX+khymBoBk0+XAz4LeaLy0lP6bbk7tFmOoqOlHIl7K/KWraflsHsn5s0g1NQS9S7DELhOxjIcimSgFXgJ2D3rDfUpLGTuwllE1/aguK6etuZkVq1cxu7mJeS3NtPn18XfneuCsMDYsIoWjDHgVe02Yz0szsH3Ax0aKy2isZG62v8u+y3tAn4CPjYgUqNFYnvBsX7h8lh8GflSkGJ1I9r/LPks91rUnIpK2rwCtZP8C5rL8PoTjIcXrKrL/nXZZ2rECRyIiGTsRKzqW7QtZJstDqKCWBKsEuJfsf7czXX4UxsEQkeJxBjaCONsXs3SWxwloBoPIekqBv5L973g6SxK4IJzDICLF5ihsUF22L2w9LQ8AlWEdABHsTcDvyf53vaelHfhBWAdARIrTAcBisn+B6+pp55do+qxE53zsRpvt7/76y3Lg0BA/t4gUscHA02T/QrduWYIueJIdX8IqTGb7N7BueRPXWh4iImkqAc4GVpPdC97dWINEJFsGAbeR3YGy9Vh/f1nIn1VE5HPDsJtw1AME3wL2j+DziaRrb+AVov0dJLBxL5tG8PlERLo0BquhHnbOgFeBI1Bfv+SuQ4EXCPd30I5NSdwmos8kItKrIViu8SkEd7FbCNwI7Bjh5xDxtQ1wHTCP4H4L04DzsDdvUsD0hCP5blPsNf3+wC7AFqQ3P38RNpjpNaw08ZvYxU8kH8WAnbEZNHtghanSuYG3AR9jjenJa5c5IcUoOUYNACk0pcAoYARQDdRgDYJGbDDhIuwCtyZL8YlEpS82Wn8oMACowl7rr8EG9C3Efgtt2QpQRERERERERERERERERERERERERERERERERERERERERERERERERERERERERERERERERERERERERERERERERERERERERERERERERERERERERERERERERERERERERERERERERERERERERERERERERERERERERERERERERERERERERERERERERERERERERERERERERERERERERERERERERERERERERERERERERERERERERERERERERERERERERERERERERERERERERERERERERERERERERERERERERERERERExMf/AwI/I5E20r1TAAAAAElFTkSuQmCC;" vertex="1" parent="1">
          <mxGeometry x="860" y="456.25" width="70" height="70" as="geometry" />
        </mxCell>
        <mxCell id="HCuMxB1ecjVolzXwdw-D-51" value="" style="shape=image;imageAspect=0;aspect=fixed;verticalLabelPosition=bottom;verticalAlign=top;image=data:image/png,iVBORw0KGgoAAAANSUhEUgAAAgAAAAIACAYAAAD0eNT6AAAACXBIWXMAAA7DAAAOwwHHb6hkAAAAGXRFWHRTb2Z0d2FyZQB3d3cuaW5rc2NhcGUub3Jnm+48GgAAIABJREFUeJzs3Xd0FFUbx/HvlvTeE5JA6CX0XqWrIIIgiKioqNgLFvS1gth7wYZYEAsq2EUUpDfpvSdAICEhhCSkly3vHwFFpCQzszu72edzDicY9t75EWLm2Tu3gBBCCCGEEEIIIYQQQgghhBBCCCGEEEIIIYQQQgghhBBCCCGEEEIIIYQQQgghhBBCCCGEEEIIIYQQQgghhBBCCCGEEEIIIYQQQgghhBBCCCGEEEIIIYQQQgghhBBCCCGEEEIIUTsZ9A4gxFnUAZoDDYBwIAgw65pICCH0UQgUA4eBPcBeoEKLjqUAEK7AB7gMGAr0BerqG0cIIVxWCbAKWADMoqowUEQKAKGneOAB4Eaq3ukLIYSoPhuwCHgFmF/TxlIACD2EAE8Dt1P17l8IIYQ6a4H7gL+q20AKAOFsQ4EPgDi9gwghRC1jAz4EHqTqUcF5SQEgnMULeJmqClW+74QQwnF2AKOAXed7kfwgFs7gD8wGBusdRAghPEQ+VSOuy8/1AikAhKMFAH8APfQOIoQQHqaUqiLgz7P9oRQAwpG8gJ+AQXoHEUIID1VI1fLqDWf+gdH5WYQHeQ25+QshhJ6CgLlA7Jl/IAWAcJThwN16hxBCCEEMMIMzRv1NukQRtV0wMI+qylMIIYT+GgFpwOZTn5ARAOEIzyPr/IUQwtW8zGm7rsoIgNBaIvAZ8r0lhBCuxh8oB5aAjAAI7U0EvPUOIYQQ4qzupeoxrSwDFJryAzKp2utftXoNG9G110XE1InHz89fiy6FEEJX1kqwV/O1NquV4znHSNmzk3WrllJZockpwAC3AtPljHWhpWFocPPv3qcvE59+jradumgQSQghXIfVYsCi4D5ecCKfGe+/wafvvU5pSbHaGGOB6TICILQ0C7haaWOj0ciDk57hjocewWCQb00hRO1UUWrAXt1hgDPs27WdO64bRnraATURbEC0/JQVWjEARzjLZhPV9cgzL3D7gw9rl0gIIVyQpdKAtVJ5+yOH0xg1sAvHc7LVxBgpkwCFVuqj4ubfa8BAufkLITyCyaTw7f9JdRLr8cybH6qN0UMKAKGVZmoaPzzlea1yCCGESzMYQe1Tzn6XDqV9F1VnrDWVAkBopbHihs1b0LJtey2zCCGESzMY1I0CAAwdda2a5o2lABBaCVXasGuv3lrmEEIIl2fQ4O7buUcfNc3DpQAQWlG8739sfIKWOYQQwuVpsdApto6qn51BUgAIrXgpbegfEKBlDiGEcHnqHwCAf0CgmubeUgAIIYQQHkgKACGEEMIDSQEghBBCeCApAIQQQggPJAWAEEII4YGkABBCCCE8kBQAQgghhAeSAkAIIYTwQFIACCGEEB5ICgAhhBDCA2mwG7HwEAagBdAHaAk0BcL55wyACCBEScdh4REEhShqKoTQkH9AIKHhYTRo3JSmyS3pelFvGjdPxqDFxvXiXyyVYK1U/3VtFqn8fbz8q4oLaQbcBFwDxOucRQjhZDFxdRh61dWMun4cjZu30DtOrSEFgHBlbYBJwDDkUZEQHs9gMDDgssuZ8MQkWrRuq3cctycFgHBFgcCzwN2ASecsQggXYzKZuHb87Uyc/CyBwcF6x3FbUgAIV9MC+IaqZ/xCCHFOCfWSeOfzWbTp2FnvKG7JFQoAGdoVpwwA/kJu/kKIakhPO8hVA/sw78fv9Y4iFJICQACMBH7jnxn9QghxQRXl5dxz/Rh+/vZrvaMIBaQAEAOALwEvvYMIIdyP1WLhwfE3suzP+XpHETUkcwA8W11gI1Vr+IUQQrGAoCB+WbGW+o2b6B3FLcgcAKEnE/AtcvMXQmiguLCQ+268DovFoncUUU1SAHiuu4EueocQQtQe2zZtYMZ7U/WOIapJHgF4pghgPyCLeIUQmgoICmLZjn2ER0bpHcWlySMAoZd7kZu/EMIBigsL+eSdt/SOIapBRgA8jw+QgTz7F0I4SHBIKGv2p+Pr56d3FJclIwBCD0OQm78QwoEKTuTz59xf9I4hLsCsdwDhdKPUduBtNDG2XmdGJLSjfmAE3kY5MkAIV2IvqoC8khq1qbRbOViezw95u5iZs5lyu7rZ/L99P5shI69S1YdwLHkE4FkMQBYQrbSD5OA4vusxniZBirsQQjiBPS0PbDZFbVPKcxm572u2lR5VfP3QsHA2HD6K0SgDzWcjjwCEszVCxc2/QUAki/veJzd/IdyAwV/55p6NfMJZ1GwcjX2VPy3Mz8slZc8uxe2F40kB4FmaqWn8QccxRPoEapVFCOFA9gBvVe3DzX58mDRMVR+pe/aoai8cSwoAz9JAacOWIXUYENNUyyxCCAcyeKmfm3NRUD3a+8cpbn9of6rqDMJxpADwLCFKG/aLlv29hXArZm0m5/YNVvy+gcKCE5pkEI4hBYBnCVDaMNZP9g0Swq0YAKP6SWbx3spPCS8uKlJ9feE4UgB4FsX/3maDLPUTwhOZDcpvEzaFqxCEc0gBIIQQQnggKQCEEEIIDyQFgBBCCOGBpAAQQgghPJAUAEIIIYQHkgJACCGE8EBSAAghhBAeSAoAIYQQwgOZ9Q4ghN7KrJVklhWQV1FCpc2KDTvBZl+CvXyJ8wtRtRFKbVVps5JfWUqhpYwTFWUUW8vxM1WdPudv8ibeL5RgL1+dU2qv3GbhcEkelTYrdfxCCPHy0zuSEIpJASA8SrGlgtXHD7Ds2D5W5exnX9Ex0kvysWM/6+u9jCbq+YfTLDiGzuFJdI9sQPeI+vialB+16m5OVJay9FgKq3JS2VOYze6Co+wvzqHSZj1vO3+TN02CokkOiaNNaAK9IhvSIbyuWxZUczO38/beJSw7lkK5zQKA0WCgTWg84xv05Kb63fA2ym6Zwr1IASBqvTJrJXMzdzDr0Hp+y9xBmbWy2m0rbVZSio6RUnSMX49sByDA7M3AmGZcmdCO4Qlt8DepO3bVFe0rOsaXB9cyL2snG/MOY7XXfEvXEmsFm/PT2Zyfzpdp6wAINPtwaWwLRiS0ZUidlgSafbSOrqkyayW3rPuSrw6t/8+f2ex2NuWlc+eGr/lo/0rmdL+FpIAIHVIKoYwUAKLWKrNW8l7qcl7cNZ+ccu0OJSm2VPBjxlZ+zNhK8EZfxtbrzANN+1PfzX/4l1or+TxtLTMPrmFVzn6HXKPIUs6c9E3MSd9EkNmXa+t15PaGvWgdGu+Q66lhx841f33KjxlbL/jajXmHuXjpO6we8BAR3orP3BLCqaQAELXSDxlbmLBpDodL8hx6nYLKMt5NWca01BVcldieic0G0sYFb2bnU2gp4/2UFbyxdyFHywqdet0PUlcwLXUlQ+q05IkWl9IpvJ7Trn8hnx9cW62b/ykpRcd4bOvPTOs4xoGphNCO+z2ME+I8yqyVTNg0hytXTnf4zf90FruNrw6tp/38Fxm9+mMOOfHaSlntNt5NWUb9X5/if1t/dOrN/3R27PxyZBtd/3yV6/6aQXppvi45zvTanoU1bvPJgdVkl+vzdRSipqQAELXG8Ypiei16g7f3LdEtgx07sw9votXvz/HanoWKnp07w7rcNLr++Sr3bPyW3IoSveMAVV+7rw6tp/m8KbyTsvScEzOd4UDxcbadOFLjdla7jd8ydzggkRDakwJA1ArHyosYsORtNuQd0jsKUDW8PXHLD1y06A0OFB/XO87frHYbk7fPpdvCV13ma3WmYksF926czYAlUzlSekKXDHsLs5W3LVDeVghnkgJAuL0yayWXLX+PLfkZekf5j9XHD9BpwUv8kbVL7yhklp3g4qXvMGXnPGx2/d5dV9fi7L10XPASS7L3Of3aR8sKFLfNUtFWCGeSAkC4vXs2fsv6XNd8NwuQW1HC8JUfsvSY829kp2zOT6fj/JdZnL1XtwxKZJUVcMmyd/j0wF9Ova6a8kjPRxdC1IQUAMKtfX1oAx8fWK13jAsqs1Yybu0XFFsqnH7tJdn76Lv4LTLL9BlOV6vSZuWWdV/y/K4/9I4iRK0iBYBwWyXWCv639Ue9Y1TbweLjfHlonVOv+euR7Qxe/h4nKkudel2t2bHzxLZfeHbn73pHEaLWkAJAuK2Xdi1wi+V2p/vu8CanXWv5sVRGr/64Rjsfurqntv/K1H1L9Y4hRK0gBYBwSyXWCt5Ncb8bgZKlZUpsP3GEK1ZOo7QW3fxPeWDzd8zL3Kl3DCHcnhQAwi19lbbeZdav10TFyYNkHCmnvIjBy94jzw2/PtVhtdsYu2YGKUXH9I4ihFuTrYCFW/o8bY2m/fmbvEkKCMfP5M2JylIqbBbSS/M1Xy4X6xusaX9nstnt3LB2ptN20wv39ifKJ4gwbz8qbTaKLOUUVJY5fMJhbkUJV6yYxqr+D9XKY4eFcAYpAITbKbSU8dfxg6r7aRAQyS0Nu3NZXEtahsRhwPCvPy+ylLM5P52VOfuZfXgjG/MOq75mz8iGqvs4n5f3LHDY8Li/yZs+0Y0ZGNucdqEJtA6NJ9TL76yvzSkvYnN+BiuOpTAnfRM7C7I0z7OzIIuHt/zAB7L3vhCKSAEg3M6yYykXPIv+fLyMJiYnX8bDzQZgOs/Z9IFmH3pGNqRnZEMeaTaQPYVHeWvvYmYcXKN4Yt34hj2Uxr6gnQVZTNo+V/N+e0Q2YHyDHoxKbI+fyatabSJ9AhkQ05QBMU2Z3PIytp84wht7F/FF2jpV/3Znmr5/FdcldXZ4YSVEbSRzAITbUbPjnwEDH3W6lkebX3zem//ZNA2K4b0OV5N62WTG1e+K0WC4cKPT3FS/Gx3C6taoTXXZsXP3xm80vbn2iGzA4r73sbzfA1yf1KXaN/+zaRlSh487XceeQU9xdd0OmmW0Y+f29bOo0PDvLYSnkAJAuJ2DKvbWv7xOS8bW66zq+nG+IXzc6TqW9J1A/YCIarXpE92Yt9qNUnXd8/kybb1mW+YGe/kyreMYlvW7n95RjTXp85SkgAi+6jqOH3rcSpxviCZ97izI4uXdCzTpSwhPIgWAcDtq1v7fUL+rZjl6RjZk8yWPcnvDnuccDTAbjDzYtD9ze91JgNlbs2ufrsJm5YltP2vSV8uQOmy8+H+Mb9DjP3MitDQsvjXrBj5Mx3BtRkRe3DVf9uAXooZkDoBwO2qO2K3rH6ZhEggy+/Jeh6uZ2Gwgsw6tZ2PeYQoqSwn18qdTRD3G1O1Igl+optc80+dpazXZEKl/TFO+7zGeILNzZtXX8QthSd8JjFn9Kb8c2aaqrxJrBS/vXsDrba/UKJ0QtZ8UAMLtGFW8M91XeMwhz+HrB0TwWPNLNO/3Qqx2Gy/vmq+6n95Rjfmp5234mxwzSnEu/iZvvu1+M5cvf58/j+5R1deHqSt5vMWlRHgHaJROiNpNHgEItxOkYt33OylLVY0guJpfjmxnn8oNcRoFRvF9j/FOv/mf4mM0832PW2kflqiqnxJrBR/vd/2DoYRwFVIACLfTODBKcdtVOfsZt/ZzDrvZGQLn8vlBdRsi+Zq8+L7HeMK8/TVKpEyg2Yevu92kelOfD1NXaJRIiNpPCgDhdhoHRatq/0XaOhrOncSoVR+xOHuvRqmc73hFMXMzt6vq48kWg2gZUkejROo0CozinfajVfWxvzhHkw2bhPAEUgAIt6PF0jSL3cZ36Zvpv+Rtms97hrf2LaHIUq5BOueZfXiTqvXvjQOjeKhpfw0TqXddvU70iVb37/tD+maN0ghRu0kBINxOw8BImgfHatbfnsKj3L9pDom/PMHdG791m3eQ87PUbfn7dMsheBlNGqXRzuttr6zxJk2n+04KACGqRQoA4ZauTGireZ8nKkt5L2UZHRe8RMcFL/F+6nJOVJZqfh0tWO02lh5LUdy+nn84oxLbaZhIO21DExgW31px+92FRx1y9oAQtY0UAMIt3dWot6qtaS9kY95h7trwDXE/P8bo1R/z59E92NH2ZEA1Nuenqzru95aGPVS9y3a0uxpdpKr9omx1SwqF8ASu+xNAiPOI8Q3ipvrdHH6dMmslsw9v4uKlU2n5+3O8vncRx8qLHH7dC1mj8jTE0YnttQniIH2jm9A0KEZx+7UanBYpRG0nBYBwW5OSBxPrG+y06+0qyOKhzd+T+Mvjuo8K7C3MVty2RXAsjVQspXSWoXVaKW67wU3mcQihJykAhNuK9Alkmg5nwVfYrH+PCrSb/yKzD29yeiGwu/Co4ra9ohppmMRxLo1robhtatExLLVowychHEEKAOHWLq/Tivub9NPt+lvzMxi9+mO6/PkKfx0/4LTr7lMxAuCoI4m11i2ivuJ5ChU2KwdUnBophCeQAkC4vVfbDnfKfIDzWZ97iB4LX+eWdV86ZeWAmnkI7jD8D1W7FFb3uOWzySw9oWEaIWofKQCE2zNgYFrHMYxv0EPXHHbsfHJgNe3nv8iqnP0Ou47NbqfEWqG4faLGJyI6kpr9HrLLCzVMIkTtIwWAqBVMBiPTOo5hRuexuh1qc8qB4uP0WfwmHzhoX/piazk2u/I5B2r323emEBVZCyvda2dHIZxNCgBRq1yf1IXVAx5SvZ2sWha7jTs3fM2zO3/XvO8SS6Wq9j5G9zkFXE0xV2GzaJhEiNpHCgBR67QKqcOiPvfx14CJXFuvE946bnf71PZfeWHXfE37NBvV/W9bZlNXQDiTwWBQ3NbmQhs3CeGKpAAQtVbn8Hp83uUG0oY8ywuth5HgF6pLjse3/cyMg39p1p/ad/DuNDSeXab8OX6Azo+ChHB17jMWKIRCMb5BPNJsIPc36cec9E1MS13O8mOpTs1w94Zv6RBWl1YaHL3rZ/LCZDBiVbjO/VBJLg0DI1XnqIn00nx+ytjKprzDFFrKiPAOoGtEfYbGtybUy++c7bLKChRfM8iN5joIoQcpAITH8DaauKZuR66p25E9hUeZceAvpu9fSa6KPfWrq8RawfVrPmPtgIdVn8BnMhiJ9gkis0zZMrfUohz6RjdRlaG6yqyV/G/rT3yQuvw/Rxd/kLqCUC8/Hm9xKQ807YeBfw/32+x29qjY8MiZu0QK4Y7kEYDwSE2DYnih9TDShjzL9E7X0jUiyeHX3JKfwXupyzXpq45fiOK263LTNMlwIQWVZfRd8hZv71vyn5v/KfmVpUzc8gNjVn/6n9fsLMhUVZzVdaPljkLoQQoA4dECzN7cXL8bq/o/xM5BT/JIs4HE+AY57HrP7/ydQkuZ6n6aBkUrbrsyxzmPP8au+azahxZ9e3gjo1d//K8iYJmK4479Td7E+SovkoTwBFIACHFSs5OjAumXP8f83vcwKrEdZo2PzD1WXsTnB9eq7qdFSJzitjsLslQdJlQdczO388uRbTVq81PGVoavnEb5yeV7sw6tV3z9NqHxGFWsIBDCE0gBIMQZTAYjA2Ka8k23m0m97Gn+1+xiIrwDNOv/4wOrVPfRLjRRVfvZ6ZtUZzifD1NXKmo3L3MnV6/+hG0njrAqR/nZCm1DExS3FcJTSAEgxHkk+ofxfOuhHBzyDJNbXqbJLoOb8tJVH1TTI7KBqtGJj1JXKl5FUB2Ls/cqbvtTxlb6Ln5T1QmLF+m8EZQQ7kAKACGqIcDszVMtBrHh4kdoF6b+3eX8rF2q2gd7+dI+TPkoQFpJLrMPO2YU4ERlKUUWdXsNqJn8Z8BAPyetchDCnUkBIEQNNA2KYUnfCaq3Gt6Ud1h1lsvjW6tqP2n7r1SeY3a+Gr4mr/8s6XOmLhH1iPIJ1O36QrgLKQCEqKEgsy/fdruZeBU7C+4qzFKd48qEtqra7ys6xqt7FqrOcSYfo5l6AeGa91tdVyV20O3aQrgTKQCE20otymFO+iY+3L+Sn49sU7wxjhKRPoHc16Sv4vbZZUWqMzQLiqFDWF1VfTyzcx7bTxxRneVMw+q00rzP6jAbjFyV2F6XawvhbmQnQOF25mXu5Kntv7Ih79C/Pm80GBgY04wXW19Bm9B4h+cYGNNMcVu1z8hPua1hT25d/5Xi9mXWSkasnM6aARMJ8/bXJBPAA037M23/Ssqszj14aHhCG1WbJAnhSWQEQLiVR7f+xJDl7//n5g9VW8f+kbWLTgte4tMD2h2+cy5q1pmbNFqjPqZuR8JV3rhTio4xYuV0SqwVmmSCqtUTU9tfpVl/1XV3oz5Ov6YQ7koKAOE2ntv1By/tXnDB5WEWu41b1n3JtNQVDs3ze9ZOxW1DznMATk0EmL2Z0KSf6n6WHtvH5cs/oKBS/S6Fp9xcvxuTkgdr1t+F9I5qTK+ohk67nhDuTgoA4RZ2FWQxZcdv1X69HTt3bfyGt/YtcUieMmsl01KUFxiJGu5Tf0/j3qpHAaBq7X6Pha+RWpSjQaoqk5IH85STioApLYc45TpC1BZSAAi38Pa+JTVesmaz27l/0xzGrvlM8xP/Jm2fy/5i5TfK5GDlW/meKcTLj8ktL9Okrx0FmXRY8CIf7l+paiOe0012QhEwPL6NvPsXooakABBuoab7yp/uy7R1JP/+DB/uX6nJuvc39i5SvXyuU0Q91TlOd3vDXrQKqaNJXwWVZdy+fha9Fr3B0mP7NOnTkUVAgNmbN9qNdEjfQtRmUgAIl1dsqSCztEBVH0fLCrl9/SyazpvCK3v+JLu8sMZ9ZJcXct1fM3hw8/eq3h17GU30j26quP3ZmA1GPu50naaHF63K2U/fxW9x0aI3mHlwDaUqZvQvP5bK3sKjDjmgJzk4jljfYM37FaK2k2WAwi1oNRx9sPg4j2z5kce3/kzPqIYMikuma3h92oUlEGj2+c/r8ypKWJmzn+/SNzH78CZNZsr3jW6i6ZK7UzqG1+Wx5pcwZec8TftdkZPKipxU7tzwDX2iG3NxbHPahSbSKrQOoeeYzJhWksvW/AzmZ+3it8wdqs8+OJ+1uWlcteojvu1+C95Gk8OuI0RtIwWAcHn+Zi8ivAM4XlGsWZ8Wu40l2ftYkv3PEHekTyB1/ELwMpiosFk4WlaoaKTgQm6u313zPk95InkQK3JSWaTiMJ5zKbFW8FvmDn7L3PH35yJ9Aok6+avEWkFBZRlZZQWariaojp+PbHOZImB+1m4uXjr1rH9WYq2k3Gr5z+dNBgPRvkG0DolnZGI7Oc1QOIUUAMLlGTDQL6aJww6vOSWnvIiccvU79J1P/YAIrlC5h//5mA1GZnW7iU4LXuJQSZ7DrnPKqa+ZuqONtOEqRUBm2QnFu1L+emQ7L+yaz4iENnzQcYymx1ALcSaZAyDcwj2N++gdQROPt7gULwffnKJ8Apnb606HPGZwdT8f2caNa2dq9shID3bsfJe+ma5/vuLU7a2F55ECQLiFnpENGd+gh94xVOkQVpcbkro45VrJIXH81PM2AszeTrmeK/n60Abe2bdM7xiqpRblMHLlR9js7lvMCNcmBYBwG2+1G8nFsc31jqGIt9HEhx2vwaThLP0L6RnZkN963UWQ2ddp13QVz+ycR7FFu62N9bL6+AG+OrRe7xiilpICQLgNX5MXP/a4lUFxLfSOUmMvtRlOuzDnT+zqFdWQ+b3vJtonyOnX1lNOeRHzj7rCzAT1ZhxYrXcEUUtJASDciq/Ji+973Mrw+DZ6R6m2cfW7cp+Ocxi6RCSxasCDNA+O1S2DHtYdT9M7giZW5KTKYwDhEFIACLfjYzQzp8ctTGk5xCEby2hpSJ2WfNBhjN4xaBAQyV8DHmJM3Y56R3EaNctGXem7qsJm1XQJrBCnSAEg3JIBA0+0uJS5ve4k0idQ7zhndWVCW+Z0H+/wWf/VFWT25cuuN/JRp2s1O43Qlak5IMmVVlAYMBB0lk2qhFBLCgDh1i6Jbc6eQU9xa4MeGFzofdu9jfvwTbebdd+U5mxuqt+NbZc+ztA6rfSOclahXn681+Fq1UcJdwxXft5CS43OVdBCg8AIfE1eescQtZBsBCTcXpi3Px90HMPouh24d+NsdhRk6pYl2ieIDztd47I311MS/EL5sedtLDi6mwc3f8/2E0f0joTRYODaup14sc0w4nxD/v780zU4BvqUcG9/LlGxYqR+QATtwhLYlJeuuA+tjIhvq3cEUUvJCICoNfpGN2HLJY/xTbebaR0a79RrGw0GbmnQ3aXfWZ/NwJhmbL74UV2+ZqcYMDCkTks2Dvwfn3W5/l83/0nJgxWNBDzW4tKznu1QE0+2cOwRxtURZPblgab99Y4haikZARC1itFgYFRiO0YmtmXukR18emA1czO3U6HBMcDnut6VCW15rPmltNHpBqrWqa/ZqMR2LM7ey/spy/nlyDbKbf/ds15LQWZfrqnXkXsb9znvCoVTBUB1RwKGx7dhQuO+qvNdEd+a8Q16MH3/StV9KWHAwEedriXG17OWcArnkQJA1Eqn3lUOqdOS4xXFzDq0nl+PbGfFsVRNTvRLCojgunqduLF+VxoERGqQ2DX0jW5C3+gm5FWU8EPGFn7M2MLi7L2abaoTaPahf0xTRiW254r41vibqrdT4aTkwdQLCOeejd+eM4vRYODuRr15pc1wzVaHvNdhND5GM++mLHPq9sL+Jm+md7qGUYntnHZN4XmkABC1XoR3AHc36s3djXpTbrOwOucAy3JS2Hkik72F2ewpPHres+69jCbq+YfTISyRThFJXBzTzKUmiTlCmLc/N9Xvxk31u1Fhs7L6+H7W5qaxPjeN3QVHSSk6dt6vGVQt10wKiKBlSBwdw+vRNSKJbhENFE+MvDGpK4Nik3ln3xLmZu5gb2E2FruVBL8wBsQ05Y5GF2k+CmMyGHm7/SiuTGzLK7v/ZFH2Xsou8PdWI9In8OSI0iUk+oc57DpCgBQAwsP4GM30iW5Mn+jGf3/OZreTW1FMgaWM/IpSiizleBlN+BjNxPgGEesb7NQtfF2Nt9FE76jG9I7652tmx052WRG5FcUcryim7OQRt74mMyFefoR7+1PHL0TzlRkxvkE80+pynml1uab9Xsipv3+ptZLMshOUWiops1VyorJU4IigAAAgAElEQVSsxpv0eBmNZ52fEOMbTJyHf68J55ICQHg8o8FApE9g1X4CcvpqtRgwEOMb5HHPp/1MXrXqkY/wbFJqCiGEEB5ICgAhhBDCA0kBIIQQQnggKQCEEEIIDyQFgBBCCOGBpAAQQgghPJAUAEIIIYQHkgJACCGE8EBSAHgWm9KGFrtjDtMRQrg2i13xjw2MRrnFuDL51/EsxUobZpUWaJlDCOFodjvY1B9glFFRqLhtQGCg6usLx5ECwLOcUNpwUfZeLXMIIRzNqs3phYsL9ituGxQcokkG4RhSAHiWA0obbj9xhAVHd2uZRQjhQPYKi+o+lhYeZGNJpuL2dRs0VJ1BOI4UAJ5ll5rGd6z/mpzyIq2yCCEcyFBcoap9nqWU2w7+rKqPhk2bqmovHEsKAM+SAmQrbby/OId+S95mX9ExDSMJIRzBXqq8AEgtz6X/nhnsKzuuuI/QsHAaNW2uuL1wPDkO2LPYgcXAaKUdbD9xhFa/P8uNSV0ZntCWRoFRhHv7a5dQCKGavagCyktq1CbPWkZqWS4/5O9ixrFNlNvVPULo1ruPrAJwcQa9AwinGwnM1juEEKJ2mzpzFkNGXqV3DJdlqQRrpfpbcLNI5UWWFACexwfIACL0DiKEqJ2CgkNYeyADXz8/vaO4LFcoAGR8xvOUA+/qHUIIUXtdf/udcvN3AzIC4JkigP1AsN5BhBC1S0BQEMt27CM8MkrvKC5NRgCEXo4DT+kdQghR+9z32FNy83cTMgLguczASqCz3kGEELVDy7bt+WHpKsxeXnpHcXkyAiD0ZAFGAbl6BxFCuL+AoCDemvGF3PzdiBQAnu0QcDWgbsswIYRHM3t58e4X39Cgiez8506kABALgOupGhEQQogaMZlMvDLtE3oPvETvKKKGpAAQAN8AgwHZ6F8IUW3ePj5MnTmLK66+Ru8oQgEpAMQpC4AuwA69gwghXF983Xp8M38xg4ZfqXcUoZAUAOJ0O4FuwFTAqnMWIYQLMplMXH/bnfy+djNtO3XRO45QQZYBinNpC0wGhiLfJ0J4PIPBQL9Bl3H/k5NJbtNO7zhuzxWWAcoPdnEhycA4YAxQR+csQggni46N4/JRo7nqhnE0adFS7zi1hhQAwp0YgJZA35MfmwBRQCAQBPhTddBQjfn5++PtraipEEIj/oGBBAQGEh4ZRf1GjWma3JJuvfvQNLkVBoPcKrQmBYCoTd4C7lXScNKrb3LjnfdoHEcIIVyXKxQAMglQCCGE8EBSAAghhBAeSAoAIYQQwgNJASCEEEJ4ICkAhBBCCA8kBYAQQgjhgaQAEEIIITyQFABCCCGEB5ICQAghhPBAUgAIIYQQHkgKACGEEMIDSQEghBBCeCApAIQQQggPJAWAEEII4YHMegfwUH6APxACBJ78feDJ//YHAk77M6/z9HO2Pz8B2IC8kx9PAFagAKgEioCKkx9zgGNAqQZ/JyGEEG5ECgBthAMxQNTJj6f/Pvbk76OBCCAUUH8ItLaKqSoGjlJVEOSc/JV98r+PAGnAQaBMn4hCCCG0JAXAhZmBBKABUP+MjwlU3dy9dUunjYCTv+pV47VZVBUDKcAuYM/Jjz4OSyeEEEJzUgBU8QeaAY34742+Lucfhvc0sSd/ddE7iBBCCOU8rQDwAlqe/JUMtDj5MQmZECmEEMKD1OYCwA9oA7QH2p381Qr3H66vddauWEbT5Fa0bt+BgKAgveMIIYRHcLXJaGo0BLqe9qsNMnTvVkwmE42bJ9Oucxfade5Kh67daNCkqd6xhBBCc5ZKsFaqvwU3i1Q+eO3OBUALoC/QB7iIqln2opaJjo2jW+8+dOvdl669elOvYSO9IwkhhGpSANRMIjAI6A/0pmqJnfAwcQmJXDTgYvpcMohe/QbIIwMhhFuSAuD8vICeVN30B1E1cU+Iv3l5e9O5R0/6XDKYAYOHkNSosd6RhBCiWqQA+C8/4BJgJDCEqt3whKiWFq3bMnjESC4bMVKKASGES5MCoIovVTf7kcBlVG1vK4QqLVq3ZcjIqxh+zXXE1onXO44QQvyLpxcAHYDrgWuASB1ziFrMaDTSrU9fRowZy+ARI/H189M7khBCeGQBEA3cDNwINHHytYWHC4uIZOR11zP2tjtJTKqvdxwhhAfzpAKgHXA7MJaq5/xC6MZoNNLnkkHcdNd99OjXX+84Qqhy7GgWGYfS8PXzI7FefVkZ4yZqewFgAK4AHgR6OPA6bsXs5Y2PfwA+/gH4BQbj6x+Aj18AZu+qs3R8AwIxGP/5B/ULDP7790ajCd+AQEqLC7HbbH9/vrSo4O/fWy0WKkpLAKgsL6O8pJjy0mJKiwspKy6ivKQYq6XS0X9Nt9GybXvufPhRLh02HIPBFabECHFhlspKvvpkOl9++AF7d+34+/NmLy+69LqIOx78Hz369tMxobiQ2loAGIErgSeA1g7o32UYTSYCQ8IJCA0nJDKagNBwgsIiCQqLJDA0nKCIKPwCg/ELCMI3IBAf/wBMZv03J7RUVlQVBiXFlBYVUFKQT2H+cYrycik4nk1Rfi5F+ccpzD1GUX4uxfl52GxWvWM7VPNWbZjwxCQGDhkqhYBwaVlHMrh11HC2bdpw3tdde8ttTH7tLcxe+v/MEf9V2woAA1Uz+SdRdcCO2zOaTIRGxREeG094XAJhsfFExCUSHhtPWEw8gWERHnGzsNttFOYdJy8zg9ysdI5nppOblU5eVjq5WRmcOHa01hQIyW3a8fAzz3PRgIv1jiLEfxQXFjK8T3f27dpZrdePHHsDr0z7xMGphBK1qQDoALxJ1cY9bsfXP5Doeg2JTWpMTL2GxCY1IiK+LqFRcRhNJr3juTyrxUJ+diY5GWlkHdzH0bRUjp78WFFWqnc8RQYOGcoTL71G3foN9I4iaiA7K5Mvpn/An7/+Qure3VgqK4mvW4+uF/XmhjvuJrlNO70jqvLY3bcz65PpNWrz4bc/MHDIUM2z7Niyic/ef4fVS5eQcSgNL29vGjZpxoAhlzP21juIionV/Jq1SW0oAGKB54EbcIPjdA0GI1GJSSQ2bUVsUiNiTt7ww2Lq6B2tVrLb7eQdzSDrYApHD6aQdWAvh/dsJycjTe9o1eLj68v4CQ9y18RHZfmgG5g9cwZPT5xAcWHhWf/cYDAw9tY7ePzFV/H28XFyOvUyDqXRp1VTLJU1m8PTql0Hfl65VrMc5WVlPP/oRD7/8H3sdvtZXxMYHMykV95k5NgbNLtubePuBcAo4H0gQkUfDhUUHklCk2QSGicT3ySZpBZt8Q8O1TuWxysrKSJr/14O7tjEge0bOLx7G0X5uXrHOqe69Rvw2vRP6djdLQe4PMKM96by9EMTqvXagUOG8v6sOZjcbHTvtSlP8c6Lzylqu2L3fuLr1lOdwWq1ctvoESz87dcLvtZgMDD5tbe4/va7VF+3NnLXAiAW+AAYpviqDhJRJ5FGbbvQsG0XkpLbERodp3ckUU25mekc3LGRlE1rSNm8hvzsTL0j/YvJbOauhx/lnkcel0lVLmbL+rWM7H9Rjd4ZP/rcS9x6/0MOTKUti8VCr2YNyDqSoaj9jJ9+o/fAS1Tn+OC1l3npyUer/XqzlxdzFi6jTcfOqq9d27hjAXAJ8CUu8q4/JDKGhm270KhdFxq17SI3/Frk+JFDfxcDqVvWUpR3XO9IALTp2JkPvp4j2wu7CKvVyrCeXdixZVON2gUGB7Mm5TD+ge6x8/iCX3/m1quGK27//qw5XDpMeXuomoDYuWECJUVFNWqX3KYdP61Y43YjLo7mCgWAuQavnQi8AOj2r2gwGEhokkxyj/4kd+tHTJKcDV9bRdSpS0SdunS5bBR2u50jqbvZuWoRO1Yt4kjqbt1ybVm/lmE9u/DB13No17mrbjlElS+nf1Djmz9AUUEBC+fN5fJRox2QSntf13Di35miYtSfnr5w3twa3/yharLgl9M/kEcBLqg65Ycv8AkwxsFZzspk9qJhm04k9+hPi259CYlU/40s3Fve0Qx2nCwGDmzbgM3q/CWIPr6+vPDONIZfc53Try2qHD+WTb/WzSk4ka+o/W0PTOR/z76ocSrtZWWk07NZA6wKv8/9AwLYlH5M9cTH5x+dyPS3XlfUNjA4mIWbdxIdK6O0p7jDCIA/8CMwUPEVFDAYDNRLbkeHgcNofdEl+AXK1pbiH2Ex8fQcPpaew8dSfCKPLUvmsWHBTxzes91pGcrLynhw/I0UFRUy9tY7nHZd8Y/nH3tY8c0fID/XdSeenu7rGR8rvvkDXDJsuCarHk7k5yluW1RQwEtPPspr02eoziG0c74CwB/4GXDaZumhUbG07XcZnQddSWS8+hmrovYLCAmj+7Br6D7sGrIPH2DL4t/YsOBncrPSHX5tu93OpPvvwWa1csMddzv8euIf61et4IevvlDVR3Co668IslqtzJ45Q1UfY8bdokmW4BB1X68fvvqCMeNukdU0LuRcBYA38CvQ19EBDAYjLbr3pefwsTRo3dEjdtYTjhGdWJ+B19/FgLF3sGfdSlb88Dn7Nqw651plLdjtdp5+aALePj6MuWm8w64j/mG1Wnnq/ntV/7u6wxyOJX/M48jhQ4rbN2jSVLMbbttOXVS1t9vtPH7vXcxdvV5W0riIcxUAb+Hgm7+3nz/t+l1GrytvIDpRjmYV2jEYjDTr3ItmnXuRk5HGqp++Ys1vc6gsL3PI9ex2O0/dfw8NGjehS6/eDrmG+Mdn77/Drm1bVPURGhZObzfY7rmmu/6dacxN4zV7U9X30sGER0aRm3NMcR97d27n8w/fZ9xd92qSSahztu+Mm4GPHHXBgJAw+lx1E10uG4VvgDzbF85xJDub1T/PYtPPX1JRWuyQa0TFxPLzyrWyRNCBsrMy6d+2BUUFBRd+8Xk88swL3P7gwxqlcozsrEy6N0nCarEoau/l7c1fKYcIj4zSLFNN9wE4G5kQWMUVJgGe2bIF8K6qNOfg4x/AwLF38sjM3+l91U1y8xdOFRIaTqeRt3D9uz/Sbuh1fx+/rKVjR7O45/prsJ12VLPQ1vOPTlR9809q1Jib7r5Po0SO8/UnHym++QMMHn6lpjd/gJvvmUDDps1U9VFUUMALj7l28eUpziw/FqHx0L/JbKb70Gvod814AkLCtexaiGort1g5WvTPI4Ci49msnT2dXYt+wW7X9ob94nvTGX3jTZr2KWDdyuWMvriv6mf/n/44lz4XX6pRKsew2Wxc1KIRGYeUn5sx6/eFdL2oj3ahTlq5aCHXDVH/+OSreQvp1ruP+kBuyhVGAE6/+hjgK9VpThPXoAmjHnyWhCa14nRg4cYsNjtHCkr+8/nMPVtZ9P6z5GUc1OxaYeERLNyyk7CISM369HQWi4XLu3di9/atqvoZPGIk737xjUapHGfxH/O4afgQxe3rNWjI4m17HDap+q7rRvPb93NU9dG4eQt++2ujx04IdIUC4FRLE6DZjhhmbx8G3Xw/9703R27+wiWYzvGDMK5pa65+5Qs6jhiH0VSTjTHPLS/3OO+89LwmfYkqn77zluqbv5+/P489/7JGiRxL7c5/19x8q0NXVD350muqt1Het2snn743VaNEQolT3yHDqNrwR7WwmHhunPIOcQ2aaNGdEJpJLyjBZjv38HHmnq3Me/URSvLVnzsQGBzMX/sOERAkc13UOnY0i35tmqt+9v+/Z1/ktgcmapTKcY4dzaJ7k6QaH/t7ipe3N6v3pRERFa1xsn+b9vorvPjE/1T1ERAUxJ+bdnjkxFlXGgG4XXUKICm5HfdMnSU3f+GSzBd4RxTXtDWjX5pJdKMWqq9VVFDA97PUbVQjqkyZeL/qm3/9xk3cZunZNzM+UXzzB7hk6BUOv/kD3Hzv/TRNbqWqj+LCQp5/1PWLstrKCMQBqmd0tOkziNtenUFgmEscFCjEf5iMF66UA8KjGDH5A+q2Vb9JzKyP1Q3jCli5eBG/zvlWdT/PvvWeJtvhOprdbmfO5zNU9XH1OOdsSGU2m3nmzamqHzX8Mvsbli74Q6NUoiaMQE/+uxywRhq26cToh5/HZNbmGaoQjmCs5s8ps48vgx96mdgmLVVdb/f2reRkH1XVhyerrKhg8oPq37UPvepquvdx+Kammli+cAFp+1MVt69bv4FTZ9Z36tFLkxMVJz94HxXl5RokEjVhBFS91YlNaswNT0/F7OWtUSQhHKMm71TMPr4MfvhVgqOUb1Zit9tZt3KF4vae7qO33yBl9y5VfQQEBfGom0z8A/WT/64edwvGaox0aemJl14jKDhEVR8HU/bxyTtvaZRIVJeqAsBoMjH6kRdkUx/hFmo6UOkfEk6/O55Qdc01K5apau+pMtMP887L6ldSTHh8kttMMMvJPsqCub8obm8ym7nyuus1TFQ9UTGx3PvYk6r7efuFZ0hPO6g+kKg2I5CktHGb3pcS36i5dmmEcCCjgmeVCa06kdha+SEohw8eUNzWkz3z8AOUFBWp6qNJ82RudKNTGmfPnKFq8t/Flw/TbXvdG++8h+at2qjqo7SkhOdlh0CnMgKKZ+11uPgKDaMI4WjKdpBr1nuw4ivm5uQobuupViz8k3k/fq+qD4PBwOTX33abTWbsdjvfzvxUVR9jnDT572zMZjNT3nhb9YTAeT98x5L5v2uUSlyIkapNgBRJaKx+uZQQzqJkBABQtSww77gUADVRWVHBJA0m/l0x5lq32mZ21eJFHEzZp7h9YlJ9evTrr2GimuvYvSdXjLlWdT+TH7yP8jLHnNwp/s1IzR+N/k0m/gl3onQHeTXf54Uq1697mmmvv8L+vXtU9REYHMwjz7ygUSLnmPWpusl/o2+82emT/87msedfJjgkVFUfaakpTH/rdY0SifNR9R2TnS7PN4UbUVgBaHlOgDi3I4cP8f5rL6nu58GnphATV0eDRM6RdzyHBb/+rLi9yWxm5NgbNEykXGR0DPc/OVl1P+++/LzMn3ECVQXAtmXztcohhMPZFVYAKasXapxEnM3kB++jpLhYVR9NWrTkulvv0CiRc8yeOUPVGvgBg4e4VMEz9rY7adG6rao+ykpLefaRBzVKJM5FVQHw16/fUHwiT6ssQjiUkkN/C7KPsGe5TEpytGV/zlf1LhiqJv5NeeNtzG62IdlstTv/3aTf5L+zMZlMTNFgh8D5v/zEot9/0yiVOBtVBUBpUSE/Tn1W9fncQjhDTb9P7TYbi6c9j7WywkGJBEBFeTmTH7xPdT9XXnc9XXr11iCR86xeukTVZkdxCYn06j9Qw0Ta6NC1uyZ7Ekx5aIJMCHQg1bNGtiz9nfkz5EhH4Q5q9o5k+aevc3jrWgdlEae8/+pLHNi3V1UfgcHBTHz6OY0SOc/XKif/jRl3CyaT4oVcDvXYC68QFq7ubJi0/alMe/0VjRKJM2kybXThV9NY/cvXWnQlhMNYbdV/CLBuzkds/V39ITTi/DIOpTHtDfU/4B+e8rxum+AolZd7nD9+Vn4Ku8lkcpnJf2cTFh7B/U89rbqf9197iUMH9muQSJxJs3UjP059lt8+eh27XcmTViEcz2a78CMAu83Gqi/fYc03HzohkXjq/nsoLSlR1UfLtu255uZbNUrkPN99MVPV8HbfSwcTl5CoYSLtXXvLbbTp2FlVH2WlpTw1wX12dHQnmhUAdrudJd98zIyn7qasRN0WnkI4guUCcwAqSouZ+/JDbPxxppMSebYVC/9k0by5qvowGo1MeXOqyw6Dn8+3n32iqv0YF5v8dzZGo5HJr72peo+CpQv+YMXCPzVKJU7RfOeIXX8t5b37riN97w6tuxZCFdt5CoCMnRv5ZuJYDm6Q0/ucZfpbr6nuY9T142jXWdWBprpYu2IZ+3btVNw+Nj6B3hdfqmEix2nbqQujrh+nup+Pp76hQRpxOodsHZV1cB9T776a796cTEWpuuE9IbRgs9k52/2/oqSI5Z++xo+T7+TE0XTnB/NQBSfyWb5wgao+QsPCeeQZ9ScG6mHWpx+paj/6xpvcatTjkWeeVz0hcOmCPygsOKFRIgEOKgAA7HYba+bO5o3bR7BrzVJHXUaIavnP8L/dzr5VC/hywmi2/PaNzF1xsoMp+1QvH5445TnCIiI1SuQ8BSfy+eOnHxS3NxqNjBp7o3aBnCAsIpKHnn5WVR92u52DqSkaJRLgwALglONHDvPpE3fy7n3XkrplnaMvJ8RZVZ62AuDw1rV8+78b+OONxynOO6ZjKs9VXKRuxz+TycTAIUM1SuNc330xU9XExz4XX0p83XoaJnKOiy8fpnrUoriwUKM0ApxQAJyStnMz0x66kU+fvJMjqbuddVkhALBYbWTt3cYPk+/gp2fuJnu/fA/qqU6iutnrVquVN56ZrE0YJ/v6049VtXe1nf+q6/Upk7Barar6cMfCx5UZAAsqjgRWKim5HT1HjKVlzwEYje7zLEu4F7vdxq41y1g8ZyZpW9Y4/frhkVFsOJTl9Ou6OqvVSs9mDcjKUD7vwmQy8dOKNSS3aadhMsdav3olo/pfpLh9dGwcK/ccwOzlpWEqx9u5dTNDe3RWVQDEJSSyfFeqW819OB9LJVgr1W2XDNAsUvn7eN02zT64YxMHd2wiok5delxxDZ0HjcTb10+vOKKWKS8pZt0f37P8u8/JO5qhdxxxBpPJxJhxt/DGs5MV92G1Wpl0/73MXrhM9b7zzvK12sl/4252u5s/wJSJD6h+9+/Kux66K91GAM7kFxhEmz6D6DBgGPWS1Z0kJTyT3W5j/5b1rF/wI9uWL3CJFSgyAnBuJ/Lz6NuqGXnHc1T1M3XmLIaMvEqjVI5TWHCCLg0SFD//NxqNLN2xj4R6SdoGc7Bf53zLPdePUdVHaFg4i7btVr2SwJW4wgiAyxQApwuNjqNt38F0vewqwuMS9I4jXFx+diabF//GX3O/JTfTtZbySQFwfjOnvcek++9R1UdsfAILN+/EPyBAo1SOMfODd5n0wL2K2/e5+FI+/VHdxknOVlZaysD2LUlPO6iqnylvvsNYNzvm+UKkALgAg8FI/ZbtSe7Rn+Tu/aQYEH/LPnyAnasWsX3FnxzavVXvOOckBcD5Wa1WhnTryO7t6v4NJzw+ifsef0qjVI5xWdcO7Ny6WXH7D77+jkuGXqFhIsd787mneeu5Kar6aNy8Bb+t2eR2xzxfiBQANRQel0CLrn1ofdEl1Etu5zbP/YR6druNjJRd7Fq9hK3L/uBoWqrekapFCoALW7VkMdcOHqCqD18/P/7ctMNlZ4lvWvsXI/r0UNw+KiaWVXsPutXz/6yMdPq3bUFJsbolnzN//p1eA1zvyGO1XKEAcKuSKjcznRU/fMGKH74gJCqGxu2706hdFxq17UJwRLTe8YTG8o5mkLJpDSmb17BvwyqK8nP1jiQcoHufvlw6bDi/q9gcp6y0lJeefJS3P/tKw2TaUTv576obxrnVzR/guUcnqr75D7piRK28+bsKtxoBOJ/wuAQat+9G4/bdaNimMwEhYXpHEjVUlJ/L/q3r2LdxNQe3b3Sbd/nnIyMA1XP44AEGtm+p6nQ8gK//WESXXr01SqWN4sJCOjdMoKRI2SFpBoOBxVt3U69hI42TOc6Gv1Yxqv9FqnZ79PbxYf76rW71964J9x8BMBg46wbrOsjNTGfN3NmsmTsbg8FIVGISic1aUbdpKxKbtSauQVNMtewZkjuzVJRzJHU3h3Zv4/CebRzevY2cjDS9Y52dC32f11aJSfW55d77efflF1T1M2XiA/y8cq1LLRf74esvFd/8AXr2H+BWN0GbzcbTD92veqvnWyc86FZ/b3ekagSgxf1vkzZnKsWH92mbygHM3j7EN2pOYtNWJDZtSWz9xkTXbYDJ7F7Dau6osryM7EP7yTqwj8N7tnFo91Yy9+/BarHoHe2CDHWbYeo7BstnkxS1lxGA6istKWFAu2SOHD6kqp8X3p3G1eNu0SiVepd378T2zRsVt3/vy28ZNPxKDRM51teffsSjd92mqo/YOvFVKzsCAzVK5XpcYQRAVQHQ6c35GAwGctb9yaEf3sdSXKA4iB6MJhOh0XHE1GtITL1GVR+TGhFbrxFmbx+947kdm9VKfnYmWWkpZKelknUwhYx9Ozh2+CA2m7pNQJzOLxBTn9GYulwGJYVUvHyDom6kAKiZH776ggduUfa1PiUiKppFW3cRHBKqUSrltm5Yx7Beyo8rDouI5K+UQ3j7uMfPo6KCAvq1ac6xo+q+59/4eCZXjLlWo1SuyRUKAPVj4gYDkZ0HEtKsAxm/f86x1fOwW13/nR1U3bByM9PJzUxn11//nFhoMnsRHhtPWGw84bEJhMfGEx6X8Pfv/YP1/8Gil+ITueRmZpCblU5u1mkfM9PJzz7iFu/qz8vshanTIEy9R4Ff7X334aquGHMtX30ynfWrViju4/ixbKa+8CyPv/iqhsmUmfWJ+mN/3eXmD/DW81NU3/zbd+nGsKuv0SiROB/1IwDGf1cf5cczyfhtJjnr/6y1z019/QMJjalDaFQMAaHhBIVFEhQeSWBIOMER0QSGRRAYGu5WExGL8nMpyj9OUd5xCnKPUZyfR8Hx7L8/f+LYUXKPZrjE7noOYTJhbDcAU+9RGILP2G2suEBGAJxo++aNDOvZBZtN+RHNZi8v/li3hQZNmmqYrGZKioro3DBB8Ql2BoOBRVt2kdSoscbJHCMtNYWLO7amorxccR9Go5Hvl6ykTcfOGiZzTbVjBOAMPhFxNBj7CHEDRpPxxxfkbV6O3d2Gfy+grKSIrAN7yTqw97yvM5m98A8OwccvAF//QHwDg/DxD8DHL+DkR3/8g0Lw8fPHaDLj7ef/90RFAwZ8A4P+7svs5Y2Xr+/f/11RVoq1srLqP+x2Sov/+SFjqaygsqwMq9VCeUkxpUUFlJcUU1ZSRHlJMeWlxZQXF1NaXPX5kuH9Nt8AACAASURBVMIT2FTu0+22TGaMrS/CdNEoDOGxeqcRQMu27Rlx7VjmfP6Z4j4slZVMevBePv/lDw2T1cxP385SdXxt9z593ebmD/D0QxNU3fwBrrzueo+4+bsKzUcAzlSem0X2il/JXvkr1lLlM2GF0JSPP6Z2fTF2vwJDSOT5XysjAE6Xk32Uvq2bUVSgbl7RJz/8St9LBmmUqmaG9uzCto3rFbd3lzMOABb9/hs3j7hcVR8BQUEs2rKL6Ng4jVK5NlcYAVDespp8wmNJHHoLbSd/QeLQ8fhEyLssoR9DZDymwePxfuhjTINuufDNX+giMjqGuyY+qrofLd6VKrFr2xZVN/+w8AguvnyYhokcx1JZyXP/e0h1P/c88rjH3PxdhcMLgFNMfoHEDRhNm6c+p/mEN4nufhlGmWkvnMHshTG5O+YbJuN191RMXQaDt++F2wld3XzPBOo3bqKqj7TUFD774F2NElXfl9OnqWo/8vob3Wby36fvTWX/3j2q+qjXoCHj7lJ+UJJQxuGPAM7HUlxAzro/Ob7+T4oPnf95uhA1YjAQWL8FpjZ9KG3eHXz8lfcljwB0s+DXn7n1quGq+ggICmLx1t1ExThn9LGkuJguDRNUPb5YsHE7jZo11zCVYxw/lk3fVs0oLDihqp/ps39kwGXqHiG4G1d4BKDr1njmgGBi+4wgts8IynOPkrd1Jbmbl1J0YGetXUEgHMsvth7h7XoT2XkgPhFxpJeUU1peoXcsodDAIUPpPfASli5QPpmvuLCQ155+ihff+1DDZOf2y+yvVd38u17U2y1u/gCvTHpC9c2/R99+HnfzdxUuszeuT3jM38VAWXY6eVtWkL/jL4oO7sSuYjmQqN0MJjNBDVsRmtyVsDY98QmP0TuS0NgTL73GyiWLsJxa9aLA7Jmfcs3N42ndoZOGyc5O7dr/q8eN1yiJY+3Ysok5n89Q1YfJbOapV97QJpCoMZcpAE7nG51A3MCriRt4NZaSQgr2bKRgz0bytq+mskBOhPN05oAQgpu0rbrpt+qOyS9A70jCgRo1a851429nxntTFfdhs9mYMvEBZi9c5tBjxHdv38qW9WsVtw8Lj+DSYeoeeTjLlIkPYFW5fPj62+6kSYuWGiUSNeWSBcDpzP5BhLfrTXi73tSz3UfZ0UMUHthBwZ6NnNi9QZYWegCTjx8BSc0Jadqe4KbtCUhoXHVAj/AYE56YxE/fzCLveI7iPjb8tYpf53zL5aNGa5js32Z9PF1V+xHXjsXH1/UnqP787desXbFMVR+hYeHc8+gTGiUSSrh8AXA6g9GIX1wSfnFJRHe/DLvNSnHaHgpTtlJ0cCdFB3dSWZivd0yhkndIBAFJzQlq0JKgRq3xj2+karKpcH8hoWE88NTTPHnfXar6ef6xh+k/eAj+AdqPGpWVlvLTN7NU9XHVjTdplMZxykpLefmpx1T389DTzxIWHnHhFwqHcasC4EwGo4nA+i0IrN/i78+VH8+k6MBOig7uoihtN6VHDmCrdP46YFE9Rm9f/OMbEpjUjMCkFgQmtcA7LErvWMIFjblpPF999CG7tm1R3EdWRjofvvkqEx5Xdrrj+fwy+xtO5Ocpbt+pRy+aNE/WMJFjvP/aS2QcUnd0d5PmyYy+8WaNEgml3LoAOBufiDh8IuKI6NgfALvNSll2OiXpqZQcSaUkPYWSjFQZKdCBd0gk/vEN8Y9vgH9CI/zjG+IbFS/D+aJaTCYTT778OtcM6q+qn2mvv8LI624goV6SNsFO+vpTdZP/xrjQEcbnkpl+mOlvvqa6nydffh2zudbdftxOrf8XMBhN+MXWwy+2HhH0+/vzluICSo8eoizrEKXZhynNSqPs6CHKc4/KEkQVDEYTPhGx+MbUxS+2Lr7RiVVf/5hETHK6nlCpW+8+DLpiBPN+/F5xH2Wlpbz29JO88cnnmuVK2b2LjWtWK24fHBLKpVeM0CyPo7z81GOUlqg7EGzQFSPo2X+ARomEGrW+ADgXc0Bw1TPmBv+egWq3WijPPUp5TiblxzMpz82q+n1uFhX5OVQW5nl0gWAwGvEKCsM7NBrviBh8T464+ETE4hMZh3doFAaTx35bCSd47IVXWPT7b5SXlSnu45c53zLx6eeok1hXk0xffqRu578rr7seP38Vm1U5QXraQX6Z862qPnx8fXnshVc0SiTUkp/UZzCYzPhGxVcNTZ+F3WqhsiCPivxsKk4cryoKCnKxFOVjKS6gsugEluITWIpOYClRfhKYs5kDQjAHBmMOCMYrIARzYAheQWFVN/uwKLyCI6o+BoVhMCraOFIITSTUS2L8hAd558XnFPdhtVhY/Mc8rr3lNtV5ykpL+XHWl6r6uHqc6z8PXzRvLlaLRVUft97/kOaPXoRyqgqAitwsfCLraJXFLRhMZrzDoqo1Uc1us2ItLcJaVoKlpBBrWQnW0uKqj2XF2CrKsFkqsVWUY7dUYKsox2apwFb5z8511rKS8x6nbDR5YfT5Z9mQ0dsXo8mM0ccXg8kLk7cvBrMZo48fZt+A/7d33+FxVXf+x99TNBqNerO6ZMu9gG2MCxhsbBya1xTT4oUQCD8IgZBsyG4gJJvsbrKhB3bZxCwElgWyEEgDY1pMwKHYVBdcwJZtSS6yZPUZjcq03x+yAYNsS9PuHc3n9TzzjDy695wvPJLmM+eeew5WpwubMx2b04XdlYEtLQObM12z7I8i1N5kdAnyBd/6/s38/rFH2b9vb9htbNu8KSq1vPDH39PeFv76JDPmnJwQ98Jv37olovOLS8u47qYfRKkaiYaIAkDLh69TesbfR6uWYcditfV/sk7PJjVfu1wlquBHbxhdgnyBKz2dm39+O9/7xtfCbqOvLzpLRP/ufx+J6PyvJsDkP4De3vAvuQDc/PPbY3L7pYQvoo99B95eScgf/vKcIqbX4yWw4TWjq5ABnHfpMmbOPTXs80vLKyKuoa2lmQ/WvBX2+ZlZ2Sy+8OKI64iHSOZLnDD7JM67dFkUq5FoiCgA9LY20vjmc9GqRcR0Am//GRJoLkcysVgs/PMdd2MN8/LVrFPCDw+HbFq3LqLlcC9YdpnpJ/8dMvuU+WGdZ7Va+Zd77ovpEswSnogv/O5d+Sg9TXuiUYuIqYQa6wi89Wejy5CjOO6EE7nw8iuGfN6YCROZdcq8iPuPdCe8r34jMYb/AWafOo/R4ycM+bwLL7+C4044MQYVSaQiDgCB3m52PH77YRPXRBJejxf/03f1b9otpvaj2++mclT1oI+3Wq386y/vj8on0ryCgrDPnTZzNhOPmxpxDfFy6P/bUEZcKkdV86Pb745hVRKJqEz97qr7mJr/+dlRZ6uLJAy/D9+TvyDUHP4Mc4mf7Jxclj/5DHkFx74zx2q18m/3/Rcnn7YgKn0fN31G2Jv3JMrkv8+bu2Ah/3rv4MJTfuEIlj/5DNk5uXGoTMIRtXu/2jetYedjtxMKRHafqIih+nrwP3U7odrNRlciQzDp+GmsXPsB8xadccRjqkaP4X+fjc69/4ekZ2ay8OzFQz6vYEQR517y1ajVEU+XX3Mdjz33ElWjxxzxmHmLzmDl2g+YdPy0OFYmQ2UB/EDUVnbJGjedsVf/i/ZoF1PY4+2luXdwl6dCnnb8//fvhPbWRK3/vIJCPqjfH7X25Ni2b93Cy8/+idqdNfT29FBeNZKT5i/glIWLwp4weDQ7PvmYxSfNGNLKhP9+/3L+/upro15LPAWDQd786yrWrH6NPXW1pDqdjKwew1nnL2XMhIlGl2d6fh8EfJFfhppQEP7PdNQDAEBqXjGjr/oRGVX6IRBjDTYAhOo24//9vYQ6W6LavwJAcnj2d09y09VXEAwGj3nsJV+/ijuWR7ZxkCQ+MwSAmCz/1tu6n63/cRP7X/s9oUH8QogYJuAn8NpT+B79adTf/CV5nHfpMh7+4woKi4qPeEyq08n3f/ozbv/1Q3GsTOTIYjIC8HnpleMZtewmXGWjY9WFyBEdbQQgtPtj/M8tJ9RUH7P+NQKQXLq9Xp55/FFee3Elu2q209PdTcWoauYuWMglV1wVtc2HJPGZYQQg5gGgvxcLBScuouK8a0jJyotpVyKfN1AACHW2EFj9NMEP/hLznR0VAERkIGYIAPHZDTAUovm9v9C28U2K5p1P0fwLFAQk7kIdBwiuWUHgvZd0f7+IJL34jAB8sVObnfwTFlByxjLSijQkJrGzx9vLgfrtBN76M8FNb0AEy7aGQyMAIjIQM4wAGBIAPuvdQu7xcylZeAkZoyYZUoIMU6EQndvXs+uVp+jd/mHMh/qPRAFARAZihgAQn0sARxIK0bbhTdo2vElaUSV5J5xGwewzSM078kxakaPpaztAywevcmDNi/Qc0Ep+IiJHYuwIwEAsFjJGTaJg1hnkz1iILTXN6IrE5AI9Xto2vkXze3+hc9s6wz7tD0QjACIyEDOMAJgvAHyOzekie9IscqecRPakWdhdmUaXJCbhc7fRvvkd2jetpWPrewR9vUaXNCAFABEZiALAEFisVlxlY8iZMoecKXNIrxhndEkSZ70tDbR9tIb2zWtxb9+QEJtPKQCIyEAUACLgLCwja9x0MsdOJWvMVN1WOAz1tTXRuX0D7poNdG5bR29ro9ElDZkCgIgMRAEgipxFFWSNmUrmmOPJGjtNgSAB9bUdoLNmPe7tG+jcvoHelgajS4qYAoCIDCThA4DFYiUUMuda/47cEWRUjSe9YjzpVeNJrxinHQpNxN/VSVf9NrrqP/n00ddhzrX4bSkOAr7B7Sj4RQoAIjIQMwSAiG4D/Pb9T/L8f9/Jro8+iKSZmOhra6K1rYnW9W/0v2Cx4CwsJ71yHK7y0bhKqkkrqcKRU2hsoUmgt3U/3Q11dDfsomtPDV11nyTEp3uLxcqE0xYz9Zyv8tQ/XWZ0OSIiURVRACgbO5Fv/fIxNqx+iRceuoe2xn3Rqiv6QiF6mnbT07Sblvdf/fRlW1oGaSVVuEpGkVYykrSSkTgLynDkFIAl8nSWNEIhetsa6T2wD2/Drv43/H276N5fR6DXa3R1Q1Y+5UTmXvFdCkeNp7uzzehyRESiLioLAU2dfxaT5pzG2889yeqnH8HT3hqNZuMi0O3Bs3Mznp2bD3vdmuIgtaAUZ0EpqYVl/c8FpaTmF+PIKcSa4jCoYuME+3rpa2uit3U/Pc376D2wj54De/q/btlPaBisrz+iegKzLrmWkTNOMboUEZGYitpKgCmpTuZffBUnLfkqa557ktef/h+6OhInCHxR0NdHd0Mt3Q21A34/JTOHlOwCHDmFpOYV4cgpwJFdgD0jm5SsvP7njBwsNmMXWxyMkN+Hz9OOz92O392Gz9NBX/uBzx6tTfR1NOPv6jS61JgpGjuFmRddzcgT5hpdiohIXET93cnhTGP+Jd/gpHOXsWbFU7z5p8fpOJB4t28di8/d/4bp3VNz1ONsaRmkZOZiz8jC7szAlpbe/3CmY3dlYHOmY3U4saY4sNjs/SsfWixhTVgMeD39zz1eQsEAQV8vwd4e/D1dBLq7CHjdn33d04Xf04Gvsy0hh+ijpXTSdE684Eoqp51kdCkiInEVs4+nDmca8y++inkXfZ2t7/yN15/6DbWb18WqO9MKdHsIdHugyehK5BCbPYVRM+cx7e8uo3jcFKPLERExRMzHpy0WK5PmnMakOadRv3UDb/35t3z05ir8feZculWGr/S8QqaccSFTFl1AWnau0eUYIhQK0dnRbnQZIgktKzsHyzCYJB7XC9SVE6dSOXEqF3S52fD6S6xd+TR7t2+JZwmSZGz2FCqmzmbC/MVUzzoNqy3h17wasn2763nioQdYtXIFtTtq8PWFt6aBiPRLcTgYOXoMixYv4fJrrqO0otLoksIS0UJAt7+8Eas1sj+oe7Zv5v2X/8xHb7yCu7U5orZEDikbM5EZZ5zPqLlnEHBEtgBUd2cbD199ZljnGr0Q0OMPLue2W39Atzd553mIxFKay8Wtt93F5ddcN6TzEn4hoGgoHzuZ8rGTOe+GH1K3eT0b//Yy619/EU+bOVeFE/MqqhrN8fPOZOqCcxhRMQqA1u5ePL1+gyszxsP338fPb/6+0WWIDGvdXi///N0b8PX1cdUN3zG6nCExfARgIMFAgB3r32HzmtfYunY1bY17o96HJD6LxUr5uElMnns6x887k4Kyqi8dE40AkIgjAB9v2siSubPw+xJ/bQaRRJDicPD8mvcZN3HyoI7XCMARWG02xs44mbEzTub8b/+I/bu2sXXtara88zq7t35EMAG2gZXYcKZnMm7GyUyYPY8Js+aRkaNNnway/O479OYvEke+vj6W330H9z78mNGlDJopA8AXFY8aR/GocSxYdg3dnk52bniP7evWsmP9OzTW7TC6PIkhm91OxfjjGD1tNmOmz2Hk5OnY7AnxY2sYv9/PX196wegyRJLOX55/Dr/Phz0lxehSBiXh/pKmZWQxee7pTJ57OgCdrQeoWbeW2k0fUrt5PY21NabdoVCOzWa3UzZ2MtXHn8iYabMZOeUEHM40o8tKKPU7d+DpHL6rNoqYVZfbzZ66WkaOGWt0KYOScAHgi7LyCjnh9CWccPoSAHq63NRt2UDdlvXUbVnPnm2b6fboj6FZZRcUUTnxeKomTaNy4lTKx07C7kg1uqyE5nHr513EKO4E+v1L+ADwRc70TMbPPIXxMz/bzKW1YQ97t29hb81W9tZsYe/2LQm1YdFwkVdcTunoCZSOmUBJ9XjKxk4ip7DY6LKGnexczYsQMUpuXr7RJQzasAsAA8krKSevpJzj5p3x6Wue9lYaa2torN/B/l3baarfyf7a7Xg7tUpapLILihhRWU1hxSiKKqspGjmGkuoJpGVkGl1aUqgYOYq8gkJamw8YXYpIUskvHEFZ5ZfvRjKrpAgAA8nIySNj2ixGT5t12OveznZa9u2meV89Lft207KvnuZ9dbQ17MXd1kwoFDKoYvOwWKxkF4wgr7j803CVV1JOYdlICitH4XRlGF1iUrNarSxeehGPP7jc6FJEksqSiy9NqCWCkzYAHIkrKwdXVg4VE4770vcCfh8dBxppb95Pe1MDHU376WhupKOlia72Vro62uhsPUCvt8uAyqPD4UzDlZVDdkERmXkF5BQWk5U/gqz8QrILS8jKLySvuAybPTFmuSarb970T/zpqd9qMqBInGRmZfPN7/2j0WUMSUQBoG3/PvJLK6JVi+nZ7Cmffto9Gn9fL56ONrraW/G6O+jxuPF6OunxdB58dtPr7cLv66Ony03A76PX68XX14OvrxdCHDZxMRDw09d9+FKudkcqKV+YLJfqSsdqs+FwurDbU7A7HKSkOkl1pfc/0vqf09IzcaZnkupKJz07l4ycPNKzcnFlZZOS6oze/7Bhwt3UYHQJQ1ZWWcWdDzzMjVcsI+BPzpUQReLFnpLCXQ8+QnHZ0d8bzCaiALBh9YssXHZttGoZNuyOVHIKizXBbZjY9tYrRpcQlrPPX8ojf1zBLddfS8Oe3UaXIzIslVZUcvuvHuTURV8xupQhiygAvLPyGeZddCX2FEe06hExlT6vh49XrzS6jLDNW3QGq9ZtZuUfnuHVF1awc/s2mhoSb0RDxExGlJRQPXYcixafy+ILLybN5TK6pLBEtBcAwJJv3cypS6+IXkUiURTpXgDvPPUA7/3hkbDPN3o3QBExJzPsBRD+mQe9/Oj9HNhTG2kzIqbTUl/Dh889YXQZIiIxEXEA6Ov28tQdt+Dv641GPSKm0Of18NI9PyTg6zO6FBGRmIg4AADs/vgjnvjZTQQD2qVPEl/A18fKO/6Rtn11RpciIhIzUQkAAFvWvs5Td9xCwK8tSCVx+Xq7eeGuH7B3y4dGlyIiElNRCwAA6197gYdvvY6eLnc0mxWJC29HK3/6l29Rt+5to0sREYm5qAYAgJp1a7n3mxdS//HGaDctEjP7tqzjdz/4Gk01W4wuRUQkLqIeAADaGvfywE1f52+//1+CQc0LEPMK+H28+/RD/PnfrqerVZvniEjyiHgdgGOpGD+Fi276N0qqx8eqC5EjOto6AA2fbOS1//4Frbt3xqx/rQMgIgMxwzoAMQ8A0L973PTT/45zrrmJrLzCWHYlcpiBAoCnpYn3fv8wW159llAoGNP+FQBEZCBJEwAOcaS5mHv+ZZxy/uVk5hXEo0tJcp8PAO7m/ax//kk2vfKHuN3frwAgIgNJugBwiM2ewtTTzmbhsmsYUVkdz64lybR291K3/WM+fPYJtr/1CsFAfHfGUwAQkYEkbQD4tHOLlclzFzL/4quomjTNiBJkmAqFQuzY8C6rnvwNO9etgVDIkDoUAERkIEkfAD5vRGU1U+efxYlnnk9uUZnR5UiCaj+wn/V/Xcm7L/6B5r3Gr+SnACAiA1EAGIDFYqVq0lRmfOU8pi9cjCMtMbdZlPjp8XrY/NarfLhqBTXr1hIy6NP+QBQARGQgCgDH4HRlMH7WqUyacxrjZ52KKzPb6JLEJDxtLWx9ZzVb167mk/ffxNfbY3RJA1IAEJGBKAAMgdVqo3T0BCbOmc/Ek06jfOxko0uSOGtt2MOWta+xde1qdmx4NyE2n1IAEJGBKABEoKCsijHTZ1N9/Eyqp87U+gLDUHtTAzs2vMuODe+xY/07tDXuM7qkITNbAAiFQnR2tBtdhkhCy8rOwWKJ7M1bASCKRlSMonrqTAWCBNZ+YD87N7xLzfp32bnxPVob9hhdUsTMEAD27a7niYceYNXKFdTuqMHXF581EESGqxSHg5Gjx7Bo8RIuv+Y6Sisqh9xG4gcAi8Ww26uOJWdECRXjp1A+bsrB58k40zONLksO8na2s2fbZnZ/8tHB5010tjQZXdbA7Cn9v61hMDoAPP7gcm679Qd0e72G1SAynKW5XNx6211cfs11Qzov4QPA5H/8FfV/egD3jo/CLiBeLBYLBeUjKR83mdLREygZNY6iqjFkFxYZXdqw19a4l/21NTTW1rC3Ziu7P/koMT7dWyxYpy3ENufv8C3/XlhNGBkAHr7/Pn5+8/cN6Vsk2fzkrnu56obvDPr4hA8AM+97BYvVSuu61ex+9kF6WxvDLsQoaRmZFFWNoXjUWIpHjqWoagz5ZZVkFxRFfI0nmYRCQdqbGmjeW8/+2u001u5g/65tNNbvoNfbZXR5Q2YddRy2M6/EUlINXZ303fn1sNoxKgB8vGkjS+bOwu8Lb+RCRIYmxeHg+TXvM27i4CaomyEA2CPuHcibPp+cKXNofONZ9r/6ND534kwy6va4qd28jtrN6w573e5IJb+0goLSSvJLKykoqyS/pILc4jJyCouxO1INqtg4vt4e2poaaNu/l5aG3bTsrad5bx0t++pp3b8Xf5zW148lS+kYbAsuxTruRKNLicjyu+/Qm79IHPn6+lh+9x3c+/BjRpcyaFEJAADWlFRKFl5C0Snn0vjGczS8+jv8no5oNR93/r5eGg8OWw8kIyeP7IIisguKyCkqJaewmKyCEaRn5ZKVX4grK4eMnDxs9pQ4Vz50fl8fXe1teNpbcLe10NXRSkdzIx0HGmk/0EB7UwMdzU14OxMn2A2VpXwctvmXYB03w+hSIub3+/nrSy8YXYZI0vnL88/h9/mwp5j/7z5EMQAcYnU4KTn9EopOPZfGN5+j8fU/0dd+INrdGM7T3oqnvZW9NVuPelxaRiYZuQWkZ+XgTM/EmZ7x6bMrMxtnegYpqU5SUp3YbHYcaS4sFgvOjKFPWOx2dwLQ6+0iGAzg6+mhr8dLT5eH7i433Z5Oero89HS56eny0NXRhrutOSGH6KPFMnIytlMvxDpmutGlRE39zh14OjuNLkMk6XS53eypq2XkmLFGlzIoUQ8Ah1gdTkoWXkLJgotp37yWfauewrNzc6y6M61uj5tuj5vhF4ESmD0F6/iZ2E4+D0v5OKOriTqPW2/+IkZxJ9DvX8wCwKcsFnKmnETOlJPw1G6l8W9/om3DmwSHwfViSSyWrHysM8/CNuMMSM8yupyYyc7NM7oEkaSVm5dvdAmDFvsA8DkZIyeSMXIige4uWta9zoG3nqdr9/Z4liBJxmKzYxk9Deu0BVgnzgZrwq95dUwVI0eRV1BIa7PGnUTiKb9wBGWVVUaXMWhxDQCH2NLSGXHyYkacvJiu3dtofucVWtf/DV9nqxHlyDCUXjGWgtln0jvpFFptyXXHhtVqZfHSi3j8weVGlyKSVJZcfGlC3T4elXUAoiIUwr1rM63rVtP64ev43G3RaVeSRlpxFXnT55N/wgKcRRUA7PH20twb4eWmBFwHYG99HWfNmqbJgCJxkpmVzSsfbKS4rHxQxw+bdQCiwmIhs3oKmdVTqLzgOjq3rad90xraN62lt9U8m6mIiVgspFeOJ/f4ueRNm4ezsMzoikyjrLKKOx94mBuvWEbA7ze6HJFhzZ6Swl0PPjLoN3+zME8A+ByL1Ub2hBlkT5hB1UXfxrtvF+2b19K+aS1ddVsJBYNGlygGsaVlkD1hBjmTZ5M9cRYpmTlGl2RaZ5+/lEf+uIJbrr+Whj27jS5HZFgqrajk9l89yKmLvmJ0KUNmygDwRa7SUbhKR1H6lWX4vW7cNRvp3LaOzm3r6N5fZ3R5EkMWm52MqglkjptG9rgTyKiejCUJJvJFy7xFZ7Bq3WZW/uEZXn1hBTu3b6OpocHoskQS2oiSEqrHjmPR4nNZfOHFpLlcRpcUFvPMAQiTr7OVzk8+xL1zE55dm/E21Jp2h0I5NovNTnrFWDLHTiVr7DQyq6dgdTjDbi9Z5wCIiLlpDkAUpGTlkT9zEfkzFwEQ6O7CU7sFz64tuHdtxrt7O36v2+Aq5UgcOYX9t4eOmkTGyIm4ysdiTXEYXZaIyLCX8AHgi2xp6WRPnEn2xJmfvtbb0kDX7u1499QcfN6eUBsWDRepkAS+YQAAE2xJREFU+SW4ykeTXjYGV/loXOVjcOQUGl2WiEhSGnYBYCCp+SWk5peQN23ep6/5PR14G3bRs7++/7mxHu++WvxdibuBkVk4cgtxjqggraiStOIq0oqrcJWNxpaWbnRpIiJyUFIEgIHYM7LJGjuNrLHTDnvd73XT27yPngN76W1uoOfAXnqa+7/2uds0vwCwWK2kZBeQml+Ms6CU1LxiUgtKcI4ox1lUgS01MSfEiIgkk6QNAEdid2VirxxPeuX4L30vFPDT19FMX9sB+lob6Wtv7v93ezN+Tzs+Twe+zhYCPV4DKo8OW2oa9vRsUrLzcWTnkZJdgCO7AEd2Po7cEaRk55OaV4TFph8dEZFEFtFf8aCvF1tqWrRqMT2Lzd7/aTevGEYfd8TjQn4fPk87Pnc7gW4Pfq+HQLcbf7eHgNeDv9tDsLeboK+PQI+XUMBPoLuLoL+PYF8vQH+ICPWvdxAKhQh0ew7rw5aW8aUlJ23OdLBYsDldWKw2rI5ULPYU7GnpWFNd2FLTsDnTsTnTsLkysaWmkZKRgz0jG3t6Fvb0bE3AG0DI3xv2uY7U5FqGWEQShx0IEuZtgD1Nu0mvGH7bqUbKYk/BkVOoCW7DROjAnrDPzS/Qz4CImJMVCHvWW9v6N6JYiog5BbesCfvcvMKCKFYiIhI9VmBfuCc3vfW8Zs3LsBZqbyK44fWwzx9RXBK9YkREosgKvB/uyX6vm9qn/1Mz42V4CgYJPPvr/iW7wjRjzslRLEhEJHqsQPjjm0DrutXseeHR6FQjYiKBlx4muHNDRG3MPmXesQ8SETGAFXgr0kb2vfxbmt5cEYVyRMwhsPppAu+8EFEbRSWlVI/78u2kIiJmYAW2Ah9F2lDtM//J7ud+o8sBktiCQQJ/eZzAX5+MuKmll30tCgWJiMTGoW2EHoy4pVCIhlVPUfM/PyPY1xNxcyJx19uN/8nbCLz5x4ibstlsLPvGNVEoSkQkNg4FgMeBrmg02Lr+b2z55Y101W+LRnMiEQkxuBGpUN1mfA98n+C2sOfEHmbh2YupGDkqKm2JiMTC55eS+xnw46g1bLUx4tRzqVhydUT7uYtEYoenG7fPf+QDer0E/vp//df7o3T5yma3s+Ktd5l43NSotCciw4/fBwGf5dgHHsOEAuuxDzqCz/fuAjYDIyOs5zDOwjKqLryB7EmzotmsyKBs7eyiNxD88jdCIYJb1hB46RFCnS1R7fPqG/+BH99xT1TbjJZQKERnh7bCFolEVnbOl5ZiHyqzBQCA84E/RVTNEWSOPp6Kc68mY9TkWDQv8iW+YIjNHZ4vvR7csYHAqicI7auJep9FJaWsWreZjKysqLcdrn2763nioQdYtXIFtTtq8PX1GV2SSEJLcTgYOXoMixYv4fJrrqO0onLIbZgxAAD8Brg67BaPIWfKSZQvvhJX2ehYdSECQHNvH3u8n23kE9qzjcCqJwjuivimlwHZ7HaeeP5l5sw7LSbth+PxB5dz260/oNubuDtUiphZmsvFrbfdxeXXXDek88waAFKAV4FTw251EDKqJ1M8fym5U0/FYg3/P0DkSLa7vXT5/AS3vU9w7cqIF/U5lp/efR9XXn9jTPsYiofvv4+f3/x9o8sQSQo/ueterrrhO4M+3qwBAKAUeO/gc0w5iyoonr+UgllnYHVo61SJjrbODna+8TzBd18g1NYY8/4uvPwK7n7wf2Lez2Bt/WgD554yG78v/GWMRWTwUhwOnl/zPuMmDu4yt5kDAMAE4K9AXHYzsbsyyTvhNApmfoWMUZPi0aUMN6EQnTUbaX73FVrWrSYUp/Uozll6Ef/x6G+x2+1x6W8wvnvlZTz39FNGlyGSVM5fdhn3PvzYoI41ewAAGEt/CCgPu4cwOEeUkz9jIQWzvkJqvnZTk6Pra2ui5YO/0vT2C/Q2h725ZVjOvuBC/vPR32JPSYlrv0fj9/uZXl6Ip7PT6FJEkkp6Zibr9xwY1N+DRAgAAGOAFw8+x5fFQubo48g9fi65x80lNb847iWIOfU07aZt49u0ffQWntqthixBvfSyr3HH8t+Y6pM/wM5tn3D6NI2iiRjhtY0fM3LM2GMeZ4YAMJi/XDXADPpXCzw37J7CEQrhrtmIu2Yj9X9cTlpxFTlTTiJnyhwyR02GCO/DlAQSCtG1Zzvtm9bSvmktXbuNW2nSYrHwnVv/me/e+pOI7wWOBY9bn/xFjOJOoN+/wX506QSWAr8A/onBjRxEXff+Orr319Gw6ikcuYVkj59B1rjpZI2bTkpWnhElSQz1tjbi3r6ezm3r6fj4fXzuNqNLIjMrm/sefYKFZ51jdClHlJ2r3wURo+Tm5RtdwqCF80a+mP7Ng2J+h8BQpBVVfhoGMsccjz3dPAuxyOD43G10bl9P57Z1dG5bH/fr+ccyY87J3PObR6mqNvcaFsFgkJkjS2ltPmB0KSJJJb9wBO/V7hvUyGCiXAL4opXAJOBO4Nqwe46y7sZ6uhvraXzjWQBS80vIrJ6Cq2Is6ZXjyKgcj8VunolayS4UDNDTuBv3rs14dmyia/c2uhvrTbmdtM1u59s338qNt/wYm81mdDnHZLVaWbz0Ih5/cLnRpYgklSUXX2rKy4JHEmml5wL3Aabf9sya4sBVPpaMqgmkV44nrXQkaUWVWGzmmsA1HAV9ff2Xbxpq6ar/BE/dx3j31BAKHGWTHpM47oQTue1XDzB56nSjSxmSvfV1nDVrmu4EEImTzKxsXvlgI8Vlg7tpzgwjANGIKg7gW8C/AQk17m6x2nDkjiCtpIq04pGkFVeRVlKFq2SURgvCEAoG6Gtroruh9uAbfh1du7fR07SbUHCADXlMLDcvnxt/+GOuuO6GhPjUP5AX//xHbrxiGQG/+YOWSCKzp6TwX48/xZnnnj/oc4ZLADikmP4tha8kvEsLpmGx2UnNLyE1v/jg4/Cv7a5Mo0s0jN/TQW9LA70t++lt3d//3LK//7XWxoT4VH80KQ4HV3zzer77o5+QmZVtdDkR+9uqV7jl+mtp2LPb6FJEhqXSikru+PVDnHL6oiGdN9wCwCHVwA+Br9O/r8CwY0tLJzW3CEdOIfaMbFKy80jJzCMlIwdHTkH/a1l5CRUU/J4OfO62/kdnKz53O77OloOvtdPXfoC+1kYCvd1GlxoTKQ4HF3/tSm74wQ/D2tnLzLq9Xlb+4RlefWEFO7dto7HBXJMrRRJNUUkp1ePGsWjxuZyz9CLSXK4htzFcA8AhVcAt9I8IOGPYj2lZbHbs6VnYnC5sqS5sroz+Z2catlQXVmca9rQMbM50sFqxO9M/XdvAYrNhS/3sh8rqSD3sskTI10fQ99m2roEeL6FgoP97oSCBHi8EAgR6vfi9HgK9XoI93QR6vQR6vAS6uwj0dBHo7cbf1Znwn9zDZU9J4cLLruDGW35EWWWV0eWISJIY7gHgkGz6Q8D36A8FIobLzMrmwsuv4Np/+D4l5RVGlyMiSSZZAsAhduB84AZgfpz7FgFg7MRJXHXDd7hg2eU409KMLkdEklSyBYDPKwcuA/4fRuwxIEnFmZbGwrMX8/ffuJaTFyxMqPt0RWR4SuYA8Pn+5wGX0z86UGBsOTJcWK1WTjz5FC7+2pWcs/QiXOnpRpckIvIpBYDD2YCTgIsPPrQPsAyJ1WrlhNkncc7Sizhn6UUUlZhqtWoRkU8pAByZDTgZOAc4G5hqbDliVqlOJ7NPmcfpi5dw1nkXMKJYuVFEzE8BYPDK6A8CZwMLgFxjyxEjFZeVs+DMs1lw1jnMXXC6hvdFJOEoAITHSv+IwGn0h4F59N9qKMNUbl4+s0+dx0nzFzBn/mmMmzjZ6JJERCKiABAdNuB4+i8ZzDn40J0FCay4rJwTZs/hxJPmMmfefMZPPg6rNfwfchERs1EAiJ0RwGxgJjD94KPM0IrkiEaPn8CCM8/mhNknMX3W7EHvpiUikqgUAOJrBJ+FgeOAiQcfSblMsZn89O77uPL6G40uQ0QkbswQABJ6174hagJePvg4xEb/5kWTgUn0XzqoPvgoo3++gYiIyLCTTAFgIAFg+8HHn7/wPQf9exccCgSjDj4OfZ3sdyK0AB8ffGwDFgJnGlqRiIgMWrIHgKPp47NwMJBc+kcJRgDFQOHBr0sOfl34ua8TadH5AND8uUcTsA/YBdQdfNQCbV84rwwFABGRhKEAEL42vvwmeCQZ9IeBXCALyATSAdfB11wH/5158PuHvpdzhPbSOPLcBS/QC3TRH2I8gA9wA36gk/43+Y6D9Tdy+Bv+gUH+N4mISAJTAIgPD0ceSUh6Pd3ddLQPNkuZg9OZRqpT80dFJHEl010AElv/AXzH6CLiKSc3j6LSMuYuWMgZS85j1inzTL/TYDAYxN3ZYXQZIgktMys74rVJzHAXgLn/WkkiSboA8EVTT5zFLT+/jTnzTjO6lMPsra/jiYceYNXKFdTt3IGvr8/okkQSWorDQVX1aBYtXsLXrv0WpRWVQ25DAUCGk6QPAIdcef2N/POdvzTF6oWP/fevue3WH9DT3W10KSLDUprLxQ9/cSdfu/ZbQzrPDAHA+L9QIsPMo7++n3+46nKCwaChdTx8/3389Hs36s1fJIa6vV5+8g/f5pH/+g+jSxkyBQCRGFjxzO+49+f/Ylj/Wz/awO0/vsWw/kWSzW0/upltWzYZXcaQKACIxMiv7vgFH6x925C+l999B36fz5C+RZKR3+dj+T13Gl3GkCgAiMRIKBTi32/5J0KhUFz79fv9vPbyi3HtU0TgL88/l1DBWwFAoiVgdAFmtO7dtWz84L249lm/cweezs649iki0OV2s6eu1ugyBk0BQKKlwegCzOovzz8X1/48br35ixjFnUC/fwoAEi3vGl2AWb39+mtx7S87Ny+u/YnIZ3Lz8o0uYdAUACRa3gLqjS7CjPbv2xvX/ipGjiKvoDCufYoI5BeOoKyyyugyBk0BQKLFD9xqdBFmdKBxf1z7s1qtLF56UVz7FBFYcvGlpl8O/PMSp1JJFL8Crje6CLPZ5Y3vHMm99XWcNWuaJgOKxElWdg4vf7CR4tKyQR2vlQBlOLoR+F+ji0h2ZZVV3PnAw9js2vBTJNbsKSnc9eAjg37zNwuNAEgsWIFHgK9Hu+Gs7BwwaIitM4Iti+M9AnDI31a9wi3XX0vDnt2G9C8y3JVWVHLHrx/ilNMXDek8M4wAKABIrMQkBFxyxbX86z3LDbnONrHQFvaiPkYFAOhfq3zlH57h1RdWsHPbNhob9hlWi8hwUFRSSvW4cSxafC7nLL2INJdryG0oAMhwN6xCQKIGABExHzMEAM0BkFgKAt8gynMCnn7sQX76/W/FfYldEZHhRAFAYk0hQETEhBQAJB4UAkRETEYBQOJFIUBExEQUACSeFAJERExCAUDiTSFARMQEFADECAoBIiIGUwAQoygEiIgYSAFAjKQQICJiEAUAMZpCgIiIARQAxAwUAkRE4kwBQMxCIUBEJI4UAMRMFAJEROJEAUDMRiFARCQOFADEjBQCRERiTAFAzEohQEQkhhQAxMwUAkREYkQBQMxOIUBEJAYUACQRKASIiESZAoAkCoUAEZEoUgCQRKIQICISJQoAkmgUAkREokABQBKRQoCISIQUACRRKQSIiERAAUASmUKAiEiYFAAk0SkEiIiEQQFAhgOFABGRIbIbXYBIlBwKAQBfj1ajTz/2IAD/es/yaDUpImIKCgAynMQsBKQ4HNFqTkTEFCxGFyASA1bgEaIYAiK1yxswugQRMRG/DwK+yN+CJxSEfyVfcwBkOIrJnAARkeFEAUCGK4UAETGtaAy/e7s8kZzepwAgw5lCgIiYUjRuLtq/b08kp7sVAGS4UwgQEdMJBSNv4503X4vk9FYFAEkGCgEiYiqhUOQXAZ575reRnL5dAUCShUKAiJhCKBj5JYBXX3yWde++HUkTHysASDJRCBARwwUDkX3637e7jp9875uRlvGWAoAkG4UAETFMCAhEsCzIti0fccX5C2lpboqkjCCwWisBSjKKyYqBIiLHEvJbwpoA2NnexiO//iWPLr+Xnm5vpGW8AbQoAEiyimsIeOCeO2PdhYgkgICvfxRgMIKBAM0HmtjxyRbefXs1fp8vWmU8AVoKWMR0ywaLiMRQG1CF1gEQ0ZwAEUkq/wm4QSMAIodoJEBEhrsmYDzQDmAzthYR0wgBzwEjgWnGliIiEhM3AO8c+odGAEQOp5EAERmOXgD+js/NQdQIgMjhNBIgIsPNHuAs4LD7BxUARL5MIUBEhotO4Exg5xe/oQAgMjCFABFJdF7gPGDNQN9UABA5MoUAEUlUbcBiYPWRDlAAEDk6hQARSTQb6B/2X3e0gxQARI5NIUBEEkEA+BXwVaDxWAcrAIgMjkKAiJjZ28CF9N/G7B/MCVoKWGTwDi0b/CujCxERof9v0ivAImAu8MFQTtZCQCLhuRT4BVBtdCEiklS6gDfpf+P/HbA33IYUAETCZwVmAzOBInRJTUSirxPwALuBj4EaIGr7AouIiIiIiIiIiIiIiIiIiIiIiIiIiIiIiIiIiIiIiIiIiIiIiIiIiIiIiIiIiIiIiIiIiIiIiIiIiIiIiIiIiIiIiIiIiIiIiIiIiIiIiIgMR/8f4soYcK4ickAAAAAASUVORK5CYII=;" vertex="1" parent="1">
          <mxGeometry x="855" y="340" width="70" height="70" as="geometry" />
        </mxCell>
        <mxCell id="HCuMxB1ecjVolzXwdw-D-52" value="" style="shape=image;imageAspect=0;aspect=fixed;verticalLabelPosition=bottom;verticalAlign=top;image=data:image/png,iVBORw0KGgoAAAANSUhEUgAAAgAAAAIACAYAAAD0eNT6AAAACXBIWXMAAAsTAAALEwEAmpwYAAAUyklEQVR4nO3dP45c55XG4ZsamNlB52Ig5r0DawOMWsY4cCCAViKMmkw8Tg0boMiUaA/H47AWwQYMiAshBtIuetCGgI6qedx/+FW97/MAJyVwb9+651efYNe2AQAAAAAAAAAAAAAAAAAAAAAAAAAA/4LzN29PXr6+eHbXOX/z9tQNB4Aj88siv7rrvHh9sVt9DQDAv0gAAEAhAQAAhQQAABQSAABQSAAAQCEBAACFBAAAFBIAAFBIAABAIQEAAIUEAAAUEgAAUEgAAEAhAQAAhQQAABQSAABQSAAAQCEBAACFBAAAFBIAAFBIAABAIQEAAIUEAAAUEgAAUEgAAEAhAQAAhQQAABQSAABQSAAAQCEBAACFBAAAFBIAAFBIAABAIQEAAIUEAAAUEgAAUEgAAEAhAQAAj+D8zduTX5bsYc4PF69evr64uuu8eH3xYfk13DLnb96eerABOLpv2OZ+9+DF64udxx6Az04ArI0YAQDAEgJAAABQSAAIAAAKCQABAEAhASAAACgkAAQAAIUEgAAAoJAAEAAAFBIAAgCAQgJAAABQSAAIAAAKCQABAHDwrt5tu6v/2a4edN5t1T/GIgAEwEq//a8/P/vtH/5y9dCz9KKAhycAHp4AEAArCQBgRAA8vOvfo7/+RboDng/3+7W9v348gGvYOy9/uPiu+eMvAIARAdDnvicUfm73sAkAYEQA9BEA2QQAMCIA+giAbAIAGBEAfQRANgEAjAiAPgIgmwAARgRAHwGQTQAAIwKgjwDIJgCAEQHQRwBkEwDAiADoIwCyCQBgRAD0EQDZBAAwIgD6CIBsAgAYEQB9BEA2AQCMCIA+AiCbAABGBEAfAZBNAAAjAqCPAMgmAIARAdBHAGQTAMCIAOgjALIJAGBEAPQRANkEADAiAPoIgGwCABgRAH0EQDYBAIwIgD4CIJsAAEYEQB8BkE0AACMCoI8AyCYAgBEB0EcAZBMAwIgA6CMAsgkAYEQA9BEA2QQAMCIA+giAbAIAGBEAfQRANgEAjAiAPgIgmwAARgRAHwGQTQAAIwKgjwDIJgCAEQHQRwBkEwDAiADoIwCyCQBgRAD0EQDZBAAwIgD6CIBsAgAYEQB9BEA2AQCMCIA+AiCbAABGBEAfAZBNAAAjAqCPAMgmAIARAdDn/M3b0xevL3Z3nZc/XHy3+hrYTwAAIwIAsggAYEQAQBYBAIwIAMgiAIARAQBZBAAwIgAgiwAARgQAZBEAwIgAgCwCABgRAJBFAAAjAgCyCABgRABAFgEAjAgAyCIAgBEBAFkEADAiACCLAABGBABkEQDAiACALAIAGBEAkEUAACMCALIIAGBEAEAWAQCMCADIIgCAEQEAWQQAMCIAIIsAgJUL0HTfg3fbzgcwbwGa7nuwkUcAHMDCTBsBsJQAWL8sE2cjjwA4gIWZNgJgKQGwflkmzkYeAXAACzNtBMBSAmD9skycjTwC4AAWZtoIgKUEwPplmTgbeQTAASzMtBEASwmA9csycTbyCIADWJhpIwCWEgDrl2XibOQRAAewMNNGACwlANYvy8TZyCMADmBhpo0AWEoArF+WibORRwAcwMJMGwGwlABYvywTZyOPADiAhZk2AmApAbB+WSbORh4BcAALM20EwFICYP2yTJyNPALgABZm2giApQTA+mWZOBt5BMABLMy0EQBLCYD1yzJxNvIIgANYmGkjAJYSAOuXZeJs5BEAB7Aw00YALCUA1i/LxFn7VPMoBMABLMy0EQBLCYD1yzJxNvIIgANYmGkjAJYSAOuXZeJs5BEAB7Aw00YALCUA1i/LxNnIIwAOYGGmjQBYSgCsX5aJs5FHABzAwkwbAbCUAFi/LBNnI8/Vu+306t32rHb+e/vw4Avw+t9cfV1r53T1c93sd3/808k/I6B0/uMPf371KEvwAK5t5WyQ5lFOQHwDhrgTEH9SCCMAIIsAAEYEAGQRAMCIAIAsAgAYEQCQRQAAIwIAsggAYEQAQBYBAIwIAMgiAIARAQBZBAAwIgAgiwAARgRAnp++f/rs5/OnV8vm+y93q+9BMwEAjAiAPAKgmwAARgRAHgHQTQAAIwIgjwDoJgCAEQGQRwB0EwDAiADIIwC6CQBgRADkEQDdBAAwIgDyCIBuAgAYEQB5BEA3AQCMCIA8AqCbAABGBEAeAdBNAAAjAiCPAOgmAIARAZBHAHQTAMCIAMgjALoJAGBEAOQRAN0EADAiAPIIgG4CABgRAHkEQDcBAIwIgDwCoJsAAEYEQB4B0E0AACMCII8A6CYAgBEBkEcAdBMAwIgAyCMAugkAYEQA5BEA3QQAMCIA8giAbgIAGBEAeQRANwEAjAiAPAKgmwAARgRAHgHQTQAAIwIgjwDoJgCAEQGQRwB0EwDAiADIIwC6CQBgRADkEQDdBAAwIgDyCIBuAgAYEQB5BEA3AQCMCIA8AqCbAABGBEAeAdBNAAAjAiCPAOgmAIARAZBHAHQTAMCIAMgjALoJAGBEAOQRAN0EADAiAPIIgG4CABgRAHkEQDcBAIwIgDwCoJsAgFucv3l78vL1xbO7zvmbt6cpN1gA5BEA3QTA7c6+fX/ym99fPrvrnH3zPub9X+mXRX5113nx+mK3hRAAeQRANwFwu+sl/vXzy6t7zO4z/Sl5DALghgDIIwC6CYDbCYByAuCGAMgjALoJgNsJgHIC4IYAyCMAugmA2wmAcgLghgDIIwC6CYDbCYByAuCGAMgjALoJgNsJgHIC4IYAyCMAugmA2wmAcgLghgDIIwC6CYDbCYByAuCGAMgjALoJgNsJgHIC4IYAyCMAugmA2wmAcgLgxtW77fTq3fbsgcf/VeZCAqDb7/74p5N/RsADzxZCAJQTACQTALCfACgnAEgmAGA/AVBOAJBMAMB+AqCcACCZAID9BEA5AUAyAQD7CYByAoBkAgD2EwDlBADJBADsJwDKCQCSCQDYTwCUEwAkEwCwnwAoJwBIJgBgPwFQTgCQTADAfgKgnAAgmQCA/QRAOQFAMgEA+wmAcgKAZAIA9hMA5QQAyQQA7CcAygkAkgkA2E8AlBMAJBMAsJ8AKCcASCYAYD8BUE4AkEwAwH4CoJwAIJkAgP0EQDkBcLyLzXz6Hvzff3756ufzp1er5qfvv/zg7zR7Vj+ePz1Z/blqIwDKCYDjtHKpGffgcWLp6bPVn6s2AqCcADhOlrAlnPYMCIDPTwCUEwDHafXL2rgHAuD4CYByAuA4WcAWcNoz4ATg8xMA5QTAcVr9sjbugQA4fgKgnAA4ThawBZz2DDgB+PwEQDkBcJxWv6yNeyAAjp8AeGTnb96e/LJkD3N+uHj18vXF1V3nxeuLD8uv4ZY5f/P2dAtkAVvAac9A4gnA2bfvT66X7MHO88tXXz+/vLrHfFh+DbfM2TfvT4/6G7a53z148fpitwVa/bI27oEA+CzfsM3ze92Dte9/AbA2YgSARSVWjuMZSDwBEACXqwNGADSfIgiA9S924x4IgOWLsHV2SwvQCYAAeAyWqqWa9gw4AVi+LBNnt60kAATAY1j9sjbugQD4NP8J4FIArD4Gbx7/CcCiEivH8Qw4AVi+LBNnt63kBEAAPIbVL2vjHgiAT3MCcCkAVn8Lbh4nABaVWDmOZ8AJwPJlmTi7bSUnAALgMax+WRv3QAB8mhOASwGw+ltw8zgBsKjEynE8A04Ali/LxNltKzkBEACPYfXL2rgHAuDTnABcCoDV34KbxwmARSVWjuMZcAKwfFkmzm5byQmAAHgMq1/Wxj0QAJ/mBOBSAKz+Ftw8TgAsKrFyHM+AE4DlyzJxdttKTgAEwGNY/bI27oEA+DQnAJfdAXD9e/TX30IPeD7c7xv2Xz8ewDXsnZc/XHy3BbKALeC0ZyDxBOD69+ivl9ABz4d7LtiPB3ANe+fs+WXk+/9gTihSj9gP3eqXtXEPBMDxe4ATit3qa+AeBMBxsoAt4LRnIPEE4NAJgHIC4Ditflkb90AAHD8BUE4AHCcL2AJOewacAHx+AqCcADhOq1/Wxj0QAMdPAJQTAMfJAraA054BJwCfnwAoJwCO0+qXtXEPBMDxEwDlBMBx+vn7L3fm0/fgp++//LA0Vr7/8qO/0/BZPX96uvpz1UYAlBMAJLs+Vl4cAP530hwsAVBOAJBMAMB+AqCcACCZAID9BEA5AUAyAQD7CYByAoBkAgD2EwDlBADJBADsJwDKCQCSCQDYTwCUEwAkEwCwnwAoJwBIJgBgPwFQTgCQTADAfgKgnAAgmQCA/QRAOQFAMgEA+wmAcgKAZAIA9hMA5QQAyQQA7CcAygkAkgkA2E8AlBMAJBMAsJ8AKCcASCYAYD8BUE4AkEwAwH4CoJwAIJkAgP0EQDkBQDIBAPsJgHICgGQCAPYTAOUEwI0fnzzZ/fjkydUDz27hn7eeAOj2b1/977N///Xfrh56thACoJwAuCEA8giAbgLgdgKgnAC4IQDyCIBuAuB2AqCcALghAPIIgG4C4HYCoJwAuCEA8giAbgLgdgKgnAC4IQDyCIBuAuB2AqCcALghAPIIgG4C4HYCoJwAuCEA8giAbgLgdgKgnAC4IQDyCIBuAuB2AqCcALghAPIIgG4C4HYCoNz5m7enL15f7O46L3+4+G4LIQDyCIBuAuB2Z9+8P/36+eXurnP2/DLm/U85AZBHAHQTAMCIAMgjALoJAGBEAOQRAN0EADAiAPIIgG4CABgRAHkEQDcBAIwIgDwCoJsAAEYEQB4B0E0AACMCII8A6CYAgBEBkEcAdBMAwIgAyCMAugkAYEQA5BEA3QQAMCIA8giAbgIAGBEAeQRANwEAjAiAPAKgmwAARgRAHgHQTQAAIwIgjwDoJgCAEQGQRwB0EwDAiADIIwC6CQBgRADkEQDdBAAwIgDyCIBuAgAYEQB5BEA3AQCMCIA8AqCbAABGBEAeAdBNAAAjAiCPAOgmAIARAZBHAHQTAMCIAMgjALoJAGBEAOQRAN0EADAiAPIIgG4CABgRAHkEQDcBAIwIgDwCoJsAAEYEQB4B0E0AACMCII8A6CYAgBEBkEcAdBMAwIgAyCMAugkAYEQA5BEA3QQAMCIA8giAbgIAGBEAeQRANwEAjAiAPAKgmwAARgRAHgHQTQAAIwIgjwDoJgCAEQGQRwB0EwDAiADIIwC6CQBgRADk+Xj+9OQ6AlbNz+dPT1ffg2YCABgRAJBFAAAjAgCyCABgRABAFgEAjAgAyCIAgBEBAFkEADAiACCLAABGBABkEQDAiACALAIAGBEAkEUAACMCALIIAFi7AE33Pdj5AOYtQNN9DzbyCIDlyzJxBMBCAmD9skycjTwCYPmyTBwBsJAAWL8sE2cjjwBYviwTRwAsJADWL8vE2cgjAJYvy8QRAAsJgPXLMnE28giA5csycQTAQgJg/bJMnI08AmD5skwcAbCQAFi/LBNnI48AWL4sE0cALCQA1i/LxNnIIwCWL8vEEQALCYD1yzJxNvIIgOXLMnEEwEICYP2yTJyNPAJg+bJMHAGwkABYvywTZyOPAFi+LBNHACwkANYvy8TZyCMAli/LxBEACwmA9csycTbyCIDlyzJxBMBCAmD9skycjTwCYPmyTBwBsJAAWL8sE2cjjwBYviwTRwAsJADWL8vE2cgjAJYvy8QRAAsJgPXLMnE28giA5csycQTAQgJg/bJMnI08AmD5skwcAbCQAFi/LBNnI48AWL4sE0cALCQA1i/LxNnIIwCWL8vEEQALCYD1yzJxNvL848mT0x+/+OJZ8Xx48AV4/W+uv65lc/1MrX6um/3qq7+fXEdA7fz6b68eYwEuv67Fs0GaRzoB8Q0Ywk5A/EEhjACALAIAGBEAkEUAACMCALIIAGBEAEAWAQCMCADIIgCAEQEAWQQAMCIAIIsAAEYEAGQRAMCIAIAsAgAYEQCQRQAAIwIAsggAYEQAQBYBAIwIAMgiAIARAQBZBAAwIgAgiwAARgQAZBEAwIgAgCwCABgRAJBFAAAjAgCyCABgRAD0Ofv2/clvfn/57K5z9s3709XXwH4CABgRAH2ul/jXzy+v7jG71dfAfgIAGBEAfQRANgEAjAiAPgIgmwAARgRAHwGQTQAAIwKgjwDIJgCAEQHQRwBkEwDAiADoIwCyCQBgRAD0EQDZBAAwIgD6CIBsAgAYEQB9BEA2AQCMCIA+AiCbAABGBEAfAZBNAAAjAqCPAMgmAIARAdBHAGQTAMCIAOgjALIJAGBEAPQRANkEADAiAPoIgGwCABgRAH0EQDYBAIwIgD4CIJsAAEYEQB8BkE0AACMCoI8AyCYAgBEB0EcAZBMAwIgA6CMAsgkAYEQA9BEA2QQAMCIA+giAbAIAGBEAfQRANgEAjAiAPgIgmwAARgRAHwGQTQAAIwKgjwDIJgCAEQHQRwBkEwDAiADoIwCyCQBgRAD0EQDZBAAwIgD6CIBsAgAYEQB9BEA2AQCMCIA+AiCbAABGBEAfAZBNAAAjAqCPAMgmAIARAdBHAGQTAMCIAOgjALIJAGBEADy8s2/fn1wv2YOd55evvn5+eXWP+bD8Gm6Zs2/enzZ//AUAMCIADvIbtrnfPdg1f/wFADAiAB6eAFgeMALg13+7eujxSoUw/3jy5PTHL7549pBz/W9uxQSAAFjpV1/9/eT6FOChZ+lFARwDASAAACgkAAQAAIUEgAAAoJAAEAAAFBIAAgCAQgJAAABQSAAIAAAKCQABAEAhASAAACgkAAQAAIUEgAAAoJAAEAAAFLr+PfrrX6Q74Plwz1/b+3gA17B3zp5ffrf6GQCAxBOK6p/bBYCjJAAAoJAAAIBCAgAACgkAACgkAACgkAAAgEICAAAKCQAAKCQAAKCQAACAQgIAAAoJAAAoJAAAoJAAAIBCAgAACgkAACgkAACgkAAAgEICAAAKCQAAKCQAAKCQAACAQgIAAAoJAAAoJAAAoJAAAIBCAgAACgkAACgkAACgkAAAgEICAAAKCQAAKCQAAKCQAACAQgIAAAoJAAAoJAAAoJAAAIBCZ9+8P/36+eXurnP2/PK71dcAAAAAAAAAAAAAAAAAAAAAAAAAAAAAAAAAAAAAAAAAAAAAAAAAAAAAAAAA2138P7GIoC/cjzSLAAAAAElFTkSuQmCC;" vertex="1" parent="1">
          <mxGeometry x="880" y="186" width="80" height="80" as="geometry" />
        </mxCell>
        <mxCell id="HCuMxB1ecjVolzXwdw-D-53" value="&lt;b&gt;BI &amp;amp; Reporting&lt;/b&gt;" style="text;html=1;align=center;verticalAlign=middle;whiteSpace=wrap;rounded=0;" vertex="1" parent="1">
          <mxGeometry x="865" y="266" width="60" height="30" as="geometry" />
        </mxCell>
        <mxCell id="HCuMxB1ecjVolzXwdw-D-54" value="&lt;b&gt;&lt;font&gt;Ad-Hoc SQL Queries&lt;/font&gt;&lt;/b&gt;" style="text;html=1;align=center;verticalAlign=middle;whiteSpace=wrap;rounded=0;" vertex="1" parent="1">
          <mxGeometry x="855" y="410" width="80" height="30" as="geometry" />
        </mxCell>
        <mxCell id="HCuMxB1ecjVolzXwdw-D-55" value="&lt;b&gt;Machine Learning&lt;/b&gt;" style="text;html=1;align=center;verticalAlign=middle;whiteSpace=wrap;rounded=0;" vertex="1" parent="1">
          <mxGeometry x="865" y="520" width="60" height="30" as="geometry" />
        </mxCell>
        <mxCell id="HCuMxB1ecjVolzXwdw-D-57" value="" style="shape=image;imageAspect=0;aspect=fixed;verticalLabelPosition=bottom;verticalAlign=top;image=data:image/png,iVBORw0KGgoAAAANSUhEUgAAAOEAAADhCAMAAAAJbSJIAAABOFBMVEX///8AAAAbGRj8/Pz4+PgZFxYWFBP29vanpqYJBAC0s7N6eXnz8/Pk5OTq6uoSEA7BwcFQT08uLCvf3+CwsbLV1dY+PTza2tu4uboOCwloZ2fW1tfMy8v89POKi42srK6TlJaDhIaZmJhvbm4lIyLbQy/XTkCfoKJcW1rHxsZ9fHwwLy746unwzszMNSTRRTf34N7ttrHAPTVEQkLHOy/gnZnbgHrFNCfPTEDJKRTtw8DqtbHSUEPVWk/cfHT45OPfcmfeSzfcZ1znhXrpnZW9Kh7jWUfbtLKdYmCPhIXIWFKyPDWpXluccXCpmpral5PDaGPDpaS+Hw25fHq4lJLZi4fCd3PBjInNY1vVfHe/GgDjjobhbWHfXU/VOCTvq6TepaLXMBTLUkjexMPWqaa7Uk24KyOvBwAZ2J1iAAAXJUlEQVR4nO1da0PiyJpOkXA1CdEQEyQQ7hCFgIqieANbnF330nPc6TM6tOh49sz+/3+wb1XuAdvunnYkHJ4PkgsJ9dR7r0pFilphhRVWWGGFFVZYYYUVVlhhhRVWWOFfHDTz3i14WzA8x793G94SrCiLHEe/dzPeDLws5TBD9r0b8kbgVFWSZJ5hllRNOV3XVTFONpdQTWlRUATVJsYun5pySkoRXMHRy6amvKJlUrJXMXlumUIiIyS0jOBntFRCzDUSmgYUJY71SJFfGl/DauUGUBQlIQOWqOY4no0zmBy/JL5GKpbLOqslFFBWThIEQSchEQd9fhmESGuFYlkEeSU0gRxgeFECQFojcssgRL5YKBYlvJVLaLp9lGZYngcR8uEXolwCgpq5rXoommCXQIj0T//27wXBoqGCN/XIjOHEZRAi1b35j//8r//OkW05k1HsGMhwOZmn6PALEcT48bb3x97Pv/4tpRDI+CArSxJJaZglECJFtce9g483t+O9n//nFwiIOo8rKCcBXwIhUlTrea8FRD/1er1+7+bvv/5NyLkn2fj7NezHIX83bsPHU3/v7rl3e3tsHN19Oum28vgczS6DnlLU+e0AiB71u/l8q33ydPh8fHzce767P/hHdyksEXD/G1A8GB/Y+/n2wVmng9W2c3b4NLh4z7b9INz/1qZa/WevwA77nc5Rp2MYIFDj8tNT29Tb0OK836XujK6zP3g+nrSP262Li+7g6dP5GfA0zs4P2uEVJ310lD85frL28ofHRyDU44FzOt89OewcG/3O2flJd/4tFh2t3k3LuDO32x1jAgrb6jwFvnNy2ul0+v3+8CSMshwYn577xNSujA4RXv504vsGfXIGmlo/Nfq9vnH2qR06u/zUP+rjqHFunJkSos8uvecHZ8f1XXp3mO/uHgLLvnF6OAhXLKEhPhxQeZCTLZxhxz3bvZwaj0Do/NDcfboEkv2jT6EyyoHROcufdk4d7Tuv2Zv5ybQ2ITvTK/tsfnB4ZIC6DkKkrXedzmWn4zqRydSS0OB0emludn8feC4gJI2jg9Zf2Mg/hbZR73QOXZFcTXHCStGT2vTROvQ4Dahl/uTOMPYOwiLHYacOHIcnVnt3CbHuQ+3BoXV5OutcWh8hvzsIh9M56dcBndp0uIsVbzCFcLFbq02c1l/UPgSvybc/nuEU9mgQPLOIyNc7D7URFuRoNNy9aNeG1KQ22nW/sDv188i3JxA4jP7hHXC8C0MacF57BO9Rq40IyYf6w3A0anvOf556Da49AT9j9CeDfP7o/N7o9Z7+4uZ+B07MYNB9vKyP6gQjr9Da06Gz3XqqA7uzA9IBw16eat/1xzcL71W700Nrq9X+XK9f16+vR5ePTrM/OEraPq8ZxuWB5YFOfjshH1BQLrw1Ts/trfb16OF6NLoGjqOJaWEXtWvic+jdy+m0ftW1HdCFMTQ3Wndjt4xeUDwMrY3BqHb1YfThwwiTBI6YzYcajh75x/q09sFrnXeGI+Wn8fh+sePGuZVsP9ZqV63RCPzKYGhybFPt2nWeal1Np5e7vgB/5dSVgPbe+Gahw//kjEjgCggCSzMH7X6oYV19/Dx6zF/Vpj7xUTgTGnp3Wzfj50X2N1eE4QQTpB5qdksH15ji9fXk+vdJMOjlOx0/ofzdQlN8fKApejjCBteeugVw65pgNJlVwKFxEjz083hvcSlenVH5S0IQ/IqTjbaJBDFmgsGBcR48RFH34+eFtcXJ54sHk2B+6qSgV7XR6MokWfMPbFDtfmcOF/rn8d2ietThw0OnRhLR3anlUS4+j2rDPISN3QfsVIfepuc70/acu1D55/H9m7f1+wB5mknQiYyPtRHo5uMIp2+7IMfRg0dol8bj7D0w8nvjj2/b0u9EvmYTbP9OhNP6UBtdQc4JakrOf6jVR58dKV4Zh3Pv0rpo3+/dzpXue6Nbq1u+ZPKA/w6ua3j4ogXKaX1jFyjavmXgDlpZaLVPPt7f7I1/++12vJhCfBzVJ6Tr87UBHr6YjogWfh49OHJrQ11lZgIXHcMTFLqDj3e9/u3tuH9z/zRotxbU0ww7UOGfAcfdBzx8Mf1AKFzVrj1xvgW+CAuaPjNMPaRbg4M74/j4du/u00l7cSMhRgv4dYiveTihHqdW9BvUfFUwpogT1kNcStHdk0M8bdMns6rv0uhvwuC43b6sAcWrh4vh71YCc3FdCzjM1unoEKLJbuvk/BSzO38KzQj/cErh8ACVPVieldHQl8EoT6T42KkDO+P0MFSTNBdmBjYBRR05YpvUhsHv5dvDjtExzg5DN9H2iQxSnJzWR2c1OwHdnT74NTA/OKxPjc75bjcsmukib9TzVP4cgv4V3Rmax7qjmldO+cGwM52eHbQXNBa8givjiTrpd+rY7nZ/J44x/+AZIG3tDqfH9fOTELjM+Wj1z7qHRr3ex46lNSXJ27kzYXGB6Z1NQuM052HSuzwDH9Mj3oY+wx+P1uBi9/Gz8fvDQTecumkDKr1O5+ioZyWd5x08AnNJY3oP0+nDY9jc5gzoG+PkrnPUs8u/yTGVPz296B6cHhuX4acHeDKG1EGvd2fb2dNx67xzeTk9vgy7clq4MDotqms8O+tKBsZ5B8L6xzbLMMwSUKSfjQF+EMqWIN0+7Bn18wELiC8BP8hmbg+o/MQe+OxegfHd/a/I8jwTZ60VJuHG4Paeaj/3zSCPJ+Z7n/6BlyPw+MFvGqtpyDl2x3fUx3EfFwld0E4Qn8xxfJzmrUfZ6bAzzPfuQIA9iAjtu1vj6P4feMEMUHIYwmaoKdJ3z/gh7y51cmMYN7+qsmwtIAWG7pK9MDO8/+O5t9dvD27G45//JuVk58Fnml+ONYif/tgD3D+Pe38X8KouV1hLssry4xgT3Bs//yqoeKWFKjqnmKVY7vxECP4B/PQcp6o8JUkOLXYZ1gI/YRX94+YXRRAZKqfnKIp39ZTnPN8MqTPFKvrHP38RVGxwcV3FMhMle1G362josOamoKLAT7H0MicQRnTOpuiYIRPWxO1pjPmJlrGxgmRu2BRp8wUSVDy0yffT/z3/khGcXclZYMnIOZnBr3HBBxhIbMLJDwg+0Zom2bu84gY/WsQLLLGjCTE/6umfFxST0Jzo512Th19Tg3Nv/LKhsPKjfvoJ/gBDOyDIgv98XIT0WwwvPypvFvMOQ1YJpC8MJ4viEqQ0Cc3STUH0HY+LksiDDAMUQyhRxXqVguRbi8/KEgQKcKW8yHvzttCkNZ5Gq5pGXvKR8iz35SWVhEgOu1Lf2zHCwtBbEfEJHC6YjKOjjKhab1KiZaKiLO+WweFgSHO+3YymsZRg+VGalyBDtZNS2TqIObIkaQsHQ93fSknTFFXDOorpmRm4CdlNu4Ejy4ZlYDgTWF9PZzIZUFRe1hVFkD0nWU+tT9FxPDAcCoaKGjwiaZlMCmgqkn/EIufXZqif4vEQ1MNywbfLinpKA4YZIRdMXngpSAcoLj5DuqC425yuNRqNRAYznJEsLQVFSNT0zVv4Z6Fsm1EB2CWKxUZCgICgaFhHA3ygzvfJNI5dDb34RSJTKjFQDulasVDWdDMj4xMJXtRSKX96xnt8qhUugN3il1FqqaAnCqViRnVzMQG/5EvNpBRfdqZK7jZPZjDw1uLn4Y1SoajkfO3kGw28jyl6BJRTnQEaXnRSU2bxX+RSKDWCh1IN08moGcUtnzjdMsu4KHsqRHbhHU28VCoGLElsaFazJaBo8eJ1U0dxheEV+OKbITAsBN7+mGg4KTeXUhQVc4jrOlZHPidxPrUMw7t4CqWSP28RGm58pFgB8jaRYnSBh3CiSsEcIL74joZKlEq+0C6XGz4WkiIouiqIcVnNzdIJwxujpO1SwrPLl8uBQM8L5pshxTlk6FAMSpVKJVc2dKMceI0gr4KeCro5exEEG4qpxNx2SbO36UQx4z3HyEpGkBlJ0IGjPMsxJK/fy5RK9rhvpthwaTCioJnlkyDwrApilAOek+YXPhoS0OVSwbS9TLHovCMR6GWswQueFJCsjGeDZd6TaodDSQF0sVTC8RwImsMwrJRpaG6erSv2UxgyfhVtTuasaYuQKCmF/UuplOC0An4va1wUGo2M5Gk7r7gpN4hNlHM52XwbbZjmu5VSoQAZOCckoIQKNFxQAkkPw0JpIXJcuB7KEIFgsajNJC0QMFPBShgDyouw/asEWsEUpZnj3OxoBhXn8BNSXJiUlIDX8AuEA5rH+mpEDIaH8gLCBCOGSklNiBqIUfDqHqNkfKrI8DnVKi/4cE6zcRAxyh6OiuYxQlaEiOjw4vxTb+EBqzeKxYxozsMomjNPwamCoHrEFpdDqKQ2RKVRbkC9FFfIIwtxCPTk/3j4B3PmpKkhAmTc+B8HaAqeukhlMoIUzEBpeV4MCRXw8DdGJjUnRuIsNZR+JghW1JVMRtFz3MzItgyWSh76CkMJ/EWAi5GApiLoEATd57z4HA/ZbEEpU6V3bd6PAtAkzob8mwsZcm5ezuEBfUGucGs//ucSCSuN4hNanJIT32YPTLlS+l7VYnBhIZnAfgaKDmVN+/FqitCmuVFGiKcS6NsC7xZa36IqZKjiu/9nDE2bE780y8bfor6IbiDTUe/HIjzFCd8WllAFshGUgq1MQtAWMy1Jb22QmQYRraWdDnQeTTY9u9OzznHGGgxEBTiIFPy8UyWhJBbSEyYLaxv4s9AsJ3lKwwJVNxBCQLtZWcOa24C9LH5WRIENVIYNdgs21nlKQFGEKvgPlaC2EgI/WxktAJIlldheNVUGNhlgKKOmzBVBMFuRzUQB7LPIiRWkgzYWOK4MKklvxnRO3ajGWRmtyZyAyiIwrJQ5SX5vNvOQ3KawXHKILVoMK1XsT9fXqAocoBhEHPjmJqUjTKCsUimEZSXiy0wtBTvkEgqtld+VyUsAhhXwpqUmZTNMVqxTFQR/dEIHVJXjUbZEHmJeqxJ3FGl6GALFRmb+L7w3gKEOagqttBmibevUVpXCxkdUD3/IzSSYHU8194lH2V/3MlxcAEMKNUBJXYZEhjxvMhQQGWwxAyWvr6EmVdkhMtxohofhWnMbWmszXCcpANAjDHlUxLvNKqWs441t8JskgrKoFA6GWCdVhASXoYoKNGhlwmRIrcE5ugzRAx+n+eoWxaY3eYpdxzxNhqWFrs+xq2Qi2KcUkBUPEwilsYCaWfwFuoKyCDPBeV0Eh0EqtwkbVeyB8NfoJo6aiwuSr5DFRywklixJLlmdPFFgL0niFHMpD5ihYq7loSXFfCaNDEXQOXkhk5kVVlhh0ZDTimuVtVIjNVvj0RI5V9BywTNxnv+qWU0xg2+wXc68W2bOF6tQDiWzSVweVf0TRtJa0jlXLfhHNXFdVaFeQby84948qrz29TeBFkOxiAPkTaC5LZSMOqdiZnnoIIEiydeGjoQN380Lr3z9TVCAJkSRjZg3B1NQMhKJZq1TadhG6x61/AqGDXzzrHvz4lsweAUNFImks9v4cU+a1ws7HoYaAvmhdAWvwWZzmXXMMbnjUnydoYBvjio6voZXy5vvIUMWWGT3Xf9Ca46p4OZFcLlkQ92HI8l9Z/91hpFYJLbhMWwl8fJ33woZFIlG5k6L8DEwIORrEr2FvLb0KkPcR2jGBf/FWMtGsvP9IWET7PP1LNii3eZXGZZQJL3/pS/8FViPRdDc8ZUcJjjTfjYNSr1l7bzKcCv7urN9czTTETR3OqSSBSOajefYMVljyK8zhHtkmy+fZtVEuZzypgFkUQn+lARdJKv0A4+c4rdmOYUMryaKZWXe9Yx5PSmPtoHI5pxfZ8ADoeLscT4GxxtfybCAu+OlyordrpoxZNN5mJESstUq2IyCk4QNmkrEqtV97/VCGg7YLVmLWNe73l9JVyNQ0qfwnYGVUNZUCHmRuUx0fHxeYQual17/SoYq9r0vZD0KhMdoOpuOQThZt+cSBBRLbsF9wcfFdmiKT8ZiyJtjNZMx2zVokCHZ1zcZ56YxsKwyvh4cQFwtJ3So77HHXJt5Yhe6P7Yxr2VAK4q+kiG1AxEUbc3rqAToSBKtbzU3sLLYggLnm61w0EwAMMTd6bUhFne7aTll+/oqvn7dYRhJbufM6/cpWiimdJAoiXobwdGkJjiJbWoOVFe4rzNUcc6QjMxGQRJHtrCpsCnocTsCEYZrCJUENVFhyH405l6VQbbjx61GFTIihvvKdpbAMLvdRKigw/Xw8wJ5TLCIWxFD+/7XAeynZ0MFgQiJnDlK/DVZm0YUDu0EOpCNuKwoCdTN6jPMaKfqTvHR+HvubMh62trj054QoGKtYm2GsX1UdeK7tV5TSUKjQZv3PRMrzA7cYm4hwEehy4SvZUipVURy9g1fB4INJLecvSKyXQEWrc/ySt6fEFHU8opryBvJtpO2NLBXSSdnizR+C2ec2GKdzmM3YjaPANjINzGk2DWUJRzX3Q5kq7EochMpEdnOSwi6JhmEErG9aRlZbpzFyst7v2QFJeI35wY/yDgxx6wj+R/HELSwad3csWtw1FlXhHgyK4oYmyHyzdFtQjvs5/3309Es4ZXy/zATi8Z24g7DF9JEYRNbTBQ1zQ6LYy2dO5ZNtPSr7dCESsoScJlWBgFK6itDsX3xFsNY1Zdm4N+whCo7fmYt6e9+6KE0ZzGMRl5shrJJiiXL8X7Z03DfxhCktk686qbZeggCsf11F1XoNMliaAdbCzzYnsUZ94vZtZvpwPXQJNFiGLjeB5pESsvFNV9KKUm0oL6VIXjVLI6NpgxAZpFY2kXU1k3Br75Wb1jyqsZiO5S15b8+4mEYvN4P8NsRy3HjiD9X3mW3XvgmhpS4gSkSP7ePtwJ4iaFg/wh0re0motHZ661JwNcjdMRyVyRrm/dwBbaZwvcwBP2OWo4O36OY8iFj22GQIcQt0w1h47NMtIqjYeB69usY4t82f4J2mhNopsfbfSNDUq6QeNbMvuCo5zDEIRFHZgYcqX1qMxbwuDa+gmHRCS3b4JbSsxklxNr0phWgvpVhytb8bfRCUTqPoWweg1NO2MC2OXdO/ZsY8jj4zlgtUWO72vkehlXrwvl14zyGFA5cNLDC1YaJxksOZR7DQPXmcaEF35iMCR68rSPC1xkGbg6WZPpy7iUjn8swgdWUhdzVETuINZqdN7g0j+GWb4ibDF1Y6SizmQ1SlKrYCTpXvF7j+1Yfeopn6MisL25Z5jCXIYsjPVQpHk4QEP36ZV0/j+Emqrg2q4KTikXsclIk4dFNJ/kCzkyQuxwdM5xbYdlooqbLUYZm2TUE8dRu/smUKl9giBV0v5D06jXJztyfZtcKLzPcj2VRZE3TJVVo7JPRb7eikDGjNNqAOlJXGutQVEMC7fEQuBiubrrYCRYjzWwWJSuaADdPrPu6p4KbuKGRKWS1lLQLhfkMoT+qOzGf9yUDgTvkRRSMuobQFxlCepB0hu3TPh8nbpq1ozuoH/GSAIaQ47uYSWRBGZ0xfZzGeHR+ndRJKLaBh1Si6IsyxKVc1J9/MPvW9TsQ+pPRLzFcI79tAhqz6V+3yxSQO7GSRmjbFz4SKObDDEO4Ou1M7GRR1dM99DYpqqJgm3BmQ7cZxtAcJ1mAH0JF3yH8AIV7/Y5kM4zNjoCK5XUn89maDcM8mRzDokw3A28nobTIhg+zc2dcw715MxV4fdTW7BkdZDpn5EqubmzMxGa16VzvvFFTiW5U53oGnqzxeOmREUYSMjFwQTvft2LAvPnciQMZzuh/4rlbCd/5Bz23q+MJnJ3QL/v4ElKYYvW9Z1neFBkSK2bezbJMSJFoGSkIoqiWF/Jp4D8NPZt1guNCPtH95wEJgBU7l5UhGa2CFGJ5ZYghKoXtUlkIwYtkVlhhhRVWWGGFFVZYYYUVVlhhhRVWWCj8P0a5fFZTbfQWAAAAAElFTkSuQmCC;" vertex="1" parent="1">
          <mxGeometry x="200" y="40" width="50" height="50" as="geometry" />
        </mxCell>
        <mxCell id="HCuMxB1ecjVolzXwdw-D-58" value="&lt;b&gt;&lt;font style=&quot;font-size: 23px;&quot;&gt;DATA ARCHITECTURE&lt;/font&gt;&lt;/b&gt;" style="text;html=1;align=center;verticalAlign=middle;whiteSpace=wrap;rounded=0;" vertex="1" parent="1">
          <mxGeometry x="310" width="350" height="30" as="geometry" />
        </mxCell>
      </root>
    </mxGraphModel>
  </diagram>
</mxfile>
